<?xml version="1.0" standalone="no"?>
<!DOCTYPE svg PUBLIC "-//W3C//DTD SVG 20010904//EN"
 "http://www.w3.org/TR/2001/REC-SVG-20010904/DTD/svg10.dtd">
<svg version="1.0" xmlns="http://www.w3.org/2000/svg"
 width="616.000000pt" height="128.000000pt" viewBox="0 0 616.000000 128.000000"
 preserveAspectRatio="xMidYMid meet">

<g transform="translate(0.000000,128.000000) scale(0.100000,-0.100000)"
fill="#000000" stroke="none">
<path d="M215 1271 c-83 -7 -109 -22 -136 -77 -19 -40 -20 -58 -17 -507 3
-453 4 -466 24 -494 43 -59 65 -63 334 -63 282 0 342 9 453 67 243 125 360
416 277 686 -53 170 -211 321 -390 370 -62 17 -425 29 -545 18z"/>
<path d="M5224 1057 c-3 -8 -4 -49 -2 -93 l3 -79 105 0 105 0 0 90 0 90 -103
3 c-80 2 -104 0 -108 -11z"/>
<path d="M1590 626 l0 -406 200 0 c218 0 275 8 366 51 72 34 126 90 162 168
35 75 44 240 17 323 -38 118 -115 197 -232 240 -51 19 -84 22 -285 26 l-228 4
0 -406z m451 206 c76 -39 104 -96 104 -207 -1 -69 -5 -87 -29 -132 -42 -77
-98 -103 -223 -103 l-93 0 0 235 0 235 94 0 c83 0 100 -3 147 -28z"/>
<path d="M4004 1016 c-107 -34 -164 -90 -185 -183 l-12 -53 -49 0 -48 0 0 -75
0 -75 50 0 50 0 0 -205 0 -205 105 0 105 0 0 205 0 205 65 0 65 0 0 75 0 75
-65 0 -65 0 0 30 c0 47 29 67 105 75 52 6 65 11 61 22 -3 8 -6 39 -6 69 l0 54
-67 -1 c-38 0 -86 -6 -109 -13z"/>
<path d="M4900 625 l0 -405 105 0 105 0 0 405 0 405 -105 0 -105 0 0 -405z"/>
<path d="M2632 782 c-73 -27 -122 -69 -157 -137 -26 -51 -30 -69 -30 -139 1
-129 49 -212 153 -263 50 -25 68 -28 152 -28 95 0 171 18 213 49 17 13 17 17
-8 79 l-27 65 -36 -21 c-29 -18 -53 -22 -114 -22 -70 0 -80 3 -102 25 -13 14
-27 35 -31 48 l-6 22 175 0 176 0 0 54 c0 111 -57 214 -143 258 -58 29 -148
33 -215 10z m156 -144 c11 -13 24 -35 27 -50 l7 -28 -91 0 c-100 0 -105 4 -76
60 17 33 27 38 76 39 25 1 42 -6 57 -21z"/>
<path d="M4435 794 c-114 -29 -178 -72 -218 -148 -18 -34 -22 -57 -22 -141 0
-118 16 -158 89 -222 144 -127 417 -80 497 84 18 38 23 65 23 133 1 74 -3 93
-27 142 -33 66 -82 111 -146 133 -48 16 -163 27 -196 19z m122 -164 c23 -14
35 -31 44 -62 13 -51 6 -131 -16 -165 -33 -50 -118 -55 -164 -8 -22 21 -26 36
-29 98 -2 59 1 78 18 105 33 53 91 66 147 32z"/>
<path d="M5775 794 c-120 -31 -183 -76 -221 -159 -34 -71 -33 -189 0 -260 63
-137 230 -197 397 -145 82 25 130 66 166 138 24 48 28 70 28 137 0 175 -101
277 -284 290 -36 2 -75 2 -86 -1z m115 -159 c16 -8 34 -23 39 -33 17 -32 23
-108 12 -149 -17 -62 -40 -84 -92 -90 -41 -5 -50 -2 -80 25 -34 30 -34 31 -34
117 0 85 1 87 33 116 37 33 77 37 122 14z"/>
<path d="M3032 688 c23 -51 78 -176 122 -278 l81 -185 88 -3 c48 -1 87 -1 87
1 0 2 56 128 124 281 l125 277 -102 -3 -102 -3 -60 -147 c-34 -81 -63 -150
-66 -153 -3 -2 -32 65 -65 150 l-59 155 -107 0 -107 0 41 -92z"/>
<path d="M5230 500 l0 -280 100 0 100 0 0 280 0 280 -100 0 -100 0 0 -280z"/>
<path d="M1211 514 c0 -12 -21 -62 -46 -112 -61 -123 -152 -215 -267 -272
-131 -64 -189 -72 -500 -68 l-268 3 24 -24 c33 -33 141 -43 391 -35 222 6 286
18 379 67 84 44 193 155 233 238 36 72 67 180 60 207 -4 13 -5 12 -6 -4z"/>
</g>
</svg>
