<?xml version="1.0" standalone="no"?>
<!DOCTYPE svg PUBLIC "-//W3C//DTD SVG 20010904//EN"
 "http://www.w3.org/TR/2001/REC-SVG-20010904/DTD/svg10.dtd">
<svg version="1.0" xmlns="http://www.w3.org/2000/svg"
 width="609.000000pt" height="98.000000pt" viewBox="0 0 609.000000 98.000000"
 preserveAspectRatio="xMidYMid meet">

<g transform="translate(0.000000,98.000000) scale(0.100000,-0.100000)"
fill="#000000" stroke="none">
<path d="M497 653 c-20 -38 -87 -210 -87 -223 0 -6 -67 -10 -190 -10 -181 0
-190 -1 -190 -19 0 -11 -5 -23 -10 -26 -6 -4 -8 -10 -5 -15 3 -5 8 -26 10 -47
7 -56 10 -72 18 -79 4 -4 7 -16 7 -27 0 -11 17 -37 39 -58 37 -37 42 -39 101
-39 92 0 138 17 196 75 36 35 58 68 74 110 37 97 111 309 113 323 1 8 -12 25
-30 39 l-32 25 -14 -29z"/>
</g>
</svg>
