<?xml version="1.0" standalone="no"?>
<!DOCTYPE svg PUBLIC "-//W3C//DTD SVG 20010904//EN"
 "http://www.w3.org/TR/2001/REC-SVG-20010904/DTD/svg10.dtd">
<svg version="1.0" xmlns="http://www.w3.org/2000/svg"
 width="900.000000pt" height="212.000000pt" viewBox="0 0 900.000000 212.000000"
 preserveAspectRatio="xMidYMid meet">

<g transform="translate(0.000000,212.000000) scale(0.100000,-0.100000)"
fill="#000000" stroke="none">
<path d="M1110 1704 c-135 -228 -245 -418 -245 -424 0 -5 110 -77 245 -160
220 -134 246 -148 265 -137 11 7 125 75 252 151 195 116 231 141 223 155 -5 9
-118 199 -252 422 l-243 406 -245 -413z"/>
<path d="M746 1693 c-2 -10 -10 -76 -17 -147 -12 -122 -12 -129 6 -142 25 -18
31 -18 55 6 13 13 20 34 21 63 1 23 4 52 7 65 l7 22 38 -25 c42 -29 74 -30 91
-2 8 12 8 22 0 35 -11 17 -183 142 -196 142 -4 0 -9 -8 -12 -17z"/>
<path d="M1836 1646 c-98 -70 -112 -86 -96 -116 14 -27 48 -25 92 5 20 14 39
25 42 25 3 0 8 -31 12 -70 4 -47 12 -74 25 -85 20 -19 54 -13 63 12 10 25 -25
293 -38 293 -6 -1 -51 -29 -100 -64z"/>
<path d="M6060 1005 l0 -555 90 0 90 0 -2 553 -3 552 -87 3 -88 3 0 -556z"/>
<path d="M7690 1340 l0 -219 -55 38 c-69 48 -128 65 -208 59 -121 -10 -218
-81 -278 -204 -63 -128 -48 -321 33 -435 42 -59 84 -94 144 -120 103 -46 229
-32 318 36 l46 35 0 -40 0 -40 85 0 85 0 0 555 0 555 -85 0 -85 0 0 -220z
m-97 -302 c25 -14 53 -42 72 -72 28 -46 30 -56 30 -140 0 -75 -4 -98 -22 -133
-45 -83 -139 -126 -231 -103 -159 38 -217 276 -98 406 69 76 159 91 249 42z"/>
<path d="M8023 1545 c-76 -33 -83 -157 -11 -192 42 -20 56 -22 93 -12 93 26
99 167 10 205 -42 17 -51 17 -92 -1z"/>
<path d="M3300 1000 l0 -550 420 0 420 0 0 85 0 85 -310 0 -310 0 0 150 0 150
310 0 310 0 0 85 0 85 -310 0 -310 0 0 145 0 145 450 0 450 0 0 -465 0 -465
110 0 110 0 0 465 0 465 140 0 140 0 0 -465 0 -465 110 0 110 0 0 235 0 235
275 0 275 0 0 -235 0 -235 110 0 110 0 0 550 0 550 -110 0 -110 0 0 -230 0
-230 -275 0 -275 0 0 230 0 230 -920 0 -920 0 0 -550z"/>
<path d="M520 1182 c0 -253 7 -301 63 -406 59 -113 124 -165 420 -336 148 -85
270 -157 273 -161 4 -7 -40 -21 -221 -74 -161 -46 -316 -44 -475 7 -68 21
-178 75 -219 107 l-24 19 124 141 c68 78 128 153 133 167 14 34 -13 62 -48 48
-13 -5 -94 -89 -180 -187 -121 -138 -154 -182 -146 -192 6 -7 45 -36 86 -65
189 -130 401 -186 611 -161 50 6 168 34 263 62 l172 51 172 -51 c209 -63 318
-78 450 -62 51 6 124 20 162 32 88 27 221 96 302 156 61 46 62 47 44 67 -10
12 -85 96 -166 188 -154 176 -181 195 -206 147 -15 -27 -4 -43 135 -199 61
-69 114 -130 118 -137 10 -16 -108 -85 -209 -122 -165 -60 -328 -65 -499 -16
-175 51 -225 67 -225 73 1 4 126 79 280 166 162 93 297 177 321 200 58 56 113
144 141 224 22 63 23 80 22 300 -1 128 -4 235 -7 238 -2 3 -69 -17 -148 -43
-141 -47 -144 -49 -144 -77 0 -49 23 -54 118 -23 46 15 86 27 90 27 11 0 8
-310 -4 -359 -16 -71 -57 -148 -107 -201 -37 -39 -109 -86 -327 -211 -154 -88
-287 -165 -296 -169 -23 -13 -567 304 -632 368 -59 57 -113 165 -126 247 -7
48 -4 325 4 325 1 0 35 -11 75 -25 67 -23 75 -24 97 -10 26 17 29 34 11 57
-11 13 -245 98 -271 98 -4 0 -7 -103 -7 -228z"/>
<path d="M6687 1206 c-21 -8 -56 -26 -77 -40 -22 -14 -42 -26 -45 -26 -3 0 -5
14 -5 30 l0 30 -85 0 -85 0 2 -372 3 -373 83 -3 82 -3 0 178 c0 204 12 328 35
373 33 64 147 87 213 44 47 -31 52 -64 52 -339 l0 -255 85 0 85 0 0 273 c0
305 -7 350 -62 413 -17 19 -50 45 -72 56 -52 27 -157 34 -209 14z"/>
<path d="M8483 1202 c-103 -37 -178 -120 -214 -235 -29 -91 -24 -237 10 -312
50 -112 121 -180 220 -209 100 -29 189 -16 274 43 25 17 48 31 51 31 3 0 6
-16 6 -35 l0 -35 85 0 85 0 0 375 0 375 -84 0 -85 0 -3 -42 -3 -41 -30 25
c-86 72 -210 96 -312 60z m237 -157 c119 -62 157 -255 74 -376 -68 -100 -219
-114 -304 -29 -102 102 -91 310 21 388 60 42 147 49 209 17z"/>
<path d="M7990 825 l0 -375 80 0 80 0 0 375 0 375 -80 0 -80 0 0 -375z"/>
<path d="M856 1119 c6 -8 120 -171 254 -362 133 -192 246 -345 250 -340 5 4
73 103 152 218 79 116 188 275 242 354 70 101 92 139 75 131 -13 -7 -123 -71
-244 -143 -121 -72 -225 -130 -230 -130 -6 0 -111 58 -235 130 -277 160 -278
161 -264 142z"/>
<path d="M229 1050 c-30 -4 -88 -17 -129 -29 l-73 -22 45 -47 c97 -102 158
-195 193 -295 23 -67 45 -88 73 -71 44 29 -4 179 -97 303 -23 30 -41 58 -41
62 0 15 111 21 169 10 32 -6 65 -9 74 -5 19 7 30 35 21 57 -12 31 -134 51
-235 37z"/>
<path d="M2283 1039 c-36 -11 -49 -38 -33 -69 12 -23 26 -24 90 -9 49 11 170
3 170 -12 0 -5 -16 -30 -37 -56 -46 -61 -113 -200 -120 -250 -6 -44 12 -67 48
-61 17 2 27 19 49 81 31 88 92 184 174 274 l57 62 -68 22 c-76 25 -273 36
-330 18z"/>
</g>
</svg>
