<?xml version="1.0" standalone="no"?>
<!DOCTYPE svg PUBLIC "-//W3C//DTD SVG 20010904//EN"
 "http://www.w3.org/TR/2001/REC-SVG-20010904/DTD/svg10.dtd">
<svg version="1.0" xmlns="http://www.w3.org/2000/svg"
 width="582.000000pt" height="128.000000pt" viewBox="0 0 582.000000 128.000000"
 preserveAspectRatio="xMidYMid meet">

<g transform="translate(0.000000,128.000000) scale(0.100000,-0.100000)"
fill="#000000" stroke="none">
<path d="M318 1237 c-182 -97 -293 -165 -305 -188 -18 -35 -17 -405 1 -438 19
-34 351 -221 394 -221 23 0 112 46 333 172 214 122 310 172 333 172 45 0 232
-108 251 -145 11 -20 15 -62 15 -142 0 -99 -3 -118 -20 -139 -28 -36 -210
-138 -245 -138 -36 0 -216 101 -244 137 -17 20 -21 40 -21 95 l0 69 -70 -38
-70 -38 0 -67 c0 -37 5 -79 12 -93 16 -35 349 -225 394 -225 37 0 345 167 382
207 21 23 22 30 22 236 -1 154 -4 216 -13 228 -18 24 -368 219 -392 219 -12 0
-159 -79 -327 -175 -225 -129 -315 -175 -339 -175 -40 0 -218 98 -248 137 -18
22 -21 40 -21 140 0 78 4 122 14 141 19 37 205 142 251 142 39 0 231 -104 248
-135 7 -11 14 -52 17 -92 l5 -72 65 38 65 37 0 81 c0 50 -5 86 -13 95 -15 18
-336 203 -369 212 -14 5 -47 -7 -105 -37z"/>
<path d="M3117 1273 c-4 -3 -7 -204 -7 -445 l0 -438 80 0 80 0 0 445 0 445
-73 0 c-41 0 -77 -3 -80 -7z"/>
<path d="M2083 901 c-17 -5 -54 -20 -82 -35 l-51 -26 -6 25 c-6 24 -10 25 -75
25 l-69 0 0 -365 0 -365 80 0 80 0 0 135 0 135 43 -23 c34 -18 58 -22 127 -22
94 0 142 18 191 72 51 54 64 91 64 183 0 73 -4 92 -27 137 -26 48 -64 85 -114
112 -30 15 -122 22 -161 12z m83 -150 c45 -28 71 -98 55 -151 -22 -74 -103
-115 -181 -91 -59 17 -80 51 -80 126 0 67 21 108 64 125 38 16 109 11 142 -9z"/>
<path d="M4813 890 c-120 -39 -192 -146 -180 -270 14 -153 138 -250 306 -238
206 15 315 201 226 385 -58 117 -208 170 -352 123z m141 -124 c18 -7 43 -26
55 -42 20 -25 22 -38 19 -93 -4 -57 -8 -67 -36 -92 -26 -23 -42 -29 -80 -29
-56 0 -83 17 -106 64 -40 84 -2 178 79 199 32 8 34 8 69 -7z"/>
<path d="M2593 871 c-102 -49 -150 -136 -140 -256 11 -148 116 -235 282 -235
165 0 276 104 276 259 0 79 -15 122 -62 176 -52 59 -118 85 -214 85 -68 0 -89
-4 -142 -29z m192 -107 c48 -23 69 -68 63 -139 -4 -50 -10 -63 -37 -87 -25
-22 -41 -28 -79 -28 -56 0 -83 17 -106 64 -23 49 -20 106 7 147 39 58 90 73
152 43z"/>
<path d="M4085 882 c-43 -20 -104 -82 -129 -130 -44 -85 -24 -212 45 -287 61
-67 114 -88 204 -83 64 3 80 8 119 35 l46 33 0 -49 c0 -33 -6 -56 -20 -74 -44
-55 -157 -62 -230 -13 -47 31 -49 30 -102 -37 l-32 -40 25 -20 c13 -11 49 -31
79 -45 45 -21 70 -26 140 -26 73 0 94 4 148 28 66 31 115 78 138 132 11 26 14
97 14 304 l0 270 -75 0 c-60 0 -75 -3 -75 -15 0 -20 -6 -19 -48 7 -51 31 -190
37 -247 10z m212 -117 c66 -28 73 -40 73 -122 0 -67 -2 -76 -26 -98 -25 -23
-80 -45 -113 -45 -30 0 -97 41 -114 69 -24 41 -23 121 3 153 42 54 111 70 177
43z"/>
<path d="M5542 885 c-19 -8 -47 -29 -62 -45 l-29 -31 -7 36 -6 35 -74 0 -74 0
0 -245 0 -245 79 0 79 0 4 138 c5 186 34 241 125 242 68 0 73 -15 73 -212 l0
-168 80 0 80 0 0 198 c0 221 -6 247 -69 289 -27 18 -48 23 -100 23 -36 -1 -81
-7 -99 -15z"/>
<path d="M3456 649 l116 -232 -57 -121 c-31 -67 -59 -127 -62 -134 -4 -10 12
-12 72 -10 l78 3 158 355 c87 195 159 358 159 363 0 4 -31 7 -69 7 l-68 0 -63
-140 c-35 -77 -66 -140 -69 -140 -3 0 -34 62 -67 138 l-61 137 -92 3 -91 3
116 -232z"/>
</g>
</svg>
