<?xml version="1.0" standalone="no"?>
<!DOCTYPE svg PUBLIC "-//W3C//DTD SVG 20010904//EN"
 "http://www.w3.org/TR/2001/REC-SVG-20010904/DTD/svg10.dtd">
<svg version="1.0" xmlns="http://www.w3.org/2000/svg"
 width="260.000000pt" height="63.000000pt" viewBox="0 0 260.000000 63.000000"
 preserveAspectRatio="xMidYMid meet">

<g transform="translate(0.000000,63.000000) scale(0.100000,-0.100000)"
fill="#000000" stroke="none">
<path d="M284 538 c-15 -24 -28 -45 -30 -46 -1 -2 -24 6 -49 17 -26 12 -50 21
-52 21 -3 0 -2 -24 1 -54 l7 -55 -38 -10 c-21 -6 -46 -11 -55 -11 -26 0 -22
-10 19 -52 l36 -37 -36 -45 -37 -45 55 -12 56 -12 -7 -60 -7 -59 41 21 c23 12
48 21 56 21 8 0 27 -21 42 -46 l27 -46 29 50 29 51 52 -24 53 -23 -4 58 -4 58
57 12 57 12 -40 41 -41 42 34 40 c19 22 34 43 35 46 0 4 -21 11 -47 16 l-48 8
0 58 c0 62 -2 64 -68 30 -34 -17 -42 -12 -67 38 -11 21 -23 39 -25 39 -3 0
-17 -19 -31 -42z m53 -33 c16 -35 16 -36 -5 -58 l-23 -22 -18 24 c-18 23 -18
27 -3 58 9 18 19 33 24 33 5 0 16 -16 25 -35z m-66 -61 c13 -15 12 -16 -11 -9
-28 8 -60 33 -60 47 0 12 53 -17 71 -38z m147 27 c-10 -16 -48 -41 -63 -41
-13 0 11 33 34 45 36 19 43 18 29 -4z m-222 -18 c16 -22 19 -82 3 -66 -12 12
-30 83 -22 83 3 0 12 -8 19 -17z m254 -7 c0 -13 -8 -34 -19 -47 l-18 -23 5 35
c4 30 18 59 28 59 2 0 4 -11 4 -24z m-176 -36 c22 -8 26 -16 26 -50 l0 -40
-32 13 c-28 11 -33 19 -36 50 -3 39 2 43 42 27z m126 -17 c0 -39 -11 -52 -48
-59 -31 -6 -32 -6 -32 29 0 29 5 37 28 45 44 17 52 14 52 -15z m-216 -18 c21
-32 21 -30 -14 -45 -27 -11 -32 -10 -49 11 -26 33 -26 43 1 51 39 10 45 9 62
-17z m327 15 c26 0 24 -22 -5 -49 -21 -20 -26 -21 -56 -9 l-32 13 22 28 c13
17 28 26 37 23 8 -3 23 -6 34 -6z m-221 -90 c0 -4 -9 -19 -20 -33 -19 -23 -24
-25 -53 -15 -43 15 -43 13 -16 46 22 26 27 28 57 19 17 -6 32 -13 32 -17z
m150 -29 c0 -4 -15 -12 -34 -18 -32 -10 -36 -8 -56 19 -25 33 -25 32 15 46 26
9 33 7 53 -14 12 -14 22 -29 22 -33z m-272 17 c-15 -22 -58 -44 -58 -28 0 11
49 50 63 50 5 0 3 -10 -5 -22z m313 10 c8 -7 21 -21 28 -30 10 -14 9 -16 -8
-11 -26 7 -70 53 -50 53 9 0 22 -6 30 -12z m-131 -70 c0 -7 -9 -24 -19 -37
l-18 -23 -22 31 -22 31 21 30 22 31 19 -25 c10 -13 19 -30 19 -38z m-163 16
c34 -9 17 -24 -28 -24 -53 0 -52 18 1 29 3 0 15 -2 27 -5z m300 0 c34 -9 17
-24 -27 -24 -43 0 -63 16 -28 23 13 2 25 5 28 6 3 0 15 -2 27 -5z m-39 -87 c2
-20 1 -37 -1 -37 -2 0 -18 5 -36 11 -28 10 -31 15 -31 50 l0 39 33 -13 c27
-11 32 -19 35 -50z m-198 23 c0 -23 -7 -33 -30 -45 -45 -23 -52 -20 -44 23 8
41 18 52 52 52 18 0 22 -6 22 -30z m49 -55 c0 -29 0 -29 -14 -11 -8 11 -15 33
-15 50 0 28 1 29 15 10 8 -10 14 -32 14 -49z m42 -8 l-21 -32 0 28 c0 15 8 40
18 55 17 26 17 26 20 4 2 -13 -6 -37 -17 -55z"/>
<path d="M1083 429 c-66 -20 -98 -102 -68 -177 37 -92 183 -97 221 -7 47 113
-40 218 -153 184z m77 -59 c41 -41 16 -140 -35 -140 -31 0 -55 35 -55 82 0 40
27 78 55 78 8 0 24 -9 35 -20z"/>
<path d="M678 304 l25 -125 36 3 c34 3 36 5 56 70 12 37 24 70 27 73 2 3 15
-29 27 -70 21 -74 22 -75 56 -75 33 0 34 1 45 58 6 31 18 85 26 120 8 35 14
65 14 68 0 2 -13 4 -29 4 -31 0 -34 -5 -46 -93 -4 -26 -11 -49 -15 -52 -4 -2
-17 29 -29 70 -21 71 -24 75 -51 75 -26 0 -30 -5 -40 -42 -6 -24 -16 -59 -23
-78 l-11 -35 -15 78 c-14 77 -15 77 -46 77 l-32 0 25 -126z"/>
<path d="M1290 305 l0 -125 80 0 c79 0 80 0 80 25 0 23 -3 25 -50 25 l-50 0 0
100 0 100 -30 0 -30 0 0 -125z"/>
<path d="M1480 305 l0 -125 30 0 c29 0 30 1 30 50 l0 50 50 0 c46 0 50 2 50
24 0 23 -5 25 -47 28 -44 3 -48 5 -48 28 0 23 4 25 48 28 39 3 47 6 47 23 0
17 -7 19 -80 19 l-80 0 0 -125z"/>
<path d="M1680 305 l0 -125 30 0 c29 0 30 1 30 50 0 42 3 50 19 50 23 0 35
-15 50 -62 11 -33 17 -38 43 -38 28 0 30 2 24 28 -4 15 -15 43 -25 63 -17 35
-17 37 1 48 24 15 24 72 0 94 -14 13 -38 17 -95 17 l-77 0 0 -125z m115 71
c27 -19 13 -46 -25 -46 -25 0 -30 4 -30 23 0 39 21 48 55 23z"/>
<path d="M1942 317 c-23 -63 -42 -119 -42 -125 0 -7 13 -12 29 -12 23 0 31 6
40 30 9 27 14 30 56 30 42 0 47 -3 56 -30 9 -26 16 -30 46 -30 29 0 34 3 28
18 -4 9 -25 65 -47 125 l-40 107 -42 0 -41 0 -43 -113z m107 -19 c1 -13 -7
-18 -24 -18 -28 0 -30 7 -13 63 l12 40 12 -34 c7 -19 13 -42 13 -51z"/>
<path d="M2200 318 c-12 -62 -23 -117 -24 -123 0 -5 11 -11 26 -13 30 -4 27
-9 48 101 7 32 13 57 15 55 2 -2 15 -37 27 -78 21 -67 27 -75 50 -78 25 -3 28
1 42 50 8 29 18 66 22 81 9 37 12 31 25 -39 16 -91 17 -94 50 -94 16 0 29 2
29 4 0 5 -38 193 -45 224 -5 20 -11 23 -43 20 -37 -3 -37 -4 -56 -70 -11 -38
-22 -68 -26 -68 -3 0 -14 32 -25 70 l-19 70 -36 0 -37 0 -23 -112z"/>
</g>
</svg>
