<?xml version="1.0" standalone="no"?>
<!DOCTYPE svg PUBLIC "-//W3C//DTD SVG 20010904//EN"
 "http://www.w3.org/TR/2001/REC-SVG-20010904/DTD/svg10.dtd">
<svg version="1.0" xmlns="http://www.w3.org/2000/svg"
 width="500.000000pt" height="122.000000pt" viewBox="0 0 500.000000 122.000000"
 preserveAspectRatio="xMidYMid meet">

<g transform="translate(0.000000,122.000000) scale(0.100000,-0.100000)"
fill="#000000" stroke="none">
<path d="M542 1050 c-29 -49 -59 -90 -65 -90 -7 0 -53 18 -102 40 -49 21 -91
38 -92 36 -2 -2 2 -49 8 -106 9 -81 9 -104 -2 -110 -6 -5 -52 -16 -101 -25
-49 -10 -90 -21 -93 -25 -3 -4 21 -36 53 -71 31 -35 63 -71 70 -80 10 -14 2
-28 -58 -94 -38 -43 -67 -81 -65 -85 3 -4 44 -15 93 -25 49 -9 95 -20 101 -25
11 -6 11 -29 2 -110 -6 -57 -10 -104 -8 -106 1 -2 43 15 92 36 49 22 94 40
101 40 6 0 31 -33 54 -73 73 -123 61 -121 124 -14 l56 95 97 -43 c67 -29 99
-39 101 -30 2 6 -1 54 -7 106 -5 56 -5 96 0 100 5 3 50 13 99 24 50 10 93 22
96 26 3 5 -25 42 -62 83 -36 41 -66 78 -65 82 1 5 31 42 67 81 36 40 63 77 60
82 -3 4 -46 16 -96 26 -49 11 -94 21 -99 24 -6 4 -5 41 0 94 15 136 20 132
-94 81 l-97 -43 -56 95 c-30 52 -56 94 -58 94 -1 0 -25 -40 -54 -90z m92 -49
c20 -32 36 -64 36 -71 0 -7 -17 -33 -37 -58 l-37 -45 -24 29 c-58 71 -57 66
-17 138 20 37 38 66 40 66 2 0 20 -26 39 -59z m-136 -118 c17 -20 31 -38 29
-40 -2 -1 -24 4 -50 13 -41 14 -71 41 -101 91 -15 26 91 -30 122 -64z m300 35
c-24 -32 -66 -58 -117 -73 l-24 -7 28 36 c15 20 46 45 69 55 62 29 72 26 44
-11z m-428 -33 c27 -39 31 -53 28 -97 l-3 -52 -26 40 c-18 25 -29 59 -33 97
-3 31 -4 57 -2 57 3 0 19 -20 36 -45z m486 -29 c-5 -37 -16 -63 -36 -87 l-29
-34 6 60 c4 42 14 71 32 97 30 43 36 36 27 -36z m-276 -147 c0 -79 -1 -79 -85
-50 l-50 18 -3 75 -3 76 71 -26 70 -25 0 -68z m175 44 c-4 -38 -10 -71 -13
-74 -8 -7 -101 -39 -114 -39 -5 0 -8 32 -6 72 l3 71 50 18 c87 30 88 29 80
-48z m-402 -25 l37 -53 -63 -23 -62 -24 -52 59 c-28 32 -50 59 -49 60 3 3 125
30 142 32 6 1 27 -23 47 -51z m606 36 l71 -16 -19 -27 c-11 -14 -35 -41 -54
-59 l-34 -33 -54 21 c-30 12 -55 23 -57 25 -5 4 62 105 69 105 4 0 39 -7 78
-16z m-461 -145 c34 -11 62 -23 62 -25 0 -3 -18 -29 -41 -59 l-40 -54 -51 15
c-98 30 -94 23 -46 87 24 31 46 57 49 57 3 0 33 -9 67 -21z m312 -35 c23 -30
40 -58 37 -60 -2 -3 -34 -13 -69 -23 l-66 -19 -41 56 -41 57 62 22 c35 12 66
22 69 22 4 1 26 -24 49 -55z m-486 -13 c-20 -28 -42 -45 -73 -56 -25 -8 -46
-13 -48 -11 -10 10 65 80 102 96 22 10 42 16 44 14 2 -1 -10 -21 -25 -43z
m636 -25 c21 -22 37 -43 34 -45 -2 -2 -24 4 -49 13 -38 15 -105 78 -105 100 0
17 87 -32 120 -68z m-321 -31 l42 -55 -42 -62 -42 -62 -16 24 c-9 13 -28 40
-42 59 l-26 36 40 58 c22 31 41 57 42 57 2 0 21 -25 44 -55z m-285 -37 c60
-17 62 -24 13 -38 -36 -9 -57 -9 -103 1 l-59 12 40 18 c48 22 55 22 109 7z
m607 -11 l34 -13 -61 -13 c-51 -11 -69 -11 -110 1 l-49 15 50 16 c53 17 83 16
136 -6z m-491 -105 l0 -68 -66 -28 c-37 -15 -69 -25 -72 -22 -3 3 -1 38 4 78
l9 72 55 17 c30 9 58 17 63 18 4 1 7 -30 7 -67z m318 51 c35 -11 57 -24 62
-38 11 -31 18 -135 8 -135 -5 0 -38 13 -73 29 l-65 30 0 65 c0 36 3 66 7 66 3
0 31 -8 61 -17z m-239 -78 c28 -39 32 -51 29 -97 l-3 -53 -32 53 c-25 39 -33
64 -33 97 0 25 1 45 3 45 2 0 18 -20 36 -45z m102 -98 l-31 -52 0 58 c0 48 5
66 28 97 l27 39 3 -45 c2 -35 -3 -56 -27 -97z"/>
<path d="M2060 837 c-162 -52 -184 -355 -32 -445 41 -24 57 -27 132 -27 92 0
132 14 177 63 41 44 56 91 56 177 1 125 -45 201 -142 234 -42 14 -144 13 -191
-2z m143 -89 c49 -26 72 -93 62 -176 -9 -74 -47 -117 -103 -117 -53 0 -87 32
-102 95 -32 132 51 247 143 198z"/>
<path d="M1252 828 c3 -7 24 -113 48 -235 l43 -223 72 0 72 0 44 145 c24 79
45 143 47 141 1 -2 22 -66 45 -142 l43 -139 69 0 69 0 41 200 c23 110 45 215
49 233 l8 32 -61 0 c-51 0 -61 -3 -61 -17 0 -43 -53 -294 -60 -282 -4 8 -27
78 -50 157 l-43 142 -56 0 -56 0 -40 -150 c-21 -82 -41 -147 -44 -144 -3 3
-17 69 -31 147 l-26 142 -63 3 c-49 2 -62 0 -59 -10z"/>
<path d="M2470 605 l0 -235 160 0 160 0 0 45 0 45 -100 0 -100 0 0 190 0 190
-60 0 -60 0 0 -235z"/>
<path d="M2840 605 l0 -235 65 0 65 0 0 95 0 95 90 0 90 0 0 45 0 45 -90 0
-90 0 0 55 0 55 95 0 95 0 0 40 0 40 -160 0 -160 0 0 -235z"/>
<path d="M3220 605 l0 -235 65 0 65 0 0 96 0 97 32 -7 c46 -9 54 -20 83 -107
l27 -79 64 0 c35 0 64 1 64 3 0 13 -65 178 -80 204 -18 32 -18 32 1 38 28 9
59 63 59 103 0 18 -7 47 -16 63 -25 48 -65 59 -224 59 l-140 0 0 -235z m211
145 c10 0 26 -11 35 -25 15 -23 15 -27 0 -50 -14 -21 -24 -25 -66 -25 l-50 0
0 56 0 57 31 -7 c17 -3 40 -6 50 -6z"/>
<path d="M3730 618 c-46 -123 -85 -229 -88 -235 -3 -10 13 -13 60 -13 l64 0
15 48 15 47 91 3 91 3 17 -51 17 -50 68 0 69 0 -24 63 c-13 34 -53 139 -88
232 l-65 170 -80 3 -79 3 -83 -223z m162 -56 c-30 -2 -56 -1 -58 1 -3 3 32
117 52 167 4 9 18 -24 33 -75 l27 -90 -54 -3z"/>
<path d="M4256 768 c-9 -40 -31 -146 -50 -235 l-34 -163 58 0 58 0 22 123 c32
179 36 194 44 177 3 -8 25 -78 49 -155 l43 -140 55 -3 56 -3 27 103 c15 57 35
128 43 158 l16 55 23 -125 c13 -69 26 -140 29 -157 6 -33 6 -33 65 -33 33 0
60 3 60 8 0 6 -73 382 -86 440 -4 22 -9 23 -77 20 l-71 -3 -41 -130 c-22 -71
-43 -136 -46 -144 -2 -7 -24 52 -48 133 l-44 146 -68 0 -68 0 -15 -72z"/>
</g>
</svg>
