<?xml version="1.0" standalone="no"?>
<!DOCTYPE svg PUBLIC "-//W3C//DTD SVG 20010904//EN"
 "http://www.w3.org/TR/2001/REC-SVG-20010904/DTD/svg10.dtd">
<svg version="1.0" xmlns="http://www.w3.org/2000/svg"
 width="960.000000pt" height="1023.000000pt" viewBox="0 0 960.000000 1023.000000"
 preserveAspectRatio="xMidYMid meet">

<g transform="translate(0.000000,1023.000000) scale(0.100000,-0.100000)"
fill="#000000" stroke="none">
<path d="M9125 10220 c68 -10 401 -40 446 -40 40 0 38 26 -3 34 -18 3 -139 8
-268 10 -159 3 -216 2 -175 -4z"/>
<path d="M0 9708 c0 -5 32 -9 70 -10 103 -2 126 -4 138 -12 6 -3 13 -2 17 3 3
6 -9 12 -27 15 -56 9 -198 12 -198 4z"/>
<path d="M310 9681 c8 -6 62 -11 120 -11 58 0 136 -5 173 -10 144 -21 388 -42
627 -53 127 -6 79 -1 -290 32 -135 12 -283 26 -330 31 -156 16 -316 22 -300
11z"/>
<path d="M1395 9591 c21 -5 41 -14 43 -20 3 -9 7 -8 16 2 12 15 53 13 346 -14
74 -6 158 -13 185 -15 87 -5 188 -14 263 -25 41 -6 122 -12 180 -13 59 -2 125
-8 147 -14 22 -6 83 -12 136 -14 55 -2 94 -7 91 -12 -3 -5 19 -7 51 -3 53 5
107 -7 107 -25 0 -12 108 -9 115 2 3 6 21 10 38 10 21 0 28 -3 19 -9 -10 -6
-4 -10 18 -15 46 -9 50 -8 50 10 0 13 7 15 31 10 17 -3 41 -6 53 -7 19 -1 18
-2 -4 -9 -15 -5 12 -7 68 -4 51 2 91 1 89 -3 -3 -5 16 -8 41 -9 26 0 79 -3
117 -6 39 -4 131 -11 205 -17 133 -11 253 -28 216 -30 -11 0 -17 -3 -14 -6 3
-3 27 -1 53 5 32 7 52 7 58 1 5 -5 23 -7 40 -4 21 4 28 3 23 -6 -11 -18 22
-25 49 -11 18 10 28 10 38 2 7 -6 30 -13 50 -15 21 -2 47 -13 58 -23 17 -16
22 -16 30 -4 8 12 9 11 5 -5 -5 -19 0 -20 77 -22 55 -2 75 1 62 7 -15 6 -3 9
45 10 52 2 59 4 35 10 -28 7 -27 8 13 9 31 1 42 -3 42 -14 0 -8 9 -15 21 -15
11 0 17 4 14 10 -3 6 1 7 9 4 9 -3 13 -10 10 -15 -7 -11 54 -11 81 1 19 8 19
9 1 9 -11 1 -17 3 -15 6 3 2 23 1 45 -2 36 -6 37 -7 14 -15 -15 -4 1 -6 40 -3
48 3 59 2 40 -5 -23 -9 -22 -9 5 -4 53 11 91 8 126 -8 25 -12 63 -16 139 -16
58 0 118 -5 133 -11 23 -9 33 -8 50 4 25 17 47 20 47 5 0 -5 -7 -10 -15 -10
-34 0 -12 -18 26 -22 l41 -4 -24 19 c-20 17 -21 19 -3 14 11 -4 58 -7 104 -9
72 -1 81 -3 65 -15 -21 -15 -6 -17 31 -3 16 6 24 6 20 0 -3 -5 -21 -12 -40
-16 -25 -4 -35 -11 -35 -25 0 -24 12 -24 27 -1 9 15 20 18 58 15 35 -3 45 -1
40 8 -6 9 6 10 51 6 34 -4 48 -3 34 2 -47 15 157 2 226 -14 38 -9 125 -18 193
-20 68 -3 160 -9 204 -15 45 -5 115 -11 157 -12 73 -2 73 -2 15 -5 -33 -2 -54
-7 -48 -11 6 -4 -31 -7 -82 -8 -52 0 -92 3 -89 7 9 16 -71 21 -150 10 -44 -6
-100 -11 -123 -11 -25 0 -43 -5 -43 -11 0 -8 -24 -9 -80 -4 -58 5 -80 4 -80
-4 0 -8 -12 -10 -37 -5 -21 4 -57 8 -80 8 -22 1 -39 4 -36 9 2 4 -19 7 -47 7
-28 0 -49 -4 -46 -9 7 -10 -79 -20 -123 -13 -17 2 -28 8 -25 13 3 5 0 9 -5 9
-6 0 -11 -9 -11 -20 0 -11 -4 -20 -10 -20 -10 0 -14 21 -11 49 2 7 -2 10 -8 7
-6 -4 -19 -1 -30 6 -16 10 -23 10 -33 0 -9 -9 -7 -12 9 -12 12 0 25 -5 28 -10
4 -7 -14 -10 -54 -8 -67 2 -79 -3 -56 -25 13 -14 9 -15 -43 -11 -31 3 -68 8
-82 12 -14 3 -29 7 -35 7 -5 1 -18 5 -28 10 -25 10 -146 0 -160 -14 -16 -16
-37 -14 -37 4 0 10 10 15 32 15 22 0 29 3 22 10 -14 14 -74 -7 -74 -26 0 -9
-11 -14 -30 -14 -36 0 -40 -21 -6 -39 16 -9 29 -10 42 -3 11 6 36 7 59 2 22
-4 31 -8 20 -9 -20 -2 -20 -2 -1 -16 11 -8 36 -15 56 -15 20 0 59 -11 86 -25
27 -14 58 -25 69 -26 16 0 14 -3 -7 -11 -32 -11 -37 -28 -9 -28 26 0 35 -16
15 -24 -24 -9 -34 -7 -34 7 -1 6 -10 23 -20 36 l-20 23 -20 -25 c-15 -19 -32
-27 -63 -30 l-42 -4 43 -1 c41 -2 42 -3 42 -36 0 -34 0 -35 -32 -25 -43 12
-48 12 -48 -5 0 -8 18 -18 42 -24 49 -13 62 -3 54 41 -4 19 -1 27 9 27 10 0
13 -8 9 -27 -2 -16 0 -35 6 -43 9 -13 12 -12 25 4 12 15 15 16 15 5 0 -16 76
-39 131 -39 26 0 29 -4 29 -30 0 -20 5 -30 15 -30 8 0 15 -4 15 -9 0 -5 -7
-11 -15 -15 -21 -8 -19 -36 3 -36 9 1 28 7 42 15 14 8 42 14 63 15 33 0 37 3
37 25 0 23 2 24 20 13 11 -7 23 -21 26 -31 3 -10 19 -23 35 -29 33 -11 37 -24
12 -32 -10 -3 10 -3 44 -1 35 3 73 1 87 -4 15 -6 27 -6 34 1 12 12 93 20 217
22 l80 1 3 -37 c3 -37 4 -38 43 -38 37 0 39 2 39 30 0 25 4 30 24 30 18 0 25
-6 28 -22 3 -21 9 -23 63 -24 59 -1 83 -16 54 -35 -10 -6 -8 -9 8 -9 12 0 25
-4 28 -10 3 -5 31 -10 61 -10 41 0 54 4 54 15 0 11 13 15 54 15 l55 0 3 42 c3
37 7 43 33 50 17 4 34 3 39 -2 6 -6 20 -10 33 -10 18 0 23 -6 23 -25 0 -22 -4
-25 -40 -25 -38 0 -40 -2 -40 -30 0 -16 5 -30 10 -30 6 0 10 7 10 15 0 8 9 15
20 15 11 0 20 -7 20 -15 0 -12 17 -15 90 -15 53 0 90 -4 90 -10 0 -6 33 -10
80 -10 l80 0 0 -30 c0 -28 3 -30 36 -30 19 0 45 6 57 12 29 16 247 20 266 5
10 -9 18 -6 32 12 11 13 19 18 19 12 0 -6 12 -11 26 -11 16 0 23 -4 18 -12 -5
-8 0 -9 14 -6 12 4 25 2 28 -3 3 -6 15 -7 26 -3 17 5 19 3 13 -15 -4 -15 -2
-21 9 -21 28 0 46 12 46 32 0 17 5 19 25 14 28 -7 35 8 9 18 -34 13 -6 16 45
5 32 -7 51 -16 51 -25 0 -10 12 -14 40 -14 22 0 40 -4 40 -9 0 -5 10 -11 23
-15 18 -5 20 -8 7 -16 -13 -8 -12 -10 3 -10 9 0 17 5 17 10 0 6 7 10 15 10 8
0 15 7 15 15 0 10 -10 15 -27 15 -31 0 -61 15 -51 26 6 5 93 -22 108 -33 2 -2
-2 -9 -10 -14 -12 -8 -10 -9 7 -4 12 3 24 1 28 -5 3 -6 -3 -10 -17 -10 -16 0
-19 -3 -10 -9 10 -6 8 -10 -10 -16 -22 -7 -22 -7 7 -15 17 -5 42 -12 58 -15
15 -3 27 -12 27 -20 0 -18 5 -19 30 -3 15 10 22 10 32 0 9 -9 7 -12 -9 -12
-12 0 -25 -4 -28 -10 -3 -5 -15 -10 -25 -10 -10 0 -21 -8 -23 -17 -4 -17 -5
-17 -6 0 -1 22 -15 22 -37 0 -9 -10 -22 -18 -28 -19 -6 0 -16 -2 -23 -2 -13
-2 -14 -42 -1 -42 4 0 8 4 8 8 0 5 21 9 46 10 25 0 51 5 57 11 6 6 19 11 28
11 10 0 20 8 22 18 4 16 5 16 6 0 0 -10 5 -18 11 -18 14 0 64 23 71 33 4 5 9
5 13 -1 10 -17 -33 -38 -91 -44 -20 -2 -4 -18 18 -18 11 0 18 -4 14 -9 -3 -5
7 -12 22 -14 23 -3 22 -4 -9 -6 -21 0 -38 4 -41 12 -3 7 -6 5 -6 -5 -1 -20 -9
-20 214 -24 83 -1 150 -3 150 -4 0 0 24 -3 53 -5 53 -4 72 10 27 21 -14 3 -25
10 -25 15 0 13 34 11 48 -3 9 -9 12 -8 12 4 0 9 -8 19 -17 22 -13 5 -14 9 -3
19 10 9 13 9 17 0 7 -18 33 -16 33 2 0 9 7 18 15 21 8 4 15 17 15 31 0 23 -3
25 -30 20 -18 -4 -30 -2 -30 4 0 15 -38 1 -61 -22 -16 -16 -34 -19 -99 -19
-47 0 -80 -4 -80 -10 0 -5 5 -10 11 -10 8 0 8 -5 -1 -15 -16 -19 -30 -19 -30
-1 0 18 26 67 32 61 9 -9 148 8 148 18 0 6 -23 7 -60 4 -71 -8 -180 2 -180 15
0 6 31 7 80 3 56 -5 80 -4 80 4 0 15 77 14 82 0 6 -17 108 9 108 27 0 8 5 14
10 14 6 0 10 -7 10 -15 0 -8 6 -15 14 -15 8 0 17 -12 19 -27 3 -20 4 -15 6 15
1 34 5 42 20 42 23 0 37 30 19 41 -7 5 -31 11 -53 14 -22 3 -51 7 -65 8 -14 2
-38 9 -55 16 -20 8 -31 9 -33 2 -2 -6 -13 -11 -25 -11 -18 0 -19 2 -7 10 17
11 22 59 7 78 -7 8 -5 12 7 12 9 0 16 -6 16 -13 0 -24 37 -49 59 -42 13 4 21
2 21 -5 0 -6 12 -5 31 5 19 11 29 22 25 31 -3 8 1 14 9 14 8 0 15 -4 15 -10 0
-5 18 -10 40 -10 26 0 40 5 40 13 0 9 -11 12 -37 9 l-38 -5 20 24 c11 13 21
26 22 28 1 2 18 -6 38 -18 30 -17 39 -19 55 -8 16 9 24 9 41 -1 15 -10 24 -11
32 -3 17 17 27 13 27 -9 0 -15 7 -20 28 -20 16 0 22 3 15 8 -13 8 -8 19 19 40
15 12 17 11 15 -14 -1 -21 3 -29 16 -30 12 -1 13 0 2 3 -25 8 -17 33 11 33 14
0 33 4 42 9 9 4 34 11 55 15 30 6 37 4 37 -9 0 -11 10 -15 38 -15 20 0 46 -7
56 -15 17 -13 18 -15 3 -15 -22 0 -22 -17 1 -23 16 -4 16 -5 0 -6 -23 -1 -23
-18 0 -24 9 -2 -9 -2 -40 1 -40 3 -58 1 -58 -7 0 -6 17 -11 40 -11 22 0 40 -4
40 -10 0 -5 18 -10 39 -10 22 0 42 -6 45 -12 3 -9 9 -7 20 6 21 26 20 37 -4
43 -26 7 -26 19 0 26 33 8 23 25 -20 32 -58 10 -39 25 21 18 38 -4 53 -2 60 8
7 11 9 11 9 -3 0 -9 3 -23 6 -32 4 -11 -1 -15 -23 -13 -24 2 -28 -2 -28 -22 0
-18 8 -27 30 -34 16 -6 38 -21 48 -34 10 -12 23 -23 28 -23 14 0 11 48 -3 53
-10 4 -9 8 2 16 8 6 20 11 25 11 6 0 3 -5 -5 -11 -11 -8 -12 -12 -2 -16 6 -2
12 -13 12 -24 0 -21 10 -25 27 -8 7 7 12 2 16 -18 5 -27 9 -29 44 -26 21 2 32
0 25 -3 -15 -7 -6 -24 14 -24 12 0 14 48 14 319 l0 319 -62 6 c-73 5 -405 23
-1368 71 -168 9 -350 20 -405 25 -55 5 -251 19 -435 30 -184 11 -402 24 -485
30 -82 5 -193 12 -245 16 -52 3 -106 8 -120 10 -31 5 -256 19 -535 34 -115 6
-239 15 -275 20 -36 5 -101 12 -145 15 -44 3 -132 10 -195 15 -63 5 -176 14
-250 19 -346 26 -552 43 -625 51 -44 5 -134 14 -200 19 -66 6 -223 20 -350 31
-448 39 -870 75 -1420 120 -71 6 -175 15 -230 20 -55 5 -172 14 -260 20 -88 6
-216 15 -285 20 -191 15 -362 21 -315 11z m1795 -151 c0 -5 -6 -10 -14 -10 -8
0 -18 5 -21 10 -3 6 3 10 14 10 12 0 21 -4 21 -10z m1363 -127 c-7 -2 -19 -2
-25 0 -7 3 -2 5 12 5 14 0 19 -2 13 -5z m234 -29 c-3 -3 -12 -4 -19 -1 -8 3
-5 6 6 6 11 1 17 -2 13 -5z m361 -21 c-10 -2 -28 -2 -40 0 -13 2 -5 4 17 4 22
1 32 -1 23 -4z m569 -69 c-3 -3 -12 -4 -19 -1 -8 3 -5 6 6 6 11 1 17 -2 13 -5z
m1014 -82 c-7 -2 -19 -1 -29 3 -14 5 -14 7 -2 15 9 5 20 4 28 -3 10 -8 11 -12
3 -15z m45 -4 c-1 -16 -8 -24 -23 -26 -28 -4 -29 2 -5 27 23 26 29 25 28 -1z
m64 2 c0 -5 -9 -10 -20 -10 -11 0 -20 5 -20 10 0 6 9 10 20 10 11 0 20 -4 20
-10z m327 4 c-3 -3 -12 -4 -19 -1 -8 3 -5 6 6 6 11 1 17 -2 13 -5z m-490 -10
c-3 -3 -12 -4 -19 -1 -8 3 -5 6 6 6 11 1 17 -2 13 -5z m283 -4 l25 -7 -27 -8
c-28 -7 -48 -1 -48 16 0 10 14 10 50 -1z m278 -5 c3 -3 50 -5 104 -5 64 0 97
-4 93 -10 -3 -5 -26 -10 -51 -10 -33 0 -44 -4 -44 -15 0 -9 6 -15 13 -14 23 3
37 -1 37 -11 0 -15 -40 -12 -95 7 -35 12 -50 13 -53 5 -5 -16 -32 -15 -33 1 0
10 -2 10 -6 0 -2 -7 -11 -13 -19 -13 -9 0 -12 5 -9 10 4 6 -6 10 -24 10 -16 0
-31 -5 -33 -12 -3 -8 -11 -9 -24 -3 -18 8 -81 16 -133 17 -18 0 -21 2 -10 9 8
5 23 9 35 9 11 0 29 9 40 19 17 17 30 19 113 15 52 -2 96 -6 99 -9z m-2111
-11 c5 -14 -108 -26 -121 -13 -6 5 2 9 20 10 16 0 38 4 49 9 25 11 47 8 52 -6z
m296 9 c-13 -2 -33 -2 -45 0 -13 2 -3 4 22 4 25 0 35 -2 23 -4z m47 -13 c0
-11 -4 -20 -10 -20 -5 0 -10 9 -10 20 0 11 5 20 10 20 6 0 10 -9 10 -20z
m1152 -5 c23 -17 23 -17 -19 -12 -24 3 -43 1 -43 -4 0 -5 -18 -9 -40 -9 -22 0
-40 4 -40 9 0 5 -10 12 -22 16 l-23 7 25 8 c38 14 136 4 162 -15z m1081 15 c7
0 8 -3 1 -10 -12 -12 -56 -1 -48 12 3 5 13 7 21 4 8 -3 20 -6 26 -6z m-795
-12 c-2 -6 -24 -13 -49 -15 -24 -2 -51 -4 -59 -5 -8 0 -28 0 -45 2 -19 2 1 8
50 15 107 17 107 17 103 3z m662 -3 c-29 -16 -76 -19 -85 -6 -3 6 14 12 37 14
24 2 50 4 58 5 8 1 4 -5 -10 -13z m60 5 c0 -5 -7 -10 -15 -10 -8 0 -15 5 -15
10 0 6 7 10 15 10 8 0 15 -4 15 -10z m207 -6 c-3 -3 -12 -4 -19 -1 -8 3 -5 6
6 6 11 1 17 -2 13 -5z m40 0 c-3 -3 -12 -4 -19 -1 -8 3 -5 6 6 6 11 1 17 -2
13 -5z m-220 -20 c-3 -3 -12 -4 -19 -1 -8 3 -5 6 6 6 11 1 17 -2 13 -5z m206
-1 c-7 -2 -19 -2 -25 0 -7 3 -2 5 12 5 14 0 19 -2 13 -5z m124 1 c-3 -3 -12
-4 -19 -1 -8 3 -5 6 6 6 11 1 17 -2 13 -5z m141 -1 c-10 -2 -26 -2 -35 0 -10
3 -2 5 17 5 19 0 27 -2 18 -5z m123 -2 c-11 -7 -6 -10 19 -13 28 -2 35 -8 42
-35 8 -30 9 -31 42 -21 23 7 39 7 52 0 16 -10 11 -11 -28 -12 -26 0 -50 -4
-53 -10 -11 -17 -44 -11 -55 10 -6 11 -21 20 -33 20 -27 0 -77 21 -77 33 0 5
-4 6 -9 3 -5 -4 -20 -2 -33 3 -19 8 -15 10 27 11 28 1 61 6 75 10 35 11 48 11
31 1z m-2938 -8 c-7 -2 -19 -2 -25 0 -7 3 -2 5 12 5 14 0 19 -2 13 -5z m959
-20 c-51 -25 -54 -25 -70 -8 -16 17 -15 17 13 12 17 -4 24 -4 17 -1 -25 11 0
24 46 24 l47 0 -53 -27z m1675 21 c-3 -3 -12 -4 -19 -1 -8 3 -5 6 6 6 11 1 17
-2 13 -5z m93 2 c0 -2 -11 -6 -25 -8 -13 -3 -22 -1 -19 3 5 9 44 13 44 5z
m375 -6 c18 -8 17 -9 -7 -9 -16 -1 -28 4 -28 9 0 12 8 12 35 0z m92 4 c-3 -3
-12 -4 -19 -1 -8 3 -5 6 6 6 11 1 17 -2 13 -5z m79 -3 c-3 -4 27 -7 67 -5 39
1 60 0 45 -2 -16 -3 -28 -10 -28 -16 0 -6 -10 -8 -21 -5 -12 3 -31 0 -43 -8
-22 -15 -190 -14 -204 0 -4 4 13 4 37 0 35 -6 43 -5 39 6 -4 11 4 13 38 10 35
-2 44 0 44 13 0 9 7 16 16 16 8 0 13 -4 10 -9z m-3439 -7 c-3 -3 -12 -4 -19
-1 -8 3 -5 6 6 6 11 1 17 -2 13 -5z m210 0 c-3 -3 -12 -4 -19 -1 -8 3 -5 6 6
6 11 1 17 -2 13 -5z m2996 -1 c-7 -2 -19 -2 -25 0 -7 3 -2 5 12 5 14 0 19 -2
13 -5z m-1920 -23 c4 -15 0 -20 -13 -20 -13 0 -17 5 -13 20 3 11 9 20 13 20 4
0 10 -9 13 -20z m2462 2 c-3 -3 -11 0 -18 7 -9 10 -8 11 6 5 10 -3 15 -9 12
-12z m-136 -16 c-2 -2 -22 -7 -44 -11 l-40 -6 35 20 c21 12 39 16 44 10 5 -5
8 -11 5 -13z m-399 10 c0 -2 -9 -6 -20 -9 -11 -3 -20 -1 -20 4 0 5 9 9 20 9
11 0 20 -2 20 -4z m-2005 -15 c-11 -5 -40 -5 -65 -1 -43 7 -43 8 20 8 42 1 58
-2 45 -7z m-1038 -21 c-1 -13 -8 -20 -22 -19 -11 0 -15 3 -8 5 7 3 9 12 6 20
-3 8 1 14 10 14 10 0 15 -8 14 -20z m2790 -36 c-3 -3 -12 -4 -19 -1 -8 3 -5 6
6 6 11 1 17 -2 13 -5z m-2907 -79 c0 -8 -2 -15 -4 -15 -2 0 -6 7 -10 15 -3 8
-1 15 4 15 6 0 10 -7 10 -15z m748 -67 c-6 -18 -28 -21 -28 -4 0 9 7 16 16 16
9 0 14 -5 12 -12z m1789 6 c-3 -3 -12 -4 -19 -1 -8 3 -5 6 6 6 11 1 17 -2 13
-5z m933 -4 c0 -5 -7 -10 -15 -10 -8 0 -15 5 -15 10 0 6 7 10 15 10 8 0 15 -4
15 -10z m-3142 -12 c15 -15 16 -28 2 -28 -5 0 -10 6 -10 14 0 10 -14 16 -42
19 l-43 4 41 1 c22 1 45 -3 52 -10z m1071 -50 c1 -32 0 -32 -69 -17 -31 7 -50
16 -50 25 0 19 13 18 54 -7 l35 -21 7 43 c6 34 9 39 15 24 4 -11 8 -32 8 -47z
m-599 34 c0 -4 18 -13 40 -19 22 -5 40 -6 40 -1 0 5 10 3 22 -3 17 -9 24 -9
32 3 8 10 24 13 55 10 29 -3 46 0 51 9 7 10 11 10 24 0 27 -23 18 -29 -46 -34
-99 -9 -138 -18 -138 -33 0 -19 -7 -18 -37 6 -16 12 -34 18 -45 14 -20 -6 -34
16 -24 41 6 16 26 21 26 7z m560 -2 c0 -5 -4 -10 -9 -10 -6 0 -13 5 -16 10 -3
6 1 10 9 10 9 0 16 -4 16 -10z m240 -20 c0 -20 -5 -30 -15 -30 -9 0 -15 -9
-15 -25 0 -31 -17 -32 -52 -4 -21 17 -25 26 -18 40 8 15 16 16 42 8 18 -5 34
-9 36 -9 1 0 -2 8 -7 19 -11 20 -5 31 16 31 8 0 13 -12 13 -30z m69 -6 c-6 -8
-9 -18 -5 -21 4 -4 11 -1 16 7 7 12 12 12 22 2 9 -9 9 -12 -5 -12 -9 0 -17 -7
-17 -15 0 -11 11 -15 40 -15 53 0 51 -18 -2 -22 -37 -3 -48 2 -75 28 -35 33
-49 80 -17 53 15 -12 18 -11 27 3 6 9 15 14 20 11 4 -2 3 -11 -4 -19z m171 6
c0 -13 -5 -18 -15 -14 -16 7 -19 17 -8 27 12 13 23 7 23 -13z m630 10 c-19
-13 -30 -13 -30 0 0 6 10 10 23 10 18 0 19 -2 7 -10z m-684 -25 c4 -8 17 -15
30 -15 14 0 24 -6 24 -14 0 -12 -7 -12 -40 2 -22 9 -40 23 -40 30 0 17 19 15
26 -3z m291 -7 c-3 -8 -6 -5 -6 6 -1 11 2 17 5 13 3 -3 4 -12 1 -19z m1758 -8
c8 -13 -5 -13 -25 0 -13 8 -13 10 2 10 9 0 20 -4 23 -10z m-2840 -10 c-27 -12
-35 -12 -35 0 0 6 12 10 28 9 24 0 25 -1 7 -9z m212 -22 c-3 -7 -5 -2 -5 12 0
14 2 19 5 13 2 -7 2 -19 0 -25z m70 0 c-3 -7 -5 -2 -5 12 0 14 2 19 5 13 2 -7
2 -19 0 -25z m706 25 c-13 -2 -33 -2 -45 0 -13 2 -3 4 22 4 25 0 35 -2 23 -4z
m837 3 c0 -3 -4 -8 -10 -11 -5 -3 -10 -1 -10 4 0 6 5 11 10 11 6 0 10 -2 10
-4z m699 -20 c38 -2 89 -24 61 -27 -8 -1 -19 0 -25 1 -19 3 -60 8 -87 9 -18 1
-28 7 -28 17 0 11 6 14 21 9 12 -4 38 -8 58 -9z m-1912 -28 c-3 -8 -6 -5 -6 6
-1 11 2 17 5 13 3 -3 4 -12 1 -19z m-603 3 c3 -5 -1 -12 -10 -15 -25 -10 -34
-7 -34 9 0 16 35 21 44 6z m1576 5 c0 -2 -7 -6 -15 -10 -8 -3 -15 -1 -15 4 0
6 7 10 15 10 8 0 15 -2 15 -4z m60 -6 c0 -5 -2 -10 -4 -10 -3 0 -8 5 -11 10
-3 6 -1 10 4 10 6 0 11 -4 11 -10z m190 6 c0 -20 -16 -36 -36 -36 -23 0 -32
18 -17 33 7 8 53 10 53 3z m-2350 -21 c0 -8 -7 -15 -15 -15 -26 0 -18 20 13
29 1 1 2 -6 2 -14z m790 -4 c5 -11 10 -35 10 -54 0 -34 0 -34 -52 -40 -29 -2
-54 -4 -55 -3 -1 1 4 15 11 31 7 17 18 42 24 58 14 32 46 36 62 8z m570 4 c0
-10 -10 -15 -27 -15 l-28 1 25 14 c31 18 30 18 30 0z m-695 -5 c3 -5 -1 -10
-9 -10 -9 0 -16 5 -16 10 0 6 4 10 9 10 6 0 13 -4 16 -10z m2575 -6 c0 -8 -4
-12 -10 -9 -5 3 -10 10 -10 16 0 5 5 9 10 9 6 0 10 -7 10 -16z m-1031 -10 c2
-2 -16 -4 -42 -4 -25 0 -49 4 -52 10 -6 9 83 3 94 -6z m-1329 -19 c0 -29 -7
-31 -32 -8 -25 22 -23 33 7 33 20 0 25 -5 25 -25z m260 15 c0 -5 -4 -10 -10
-10 -5 0 -10 5 -10 10 0 6 5 10 10 10 6 0 10 -4 10 -10z m325 0 c-3 -5 -10
-10 -16 -10 -5 0 -9 5 -9 10 0 6 7 10 16 10 8 0 12 -4 9 -10z m595 -5 c0 -8
-4 -15 -10 -15 -5 0 -10 7 -10 15 0 8 5 15 10 15 6 0 10 -7 10 -15z m217 9
c-3 -3 -12 -4 -19 -1 -8 3 -5 6 6 6 11 1 17 -2 13 -5z m373 -34 c0 -39 -1 -40
-32 -39 -31 2 -31 2 -5 6 21 3 27 10 27 29 0 18 -6 24 -22 25 -22 0 -22 1 -3
9 33 14 35 12 35 -30z m150 29 c0 6 13 11 29 11 24 0 28 -3 24 -20 -7 -27 -21
-34 -38 -20 -12 10 -15 10 -15 -1 -1 -9 -5 -8 -15 5 -19 26 -19 42 0 26 10 -9
15 -9 15 -1z m105 1 c-3 -5 -10 -10 -16 -10 -5 0 -9 5 -9 10 0 6 7 10 16 10 8
0 12 -4 9 -10z m82 4 c-3 -3 -12 -4 -19 -1 -8 3 -5 6 6 6 11 1 17 -2 13 -5z
m326 -1 c-7 -2 -19 -2 -25 0 -7 3 -2 5 12 5 14 0 19 -2 13 -5z m287 -13 c0 -5
-5 -10 -11 -10 -5 0 -7 5 -4 10 3 6 8 10 11 10 2 0 4 -4 4 -10z m-1593 -22
c-3 -8 -6 -5 -6 6 -1 11 2 17 5 13 3 -3 4 -12 1 -19z m1533 2 c0 -5 -4 -10
-10 -10 -5 0 -10 5 -10 10 0 6 5 10 10 10 6 0 10 -4 10 -10z m-910 -10 c0 -5
-16 -10 -35 -10 -19 0 -35 5 -35 10 0 6 16 10 35 10 19 0 35 -4 35 -10z m1106
-27 c-11 -11 -19 6 -11 24 8 17 8 17 12 0 3 -10 2 -21 -1 -24z m-1386 17 c0
-5 -7 -10 -15 -10 -8 0 -15 5 -15 10 0 6 7 10 15 10 8 0 15 -4 15 -10z m-1203
-16 c-3 -3 -12 -4 -19 -1 -8 3 -5 6 6 6 11 1 17 -2 13 -5z m1153 -9 c-7 -8
-16 -12 -21 -9 -13 8 -1 24 18 24 13 0 13 -3 3 -15z m1537 -31 c-2 -2 -12 -1
-22 3 -18 6 -18 7 1 13 17 7 33 -5 21 -16z m-1822 -2 c-2 -3 -18 -7 -35 -9
-35 -3 -41 14 -7 19 25 4 51 -2 42 -10z m150 8 c-3 -5 -12 -7 -20 -3 -21 7
-19 13 6 13 11 0 18 -4 14 -10z m-425 -10 c0 -5 -4 -10 -10 -10 -5 0 -10 5
-10 10 0 6 5 10 10 10 6 0 10 -4 10 -10z m587 4 c-3 -3 -12 -4 -19 -1 -8 3 -5
6 6 6 11 1 17 -2 13 -5z m423 -4 c0 -5 -7 -10 -15 -10 -8 0 -15 5 -15 10 0 6
7 10 15 10 8 0 15 -4 15 -10z m-1005 -30 c3 -5 -1 -10 -10 -10 -9 0 -13 5 -10
10 3 6 8 10 10 10 2 0 7 -4 10 -10z m205 6 c0 -2 -7 -6 -15 -10 -8 -3 -15 -1
-15 4 0 6 7 10 15 10 8 0 15 -2 15 -4z m635 -10 c43 -2 64 -11 54 -21 -10 -9
-155 -11 -179 -2 l-25 9 35 13 c19 7 43 10 53 8 9 -2 38 -6 62 -7z m1285 4
c12 -8 11 -10 -7 -10 -13 0 -23 5 -23 10 0 13 11 13 30 0z m0 -50 c12 -8 11
-10 -7 -10 -13 0 -23 5 -23 10 0 13 11 13 30 0z m-1077 -17 c-7 -2 -19 -2 -25
0 -7 3 -2 5 12 5 14 0 19 -2 13 -5z m-213 -122 c0 -22 -15 -35 -30 -26 -6 4
-5 13 3 25 15 25 27 25 27 1z m219 -35 c-8 -8 -88 -10 -95 -3 -4 4 17 7 46 7
29 0 51 -2 49 -4z m1 -56 c0 -5 -2 -10 -4 -10 -3 0 -8 5 -11 10 -3 6 -1 10 4
10 6 0 11 -4 11 -10z"/>
<path d="M6480 9080 c0 -5 18 -10 40 -10 22 0 40 5 40 10 0 6 -18 10 -40 10
-22 0 -40 -4 -40 -10z"/>
<path d="M900 9520 c-12 -8 -9 -10 13 -10 16 0 26 4 22 10 -8 12 -16 12 -35 0z"/>
<path d="M258 9512 c-34 -7 -18 -22 25 -23 23 -1 47 0 52 1 73 18 72 18 45 20
-48 5 -105 6 -122 2z"/>
<path d="M480 9502 c0 -4 16 -16 35 -25 29 -14 39 -15 55 -5 11 7 19 17 17 23
-4 12 -107 19 -107 7z"/>
<path d="M876 9492 c-3 -6 12 -12 37 -14 42 -5 55 -3 45 7 -11 12 -76 17 -82
7z"/>
<path d="M1006 9469 c-20 -3 -39 -8 -42 -12 -8 -8 35 -29 49 -24 7 3 34 1 60
-3 26 -4 47 -4 47 0 0 3 30 6 68 7 89 1 88 1 76 13 -6 6 -41 12 -77 13 -37 1
-67 4 -67 7 0 7 -68 6 -114 -1z"/>
<path d="M2248 9453 c6 -2 18 -2 25 0 6 3 1 5 -13 5 -14 0 -19 -2 -12 -5z"/>
<path d="M1540 9440 c0 -6 7 -10 15 -10 8 0 15 2 15 4 0 2 -7 6 -15 10 -8 3
-15 1 -15 -4z"/>
<path d="M2793 9443 c9 -2 23 -2 30 0 6 3 -1 5 -18 5 -16 0 -22 -2 -12 -5z"/>
<path d="M1648 9428 c57 -20 33 -37 -28 -19 -24 7 -70 -5 -70 -19 0 -4 11 -12
25 -18 21 -10 25 -9 25 3 0 19 27 19 46 0 10 -9 34 -15 65 -15 27 0 49 -4 49
-9 0 -5 18 -11 39 -15 22 -3 41 -11 43 -17 5 -15 38 17 38 37 0 17 -41 19 -58
2 -9 -9 -12 -9 -12 -1 0 7 -9 15 -20 18 -13 4 -20 15 -20 31 0 18 -5 24 -22
24 -13 0 -48 2 -78 5 -51 4 -52 4 -22 -7z"/>
<path d="M1440 9420 c0 -5 4 -10 9 -10 6 0 13 5 16 10 3 6 -1 10 -9 10 -9 0
-16 -4 -16 -10z"/>
<path d="M1800 9420 c0 -5 5 -10 10 -10 6 0 10 5 10 10 0 6 -4 10 -10 10 -5 0
-10 -4 -10 -10z"/>
<path d="M1495 9400 c-7 -12 2 -30 16 -30 5 0 9 9 9 20 0 21 -15 27 -25 10z"/>
<path d="M1858 9403 c7 -3 16 -2 19 1 4 3 -2 6 -13 5 -11 0 -14 -3 -6 -6z"/>
<path d="M110 9360 c0 -5 5 -10 10 -10 6 0 10 5 10 10 0 6 -4 10 -10 10 -5 0
-10 -4 -10 -10z"/>
<path d="M1440 9360 c0 -5 7 -10 16 -10 8 0 12 5 9 10 -3 6 -10 10 -16 10 -5
0 -9 -4 -9 -10z"/>
<path d="M3020 9340 c-13 -8 -12 -10 3 -10 9 0 17 5 17 10 0 12 -1 12 -20 0z"/>
<path d="M3200 9315 c0 -12 13 -15 55 -15 56 0 73 13 33 24 -44 11 -88 7 -88
-9z"/>
<path d="M3378 9323 c12 -2 32 -2 45 0 12 2 2 4 -23 4 -25 0 -35 -2 -22 -4z"/>
<path d="M4267 9313 c-13 -12 -7 -23 13 -23 11 0 20 -5 20 -11 0 -6 9 -8 23
-3 30 9 33 12 18 27 -9 9 -14 9 -22 -3 -8 -13 -11 -13 -20 3 -11 18 -21 21
-32 10z"/>
<path d="M4138 9273 c7 -3 16 -2 19 1 4 3 -2 6 -13 5 -11 0 -14 -3 -6 -6z"/>
<path d="M4360 9262 c0 -4 -20 -14 -45 -21 -25 -7 -43 -17 -40 -21 3 -5 18 -2
33 6 15 7 39 14 54 14 20 0 26 4 22 15 -6 16 -24 21 -24 7z"/>
<path d="M4060 9230 c0 -5 5 -10 10 -10 6 0 10 5 10 10 0 6 -4 10 -10 10 -5 0
-10 -4 -10 -10z"/>
<path d="M5040 9219 c0 -5 5 -7 10 -4 6 3 10 8 10 11 0 2 -4 4 -10 4 -5 0 -10
-5 -10 -11z"/>
<path d="M5538 9213 c12 -2 32 -2 45 0 12 2 2 4 -23 4 -25 0 -35 -2 -22 -4z"/>
<path d="M4314 9199 c-3 -5 0 -9 7 -9 6 0 17 -8 24 -17 11 -15 17 -15 39 -5
15 7 42 12 61 12 44 0 46 19 3 22 -100 6 -129 5 -134 -3z"/>
<path d="M4235 9190 c-4 -6 -23 -10 -43 -9 -41 3 -82 -8 -82 -21 0 -12 57 -18
75 -7 10 5 42 11 73 14 64 6 82 13 34 13 -18 0 -32 5 -32 10 0 13 -17 13 -25
0z"/>
<path d="M4658 9193 c7 -3 16 -2 19 1 4 3 -2 6 -13 5 -11 0 -14 -3 -6 -6z"/>
<path d="M5520 9192 c0 -15 24 -32 47 -32 26 0 31 25 7 34 -22 9 -54 7 -54 -2z"/>
<path d="M4598 9183 c-21 -2 -38 -9 -38 -15 0 -7 -26 -9 -80 -5 -44 3 -80 2
-80 -3 0 -6 67 -23 140 -34 14 -2 4 -4 -21 -5 -25 0 -60 4 -78 10 -31 11 -52
6 -38 -8 4 -4 57 -11 118 -17 93 -8 112 -7 120 5 12 20 11 37 -2 19 -8 -11
-12 -12 -16 -2 -2 6 -18 12 -34 12 -16 0 -29 5 -29 10 0 6 18 10 40 10 29 0
40 4 40 15 0 8 -1 14 -2 13 -2 -1 -20 -3 -40 -5z"/>
<path d="M4833 9183 c15 -2 37 -2 50 0 12 2 0 4 -28 4 -27 0 -38 -2 -22 -4z"/>
<path d="M4795 9161 c-6 -5 -19 -11 -30 -14 -16 -4 -14 -5 6 -6 16 -1 29 5 33
14 6 17 4 19 -9 6z"/>
<path d="M5773 9163 c9 -2 23 -2 30 0 6 3 -1 5 -18 5 -16 0 -22 -2 -12 -5z"/>
<path d="M4220 9137 c-30 -4 -68 -10 -83 -12 -16 -2 -31 -6 -35 -10 -4 -5 16
-4 43 0 28 4 73 10 100 14 28 3 46 9 40 12 -5 3 -35 1 -65 -4z"/>
<path d="M6168 9143 c7 -3 16 -2 19 1 4 3 -2 6 -13 5 -11 0 -14 -3 -6 -6z"/>
<path d="M4684 9118 c3 -13 6 -37 6 -55 0 -17 6 -34 13 -36 6 -2 -1 -3 -17 -1
-16 2 -51 4 -78 4 -30 0 -47 4 -43 10 3 6 -4 10 -17 10 -13 0 -34 3 -48 5
l-25 6 24 -11 c33 -15 22 -21 -40 -23 -29 -1 -54 -7 -56 -13 -3 -10 130 -10
224 1 23 2 45 0 48 -5 9 -14 43 -12 90 4 l40 14 -40 4 c-38 3 -40 4 -40 38 0
34 -20 70 -38 70 -5 0 -7 -10 -3 -22z"/>
<path d="M4315 9120 c-3 -5 1 -10 9 -10 9 0 16 5 16 10 0 6 -4 10 -9 10 -6 0
-13 -4 -16 -10z"/>
<path d="M4768 9113 c6 -2 18 -2 25 0 6 3 1 5 -13 5 -14 0 -19 -2 -12 -5z"/>
<path d="M4065 9100 c4 -6 11 -8 16 -5 14 9 11 15 -7 15 -8 0 -12 -5 -9 -10z"/>
<path d="M4830 9070 c0 -22 5 -40 10 -40 6 0 10 18 10 40 0 22 -4 40 -10 40
-5 0 -10 -18 -10 -40z"/>
<path d="M4379 9064 c-11 -30 -3 -46 11 -24 10 16 13 50 5 50 -3 0 -10 -12
-16 -26z"/>
<path d="M4770 9070 c0 -11 7 -20 15 -20 8 0 15 9 15 20 0 11 -7 20 -15 20 -8
0 -15 -9 -15 -20z"/>
<path d="M4100 9069 c0 -5 5 -7 10 -4 6 3 10 8 10 11 0 2 -4 4 -10 4 -5 0 -10
-5 -10 -11z"/>
<path d="M4340 9070 c0 -5 5 -10 11 -10 5 0 7 5 4 10 -3 6 -8 10 -11 10 -2 0
-4 -4 -4 -10z"/>
<path d="M4568 9073 c7 -3 16 -2 19 1 4 3 -2 6 -13 5 -11 0 -14 -3 -6 -6z"/>
<path d="M4618 9073 c7 -3 16 -2 19 1 4 3 -2 6 -13 5 -11 0 -14 -3 -6 -6z"/>
<path d="M4288 9063 c6 -2 18 -2 25 0 6 3 1 5 -13 5 -14 0 -19 -2 -12 -5z"/>
<path d="M4875 8978 c2 -37 -1 -48 -13 -48 -8 0 -13 -3 -10 -6 4 -3 26 1 50
10 42 15 42 15 11 16 -29 0 -32 3 -36 38 -3 24 -4 21 -2 -10z"/>
<path d="M4770 8990 c0 -5 7 -10 15 -10 8 0 15 5 15 10 0 6 -7 10 -15 10 -8 0
-15 -4 -15 -10z"/>
<path d="M4695 8971 c-5 -10 11 -14 100 -25 37 -5 37 -4 -15 14 -63 22 -76 24
-85 11z"/>
<path d="M5058 8923 c12 -2 32 -2 45 0 12 2 2 4 -23 4 -25 0 -35 -2 -22 -4z"/>
<path d="M5025 8860 c3 -5 8 -10 11 -10 2 0 4 5 4 10 0 6 -5 10 -11 10 -5 0
-7 -4 -4 -10z"/>
<path d="M4738 8793 c12 -2 32 -2 45 0 12 2 2 4 -23 4 -25 0 -35 -2 -22 -4z"/>
<path d="M2068 8783 c7 -3 16 -2 19 1 4 3 -2 6 -13 5 -11 0 -14 -3 -6 -6z"/>
<path d="M4828 8783 c6 -2 18 -2 25 0 6 3 1 5 -13 5 -14 0 -19 -2 -12 -5z"/>
<path d="M5010 8750 c0 -29 4 -40 15 -40 11 0 15 11 15 40 0 29 -4 40 -15 40
-11 0 -15 -11 -15 -40z"/>
<path d="M5200 8750 c0 -20 4 -28 13 -24 7 2 13 13 13 24 0 11 -6 22 -13 24
-9 4 -13 -4 -13 -24z"/>
<path d="M5248 8713 c6 -2 18 -2 25 0 6 3 1 5 -13 5 -14 0 -19 -2 -12 -5z"/>
<path d="M5415 8640 c-3 -5 1 -10 9 -10 9 0 16 5 16 10 0 6 -4 10 -9 10 -6 0
-13 -4 -16 -10z"/>
<path d="M5520 8619 c0 -5 5 -7 10 -4 6 3 10 8 10 11 0 2 -4 4 -10 4 -5 0 -10
-5 -10 -11z"/>
<path d="M0 8361 c0 -144 3 -261 8 -262 4 -1 43 -2 87 -3 44 0 85 -5 92 -9 7
-4 23 -1 37 8 23 16 27 15 56 -6 26 -19 35 -21 58 -13 15 6 37 7 47 3 11 -4
38 -5 60 -2 25 3 35 1 28 -4 -8 -6 38 -9 116 -9 71 1 127 4 125 7 -4 7 68 -5
83 -14 5 -3 79 -12 164 -18 172 -14 202 -16 409 -23 87 -3 146 -9 148 -15 3
-8 10 -8 23 -1 13 8 25 7 40 -1 12 -6 83 -13 158 -15 75 -2 152 -6 171 -9 19
-3 85 -8 145 -11 61 -4 118 -10 128 -16 20 -10 57 -2 57 14 0 7 4 7 12 1 7 -6
31 -9 52 -7 22 2 45 -1 52 -7 7 -6 18 -7 25 -3 16 10 106 7 154 -5 22 -6 55
-11 73 -11 18 0 35 -6 37 -12 4 -10 48 -14 163 -16 107 -2 152 1 142 8 -22 14
-8 12 35 -6 30 -12 44 -13 62 -5 22 10 24 9 18 -9 -6 -18 -5 -19 21 -5 21 10
32 11 48 3 29 -16 277 -20 295 -5 12 10 14 9 9 -4 -5 -12 0 -14 26 -11 17 3
37 10 45 16 12 9 13 8 9 -6 -9 -22 14 -26 132 -27 56 0 112 -6 136 -15 42 -14
89 -11 112 7 10 8 16 7 22 -2 6 -11 9 -11 13 0 4 12 7 11 16 -1 10 -13 12 -13
21 0 9 13 12 13 21 -3 9 -16 22 -17 126 -12 88 4 118 2 124 -7 7 -10 13 -10
27 -1 15 9 22 9 31 0 8 -8 11 -8 11 1 0 16 50 15 72 -2 18 -13 74 -10 84 5 9
14 44 10 44 -5 0 -21 25 -26 75 -17 30 6 61 4 95 -5 39 -10 56 -10 70 -2 14 9
21 8 34 -4 13 -13 22 -14 52 -5 27 8 37 8 43 -2 5 -7 17 -12 27 -10 11 1 44
-3 74 -9 30 -7 93 -12 140 -13 137 -1 193 -5 223 -17 29 -12 87 -10 121 3 11
5 21 3 25 -4 9 -14 68 -21 203 -24 54 -1 98 -6 98 -10 0 -5 10 -7 23 -6 12 2
29 -1 37 -6 8 -5 65 -9 125 -7 61 1 105 -1 98 -4 -20 -9 -2 -34 24 -34 18 0
24 4 19 15 -3 9 0 15 10 15 9 0 12 -5 8 -12 -5 -8 0 -9 15 -5 17 4 21 2 17 -9
-8 -20 0 -17 24 8 15 16 23 19 31 11 8 -8 20 -8 35 -3 13 5 23 6 21 1 -1 -5 3
-9 8 -9 6 0 9 4 8 9 -2 5 2 9 7 9 6 0 10 -3 10 -7 0 -5 19 -9 42 -11 23 -1 45
-7 48 -11 3 -5 25 -8 50 -6 25 1 48 -2 53 -9 5 -7 11 -5 18 7 10 17 12 17 37
1 20 -13 52 -19 125 -20 54 -2 104 -7 110 -12 7 -5 53 -10 102 -11 66 -1 101
-7 131 -21 22 -11 52 -20 67 -20 15 0 27 -4 27 -10 0 -6 9 -6 26 1 32 11 37 8
37 -26 0 -14 2 -25 6 -25 16 1 29 17 32 40 3 14 17 33 35 45 18 11 38 35 45
53 8 19 19 31 28 30 9 -2 15 3 13 10 -1 6 1 12 5 13 29 3 48 9 50 16 2 5 19
32 37 61 19 28 37 59 40 69 3 10 20 32 36 48 17 17 38 38 47 47 16 16 18 16
35 2 9 -9 24 -14 33 -11 17 7 21 27 5 27 -5 0 -10 -4 -10 -10 0 -5 -4 -10 -10
-10 -16 0 -12 16 16 58 15 22 37 43 50 46 16 4 24 14 25 29 1 17 2 18 6 5 5
-21 19 -23 29 -6 4 6 2 14 -4 16 -7 2 -12 10 -12 17 0 7 -19 16 -47 21 -51 10
-61 31 -12 26 16 -1 29 2 29 8 0 10 -30 13 -157 14 -40 1 -65 -1 -56 -5 24 -8
3 -18 -32 -14 -16 2 -120 6 -230 9 -110 3 -270 10 -355 16 -85 5 -274 17 -420
25 -146 8 -411 24 -590 35 -179 11 -401 24 -495 30 -93 6 -199 12 -235 15 -36
3 -184 12 -330 20 -146 8 -332 19 -415 25 -82 6 -262 17 -400 25 -137 8 -293
20 -345 25 -52 5 -176 14 -275 20 -99 6 -265 17 -370 25 -104 8 -248 19 -320
25 -71 5 -215 14 -320 20 -104 6 -251 15 -325 21 -290 21 -649 49 -740 58 -52
6 -147 13 -210 16 -158 9 -471 32 -675 50 -93 8 -221 18 -282 21 l-113 6 0
-261z m4313 -518 c-7 -2 -19 -2 -25 0 -7 3 -2 5 12 5 14 0 19 -2 13 -5z m-270
-10 c-7 -2 -19 -2 -25 0 -7 3 -2 5 12 5 14 0 19 -2 13 -5z"/>
<path d="M9018 8553 c7 -3 16 -2 19 1 4 3 -2 6 -13 5 -11 0 -14 -3 -6 -6z"/>
<path d="M6098 8523 c12 -2 32 -2 45 0 12 2 2 4 -23 4 -25 0 -35 -2 -22 -4z"/>
<path d="M6320 8509 c0 -5 5 -7 10 -4 6 3 10 8 10 11 0 2 -4 4 -10 4 -5 0 -10
-5 -10 -11z"/>
<path d="M8800 8510 c0 -5 18 -10 40 -10 22 0 40 5 40 10 0 6 -18 10 -40 10
-22 0 -40 -4 -40 -10z"/>
<path d="M6670 8475 c0 -8 5 -15 10 -15 6 0 10 7 10 15 0 8 -4 15 -10 15 -5 0
-10 -7 -10 -15z"/>
<path d="M8923 8473 c9 -2 23 -2 30 0 6 3 -1 5 -18 5 -16 0 -22 -2 -12 -5z"/>
<path d="M9023 8473 c9 -2 17 -9 17 -14 0 -6 5 -7 11 -3 14 8 -8 24 -31 23
-11 -1 -10 -3 3 -6z"/>
<path d="M6775 8460 c3 -5 20 -10 36 -10 17 0 32 -6 35 -15 4 -8 13 -15 21
-15 10 0 14 -7 10 -20 -3 -11 -1 -18 4 -14 5 3 9 24 9 47 0 30 -3 38 -10 27
-7 -12 -12 -12 -22 -2 -14 14 -92 17 -83 2z"/>
<path d="M6920 8430 c0 -22 5 -40 10 -40 6 0 10 18 10 40 0 22 -4 40 -10 40
-5 0 -10 -18 -10 -40z"/>
<path d="M7700 8430 c0 -29 4 -40 15 -40 11 0 15 11 15 40 0 29 -4 40 -15 40
-11 0 -15 -11 -15 -40z"/>
<path d="M7265 8429 c18 -5 33 -5 39 1 7 7 -4 10 -29 9 -40 -1 -40 -1 -10 -10z"/>
<path d="M7661 8416 c-16 -19 -11 -29 8 -17 7 5 12 14 9 21 -3 9 -8 7 -17 -4z"/>
<path d="M7308 8393 c7 -3 16 -2 19 1 4 3 -2 6 -13 5 -11 0 -14 -3 -6 -6z"/>
<path d="M7201 8358 c1 -24 3 -27 6 -10 3 15 11 22 28 22 13 0 27 5 30 10 4 6
-8 10 -29 10 -34 0 -36 -2 -35 -32z"/>
<path d="M7490 8381 c0 -10 25 -21 48 -21 15 1 14 3 -2 15 -22 17 -46 20 -46
6z"/>
<path d="M7680 8375 c0 -8 9 -15 20 -15 24 0 27 15 4 24 -22 9 -24 8 -24 -9z"/>
<path d="M8713 8350 c0 -25 2 -35 4 -22 2 12 2 32 0 45 -2 12 -4 2 -4 -23z"/>
<path d="M8748 8378 c9 -9 15 -9 24 0 9 9 7 12 -12 12 -19 0 -21 -3 -12 -12z"/>
<path d="M9167 8372 c-6 -24 -47 -37 -47 -15 0 11 -10 14 -43 12 -24 -2 -48 0
-54 4 -13 8 -43 -1 -43 -14 0 -5 8 -9 18 -9 9 0 23 -9 30 -20 10 -17 23 -20
87 -20 53 0 75 4 75 13 0 9 2 9 8 0 5 -8 13 -9 22 -3 20 13 60 13 60 0 0 -5
18 -10 39 -10 30 0 40 -4 43 -17 3 -15 6 -14 17 6 11 19 11 28 0 50 -10 21
-13 23 -16 9 -5 -19 -30 -22 -95 -12 -43 7 -51 24 -13 24 14 0 25 5 25 10 0 6
-24 10 -54 10 -44 0 -55 -3 -59 -18z"/>
<path d="M9425 8380 c3 -5 8 -10 11 -10 2 0 4 5 4 10 0 6 -5 10 -11 10 -5 0
-7 -4 -4 -10z"/>
<path d="M7368 8373 c6 -2 18 -2 25 0 6 3 1 5 -13 5 -14 0 -19 -2 -12 -5z"/>
<path d="M7825 8360 c3 -5 8 -10 11 -10 2 0 4 5 4 10 0 6 -5 10 -11 10 -5 0
-7 -4 -4 -10z"/>
<path d="M7360 8348 c0 -4 16 -8 35 -8 19 0 35 2 35 4 0 2 -16 6 -35 8 -19 2
-35 0 -35 -4z"/>
<path d="M5490 8346 c0 -2 7 -6 15 -10 8 -3 15 -1 15 4 0 6 -7 10 -15 10 -8 0
-15 -2 -15 -4z"/>
<path d="M7480 8340 c0 -5 7 -10 15 -10 8 0 15 5 15 10 0 6 -7 10 -15 10 -8 0
-15 -4 -15 -10z"/>
<path d="M8735 8340 c-8 -13 20 -24 41 -16 20 8 9 26 -16 26 -10 0 -22 -5 -25
-10z"/>
<path d="M9520 8340 c0 -5 5 -10 10 -10 6 0 10 5 10 10 0 6 -4 10 -10 10 -5 0
-10 -4 -10 -10z"/>
<path d="M7942 8331 c-11 -7 -11 -9 1 -14 20 -8 58 3 51 14 -7 11 -35 11 -52
0z"/>
<path d="M7811 8319 c-31 -9 -33 -13 -27 -41 3 -17 6 -34 6 -39 0 -5 4 -9 9
-9 5 0 12 18 16 40 6 38 19 52 27 29 4 -12 76 -28 96 -21 17 5 15 32 -2 32 -8
0 -16 -4 -18 -10 -2 -6 -8 -6 -18 0 -13 8 -12 10 3 10 9 0 17 5 17 10 0 12
-63 12 -109 -1z"/>
<path d="M7458 8313 c7 -3 16 -2 19 1 4 3 -2 6 -13 5 -11 0 -14 -3 -6 -6z"/>
<path d="M7557 8313 c-26 -7 -15 -28 14 -28 20 0 25 -6 30 -35 6 -29 7 -27 5
15 -1 51 -9 59 -49 48z"/>
<path d="M8998 8313 c7 -3 16 -2 19 1 4 3 -2 6 -13 5 -11 0 -14 -3 -6 -6z"/>
<path d="M5818 8303 c6 -2 18 -2 25 0 6 3 1 5 -13 5 -14 0 -19 -2 -12 -5z"/>
<path d="M6300 8300 c34 -11 60 -11 35 0 -11 5 -29 8 -40 8 -16 0 -15 -2 5 -8z"/>
<path d="M6740 8301 c0 -5 9 -7 20 -4 11 3 20 7 20 9 0 2 -9 4 -20 4 -11 0
-20 -4 -20 -9z"/>
<path d="M7630 8290 c0 -11 5 -20 10 -20 6 0 10 9 10 20 0 11 -4 20 -10 20 -5
0 -10 -9 -10 -20z"/>
<path d="M7671 8268 c2 -30 3 -35 6 -15 2 15 9 27 14 27 5 0 9 7 9 15 0 8 -7
15 -15 15 -11 0 -15 -11 -14 -42z"/>
<path d="M7740 8295 c0 -8 5 -15 10 -15 6 0 10 7 10 15 0 8 -4 15 -10 15 -5 0
-10 -7 -10 -15z"/>
<path d="M8676 8303 c-2 -3 -2 -11 1 -19 3 -9 -2 -14 -16 -14 -12 0 -21 -4
-21 -8 0 -12 68 -13 75 -2 3 6 1 10 -4 10 -6 0 -11 4 -11 9 0 6 12 9 26 8 15
-1 29 3 31 10 3 8 -9 12 -36 11 -22 0 -42 -3 -45 -5z"/>
<path d="M6733 8253 c-3 -10 -8 -21 -10 -25 -2 -5 2 -8 9 -8 7 0 13 11 13 25
0 29 -3 32 -12 8z"/>
<path d="M6918 8263 c7 -3 16 -2 19 1 4 3 -2 6 -13 5 -11 0 -14 -3 -6 -6z"/>
<path d="M6960 8261 c0 -4 21 -12 46 -18 25 -6 42 -7 37 -3 -12 12 -83 30 -83
21z"/>
<path d="M6408 8253 c6 -2 18 -2 25 0 6 3 1 5 -13 5 -14 0 -19 -2 -12 -5z"/>
<path d="M7848 8253 c7 -3 16 -2 19 1 4 3 -2 6 -13 5 -11 0 -14 -3 -6 -6z"/>
<path d="M6488 8243 c7 -3 16 -2 19 1 4 3 -2 6 -13 5 -11 0 -14 -3 -6 -6z"/>
<path d="M7710 8240 c0 -5 5 -10 10 -10 6 0 10 5 10 10 0 6 -4 10 -10 10 -5 0
-10 -4 -10 -10z"/>
<path d="M6448 8233 c7 -3 16 -2 19 1 4 3 -2 6 -13 5 -11 0 -14 -3 -6 -6z"/>
<path d="M7837 8209 c-4 -16 -2 -17 14 -8 23 12 23 15 5 22 -8 3 -16 -2 -19
-14z"/>
<path d="M9425 8217 c-14 -11 -15 -16 -5 -22 11 -7 29 9 30 28 0 10 -3 9 -25
-6z"/>
<path d="M6653 8213 c9 -2 25 -2 35 0 9 3 1 5 -18 5 -19 0 -27 -2 -17 -5z"/>
<path d="M7730 8210 c19 -13 30 -13 30 0 0 6 -10 10 -22 10 -19 0 -20 -2 -8
-10z"/>
<path d="M7228 8203 c7 -3 16 -2 19 1 4 3 -2 6 -13 5 -11 0 -14 -3 -6 -6z"/>
<path d="M7267 8187 c-8 -6 -6 -7 5 -3 10 3 20 1 23 -4 6 -10 65 -10 65 0 0
12 -79 17 -93 7z"/>
<path d="M7430 8190 c20 -13 33 -13 25 0 -3 6 -14 10 -23 10 -15 0 -15 -2 -2
-10z"/>
<path d="M9310 8193 c-14 -3 -29 -8 -33 -13 -5 -4 11 -4 35 0 23 5 47 6 52 3
5 -4 6 -1 2 5 -7 12 -12 13 -56 5z"/>
<path d="M6920 8180 c20 -13 47 -13 55 0 4 6 -9 10 -32 10 -28 0 -34 -3 -23
-10z"/>
<path d="M7005 8170 c3 -5 14 -10 23 -10 15 0 15 2 2 10 -20 13 -33 13 -25 0z"/>
<path d="M8560 8165 c0 -9 9 -15 24 -15 13 0 31 -3 40 -6 12 -4 16 0 16 15 0
18 -6 21 -40 21 -29 0 -40 -4 -40 -15z"/>
<path d="M7418 8163 c7 -3 16 -2 19 1 4 3 -2 6 -13 5 -11 0 -14 -3 -6 -6z"/>
<path d="M7243 8153 c9 -2 25 -2 35 0 9 3 1 5 -18 5 -19 0 -27 -2 -17 -5z"/>
<path d="M9420 8110 c20 -13 33 -13 25 0 -3 6 -14 10 -23 10 -15 0 -15 -2 -2
-10z"/>
<path d="M9200 8080 c0 -12 8 -12 35 0 18 8 17 9 -7 9 -16 1 -28 -3 -28 -9z"/>
<path d="M9456 7999 c-14 -11 -30 -18 -36 -14 -5 3 -7 0 -4 -8 3 -10 -79 -100
-235 -257 -132 -134 -238 -246 -236 -250 2 -4 28 -3 57 0 29 4 56 6 61 3 4 -2
13 -1 20 4 6 4 50 8 97 8 47 1 97 4 113 9 21 7 27 5 27 -8 0 -9 7 -16 15 -16
9 0 12 6 9 15 -4 8 -2 15 4 15 6 0 12 -6 14 -12 4 -11 60 -17 173 -17 69 -1
65 -18 65 280 l0 269 -59 0 c-44 0 -65 -5 -85 -21z"/>
<path d="M7656 7981 c-4 -7 -5 -15 -2 -18 9 -9 19 4 14 18 -4 11 -6 11 -12 0z"/>
<path d="M8380 7950 c0 -5 5 -10 10 -10 6 0 10 5 10 10 0 6 -4 10 -10 10 -5 0
-10 -4 -10 -10z"/>
<path d="M6240 7630 c0 -5 5 -10 10 -10 6 0 10 5 10 10 0 6 -4 10 -10 10 -5 0
-10 -4 -10 -10z"/>
<path d="M5305 6669 c-4 -6 -5 -12 -2 -15 2 -3 7 2 10 11 7 17 1 20 -8 4z"/>
<path d="M5300 6575 c1 -26 2 -28 11 -12 8 14 8 22 0 30 -8 8 -11 3 -11 -18z"/>
<path d="M5339 6567 c-1 -4 -2 -11 -3 -16 0 -5 -13 -23 -28 -40 -32 -35 -35
-56 -12 -65 25 -10 31 -7 50 22 18 28 21 79 4 96 -6 6 -11 7 -11 3z"/>
<path d="M7970 5688 l0 -246 245 -7 c135 -4 297 -8 361 -9 l116 -1 0 232 c-1
128 -3 237 -6 241 -3 5 -115 12 -248 16 -134 3 -294 9 -355 13 l-113 6 0 -245z
m108 165 c5 -10 9 -48 10 -85 2 -72 -11 -91 -54 -83 -10 2 -22 4 -26 4 -5 1
-8 42 -8 91 l0 90 35 0 c23 0 37 -6 43 -17z m102 -52 c0 -65 2 -70 23 -73 14
-2 23 -11 25 -25 3 -21 -1 -23 -37 -23 l-41 0 0 88 c0 49 3 92 7 95 17 18 23
2 23 -62z m147 21 c13 -48 7 -111 -12 -132 -23 -25 -30 -25 -55 0 -30 30 -29
143 2 164 27 19 55 6 65 -32z m43 -4 c0 -32 3 -39 10 -28 5 8 10 27 10 43 0
16 5 27 14 27 16 0 25 -20 27 -58 1 -20 4 -16 8 12 3 22 12 41 19 44 11 4 13
-12 7 -84 -4 -49 -11 -93 -15 -98 -13 -14 -30 3 -31 32 0 15 -4 36 -9 47 -7
17 -9 16 -9 -10 -3 -90 -36 -103 -45 -17 -4 31 -9 74 -12 95 -5 29 -3 37 10
37 12 0 16 -10 16 -42z m178 33 c6 -1 12 -10 12 -21 0 -15 -7 -20 -25 -20 -14
0 -25 -4 -25 -10 0 -5 11 -10 25 -10 33 0 35 -37 3 -42 -31 -4 -29 -31 2 -38
14 -3 26 -14 28 -24 3 -15 -3 -17 -40 -14 l-43 3 -3 79 c-3 95 -1 104 30 100
12 -1 29 -3 36 -3z m112 -16 c8 -9 10 -27 6 -47 -9 -44 -9 -47 0 -92 6 -31 4
-38 -7 -34 -8 2 -19 19 -24 36 -16 46 -25 50 -25 9 0 -26 -4 -37 -15 -37 -12
0 -15 17 -15 90 l0 90 34 0 c18 0 39 -7 46 -15z m-595 -196 c10 -15 14 -139 5
-139 -4 0 -12 15 -18 33 l-10 32 -1 -32 c-1 -18 -5 -33 -11 -33 -6 0 -10 32
-10 75 0 68 2 75 19 75 11 0 23 -5 26 -11z m75 -15 c26 -67 -1 -148 -37 -112
-16 17 -23 104 -9 126 12 20 36 13 46 -14z m33 -1 c4 -27 4 -27 12 -5 4 12 11
22 16 22 5 0 10 -10 10 -22 l2 -23 4 23 c7 36 23 25 23 -17 0 -51 -10 -101
-21 -101 -5 0 -9 11 -9 24 0 14 -4 28 -10 31 -6 4 -10 -7 -10 -24 0 -17 -4
-31 -10 -31 -9 0 -12 16 -25 108 -6 46 11 60 18 15z m211 -10 c15 -78 18 -123
7 -123 -6 0 -11 7 -11 15 0 20 -10 19 -26 -2 -12 -17 -13 -16 -14 7 0 14 3 49
6 78 7 57 29 71 38 25z m112 16 c3 -6 1 -16 -5 -22 -6 -6 -11 -35 -11 -64 0
-29 -4 -53 -10 -53 -13 0 -24 45 -17 72 4 13 0 29 -9 40 -9 9 -13 22 -9 27 8
14 52 14 61 0z m68 -36 c12 -42 -3 -97 -28 -101 -25 -5 -36 14 -36 65 0 57 8
75 33 71 14 -2 24 -14 31 -35z m86 33 c0 -2 3 -12 7 -21 5 -14 2 -16 -18 -10
l-24 7 23 -24 c26 -28 29 -70 6 -89 -14 -11 -18 -10 -30 6 -23 32 -13 50 14
23 21 -21 14 10 -9 41 -25 34 -18 71 12 71 10 0 19 -2 19 -4z m-350 -76 c0
-21 -15 -27 -25 -10 -7 12 2 30 16 30 5 0 9 -9 9 -20z"/>
<path d="M8030 5815 c0 -9 5 -15 11 -13 6 2 11 8 11 13 0 5 -5 11 -11 13 -6 2
-11 -4 -11 -13z"/>
<path d="M8032 5744 c4 -21 22 -23 26 -1 2 10 -3 17 -13 17 -10 0 -15 -6 -13
-16z"/>
<path d="M8274 5806 c-9 -22 0 -79 12 -83 12 -4 21 38 16 75 -4 25 -20 29 -28
8z"/>
<path d="M8610 5796 c0 -9 7 -16 16 -16 17 0 14 22 -4 28 -7 2 -12 -3 -12 -12z"/>
<path d="M8040 5604 c0 -8 5 -12 10 -9 6 4 8 11 5 16 -9 14 -15 11 -15 -7z"/>
<path d="M8110 5575 c0 -19 5 -35 10 -35 6 0 10 16 10 35 0 19 -4 35 -10 35
-5 0 -10 -16 -10 -35z"/>
<path d="M8520 5566 c0 -19 5 -38 10 -41 6 -4 10 10 10 34 0 23 -4 41 -10 41
-5 0 -10 -15 -10 -34z"/>
<path d="M4307 5006 c-20 -8 -59 -17 -84 -21 -26 -4 -56 -13 -67 -21 -11 -8
-30 -14 -42 -14 -20 0 -94 -26 -94 -34 0 -2 12 -2 28 0 15 2 5 -3 -22 -10 -27
-8 -53 -19 -59 -25 -6 -6 -19 -11 -29 -11 -27 0 -138 -117 -160 -170 -72 -168
-123 -382 -100 -427 5 -10 14 -45 21 -78 7 -33 23 -87 36 -120 12 -33 25 -74
28 -92 6 -31 5 -32 -22 -27 -40 8 -54 -19 -39 -70 7 -22 14 -32 19 -25 4 7 7
2 7 -12 0 -47 31 -140 56 -170 14 -17 24 -35 20 -40 -3 -5 -8 -7 -12 -5 -4 2
-187 10 -406 17 l-399 12 -27 -30 c-23 -26 -70 -148 -70 -182 0 -7 -26 -11
-68 -11 l-69 0 -11 80 c-13 93 -30 132 -66 148 -16 7 -134 16 -299 22 -149 6
-346 15 -437 20 -91 5 -272 13 -402 16 l-236 7 -30 -30 c-37 -37 -86 -182
-107 -321 -24 -153 -20 -145 -55 -127 -34 18 -37 27 -45 150 -9 149 -30 263
-52 293 -31 42 -60 52 -158 52 -49 0 -234 7 -410 15 -176 8 -348 15 -383 15
l-62 0 0 -1374 0 -1375 22 -3 c25 -4 37 -28 14 -28 -9 0 -16 5 -16 10 0 6 -4
10 -10 10 -5 0 -10 -12 -10 -26 0 -22 3 -24 23 -18 24 9 63 10 87 3 8 -2 14 3
15 13 0 18 20 26 20 9 0 -5 3 -13 8 -17 4 -4 7 0 7 8 0 9 9 18 20 21 28 7 90
-13 90 -30 0 -19 24 -16 53 7 25 20 31 20 109 9 46 -7 95 -12 110 -13 17 -1
24 -5 18 -10 -6 -6 -10 -23 -10 -40 0 -28 1 -29 15 -10 13 16 16 17 25 4 8
-13 11 -13 19 -1 5 7 14 10 20 7 6 -4 11 -3 11 2 0 5 -17 13 -38 19 -37 10
-36 10 21 10 31 0 57 -4 57 -9 0 -4 7 -8 16 -8 13 0 14 3 4 15 -24 29 -4 38
24 10 27 -27 76 -44 129 -45 16 0 26 4 22 9 -8 14 9 21 25 10 12 -7 13 -11 2
-18 -9 -5 2 -10 33 -13 53 -6 64 -13 46 -31 -7 -7 -14 -8 -19 -2 -4 6 -18 10
-32 9 -51 -1 -56 -4 -30 -18 16 -8 31 -10 43 -4 11 5 17 5 17 -2 0 -5 7 -10
15 -10 8 0 15 -4 15 -10 0 -5 -7 -10 -15 -10 -8 0 -15 5 -15 10 0 15 -26 12
-39 -3 -9 -11 -2 -14 34 -15 25 0 51 -4 58 -10 7 -5 21 -9 32 -9 19 0 27 5 60
35 13 11 15 11 15 -2 0 -9 6 -16 14 -16 18 0 15 -31 -4 -47 -13 -10 -11 -12
13 -13 15 0 27 -4 27 -8 0 -5 20 -10 45 -10 25 -1 45 2 45 8 0 5 24 11 53 12
l52 1 -45 6 c-29 4 -39 8 -29 13 9 3 34 4 56 1 46 -6 73 14 73 52 0 30 38 55
51 34 5 -8 9 -19 9 -26 0 -19 41 -107 53 -115 22 -13 2 -15 -108 -7 -89 7
-721 17 -1087 18 -57 0 -78 3 -78 13 0 10 -2 10 -9 0 -6 -10 -40 -14 -130 -15
-88 0 -121 -4 -121 -13 0 -18 63 -21 440 -23 184 0 488 -4 675 -7 326 -6 342
-7 391 -29 62 -27 98 -72 130 -159 23 -63 87 -360 100 -463 l7 -53 69 0 69 0
-5 43 c-3 23 -8 69 -11 102 -6 66 -27 188 -53 308 -11 51 -21 77 -30 77 -24 0
-73 34 -68 47 3 7 -1 13 -8 13 -7 0 -19 7 -26 15 -7 8 -22 15 -34 15 -13 1
-32 16 -51 43 -38 54 -64 104 -57 111 3 4 0 6 -6 6 -7 0 -12 14 -12 30 0 17
-6 33 -14 36 -18 7 -27 28 -32 74 -3 19 -11 52 -19 73 -8 20 -15 55 -15 76 0
34 6 45 41 75 25 21 47 32 57 29 11 -5 14 -2 9 10 -3 9 -2 17 3 17 6 0 10 5
10 12 0 7 12 24 26 39 21 22 32 26 58 22 30 -5 33 -2 42 28 11 37 55 65 151
94 29 9 55 21 58 26 4 5 23 9 45 9 31 0 46 -8 84 -43 25 -24 46 -50 46 -58 0
-8 7 -27 16 -44 9 -16 22 -40 29 -53 l13 -23 33 29 c19 15 70 53 114 83 355
244 353 243 336 254 -7 4 -10 1 -9 -7 2 -7 -5 -12 -14 -12 -10 1 -15 -3 -11
-9 3 -6 1 -7 -6 -3 -6 4 -9 11 -6 16 3 5 1 11 -5 15 -6 4 -8 11 -4 16 3 5 10
7 15 4 5 -3 6 1 3 9 -3 9 -11 13 -18 9 -6 -4 -5 1 3 11 19 23 64 46 91 46 16
0 20 -6 20 -36 0 -46 22 -69 50 -54 17 9 21 7 29 -12 4 -13 28 -79 52 -147 30
-86 49 -126 62 -129 19 -5 23 -18 6 -24 -6 -2 8 -45 35 -107 25 -57 46 -109
46 -116 0 -13 -118 -107 -170 -136 -14 -8 -50 -35 -80 -60 -30 -25 -120 -94
-200 -154 -80 -60 -189 -151 -243 -202 -113 -107 -119 -108 -199 -41 l-46 38
-7 -67 c-4 -38 -13 -106 -20 -153 -8 -47 -17 -127 -21 -178 l-7 -92 46 0 46 0
5 43 c3 23 7 60 8 82 l3 40 120 0 120 0 -3 -82 -3 -83 35 0 c33 0 35 2 40 43
11 93 18 187 21 287 4 134 14 233 26 251 5 9 8 -28 7 -96 0 -60 4 -128 11
-151 l11 -41 60 59 c33 33 64 57 70 53 6 -3 7 -11 4 -17 -4 -6 -1 -14 7 -18
10 -7 10 -12 -2 -26 -12 -16 -12 -17 1 -9 35 19 40 27 29 41 -7 9 -7 19 1 34
6 11 8 25 5 30 -3 6 -1 10 4 10 6 0 11 -9 11 -20 0 -11 6 -23 14 -26 8 -3 13
-11 10 -19 -3 -7 1 -15 9 -18 8 -3 22 -35 32 -72 l18 -66 -36 -72 c-33 -65
-67 -144 -67 -153 0 -2 725 -4 1610 -4 l1610 0 -2 58 c-3 52 -1 57 20 60 21 3
22 0 22 -57 l0 -61 50 0 50 0 0 73 c0 39 -5 163 -12 274 -15 250 3 599 38 743
6 24 7 23 24 -15 9 -22 15 -46 12 -53 -2 -7 3 -21 13 -32 9 -10 14 -23 11 -29
-4 -5 -1 -13 5 -16 5 -4 8 -14 5 -22 -3 -8 -2 -12 2 -9 37 23 78 -540 47 -642
-8 -26 -15 -57 -15 -69 0 -12 -6 -28 -14 -36 -11 -11 -12 -17 -3 -26 7 -7 8
-11 0 -11 -13 0 -24 -29 -33 -88 l-6 -43 80 3 79 3 18 88 c58 279 117 443 167
462 11 4 8 -3 -9 -22 -15 -15 -34 -42 -42 -59 -18 -34 -66 -223 -92 -354 -9
-47 -19 -93 -21 -102 -4 -14 1 -18 25 -18 21 0 31 5 31 16 0 8 5 12 10 9 6 -3
10 3 10 14 0 12 5 21 10 21 6 0 10 -5 10 -11 0 -6 7 -4 15 5 8 8 23 17 33 20
9 3 22 18 29 33 6 16 19 44 27 63 15 33 16 34 10 5 -3 -16 -14 -63 -24 -103
l-17 -72 118 0 119 0 1 43 1 42 12 -39 c11 -35 36 -62 36 -39 0 43 -23 229
-30 249 -9 22 -8 25 5 20 12 -4 13 -2 6 13 -13 23 -3 35 16 20 10 -9 13 -3 13
36 0 50 -19 59 -31 14 -6 -20 -7 -17 -9 16 -2 22 -2 69 -1 104 1 43 -3 67 -11
72 -15 10 -13 172 2 177 6 2 10 26 10 53 0 51 14 87 40 103 8 6 15 8 16 5 2
-10 37 27 45 48 5 15 14 21 24 17 13 -5 15 10 15 116 0 105 3 129 22 171 13
27 26 49 30 49 4 0 20 12 36 27 16 16 38 33 48 39 25 14 54 7 47 -12 -6 -15
12 -20 22 -5 3 6 16 4 32 -4 15 -8 31 -12 35 -9 5 3 18 -2 29 -12 19 -17 19
-16 14 27 l-6 44 36 -35 c27 -27 36 -42 34 -65 -4 -62 1 -145 9 -145 5 0 14
10 21 23 6 12 26 31 44 42 46 28 47 28 47 10 0 -9 5 -13 10 -10 6 3 10 17 10
31 0 21 4 24 39 24 31 0 41 -4 46 -20 3 -11 10 -20 15 -20 11 0 21 30 14 42
-4 6 -1 9 7 6 8 -3 13 -12 11 -22 -2 -9 4 -16 13 -16 8 0 15 -4 15 -9 0 -5 15
-8 32 -7 23 1 34 7 36 19 3 14 10 16 40 11 20 -3 41 -10 46 -15 5 -4 22 -5 38
-2 24 5 34 -1 71 -39 23 -24 53 -61 67 -80 18 -27 28 -33 38 -26 6 6 12 7 12
3 0 -4 6 -2 14 4 11 9 14 7 15 -11 2 -57 14 -118 23 -118 5 0 7 -4 4 -9 -4 -5
9 -24 26 -42 18 -18 33 -37 33 -42 0 -6 6 -12 13 -15 6 -2 12 1 12 7 0 6 5 11
10 11 6 0 10 -9 10 -20 0 -12 -5 -17 -14 -14 -7 3 -20 -2 -29 -10 -14 -14 -17
-12 -37 17 -12 17 -20 25 -17 16 3 -10 11 -35 18 -58 11 -37 15 -41 43 -40 30
2 30 2 4 6 -33 5 -34 7 -9 32 16 16 20 17 25 5 4 -9 11 -12 18 -8 24 15 110 8
120 -10 5 -9 22 -16 38 -16 53 0 81 -22 41 -33 -10 -2 -24 -20 -31 -41 -11
-33 -10 -38 11 -55 18 -14 42 -19 111 -20 58 -1 88 2 88 9 0 7 6 8 18 1 11 -6
30 -4 57 5 22 7 41 14 43 14 1 0 2 4 2 9 0 5 -16 12 -36 16 -38 7 -39 16 -2
20 36 4 38 4 38 14 0 5 -9 11 -20 14 -29 8 -26 45 5 53 13 3 24 9 23 13 -1 3
4 19 11 36 10 23 14 26 21 15 7 -11 10 -8 10 12 0 16 -5 27 -11 25 -6 -1 -14
4 -16 10 -3 10 8 12 43 8 27 -3 53 0 61 6 7 6 13 8 13 5 0 -4 9 -2 20 4 11 6
20 17 20 25 0 17 17 20 22 4 2 -6 23 -12 48 -14 43 -3 62 -17 41 -30 -20 -12
-12 -27 10 -20 15 5 19 4 14 -5 -4 -6 0 -19 8 -28 8 -9 20 -34 28 -55 7 -20
18 -37 24 -37 9 0 76 -190 75 -213 0 -5 -20 3 -45 18 -25 14 -71 30 -103 35
-88 13 -1562 11 -1562 -2 0 -5 312 -8 693 -8 830 0 907 -3 962 -35 53 -31 90
-71 111 -120 23 -55 100 -282 108 -323 l8 -32 69 0 69 0 0 -35 0 -35 50 0 c50
0 50 0 50 33 0 18 -10 107 -22 198 -17 131 -21 208 -20 384 1 121 6 234 11
250 l8 30 13 -47 c7 -26 16 -45 22 -42 5 3 6 14 3 24 -10 33 5 70 29 69 11 0
15 -3 8 -6 -18 -7 -14 -24 6 -21 10 2 17 -3 17 -12 1 -27 17 -41 43 -39 15 2
33 0 40 -4 6 -5 17 -5 22 -2 6 4 18 1 26 -6 13 -11 14 0 12 87 l-3 99 -28 3
c-33 4 -45 24 -49 88 l-3 49 40 5 40 5 3 658 2 657 -22 0 c-35 0 -47 13 -50
50 -3 34 -2 35 35 38 l37 3 0 109 c0 103 -1 109 -21 112 -12 2 -25 10 -29 18
-4 8 -14 30 -23 48 -10 19 -15 37 -12 42 3 5 23 11 45 15 l40 7 0 64 c0 67 -3
70 -46 58 -36 -9 -52 -68 -29 -104 3 -6 1 -10 -5 -10 -21 0 -31 49 -16 85 13
30 40 47 78 50 14 0 20 15 14 32 -7 17 -8 17 -17 1 -15 -28 -24 -21 -24 17 0
35 8 44 20 25 12 -20 25 -9 25 21 0 29 -1 30 -32 24 -25 -5 -29 -4 -18 4 8 6
23 11 33 11 15 0 17 12 17 109 l0 108 -135 7 c-129 7 -138 6 -183 -16 -59 -29
-87 -83 -92 -180 0 -5 -11 -8 -24 -8 -21 0 -27 9 -46 64 -26 78 -57 127 -90
142 -16 7 -175 16 -420 23 -217 6 -460 16 -540 22 -80 6 -181 12 -225 13 -74
1 -83 -1 -117 -28 -38 -28 -68 -96 -68 -153 0 -22 -4 -24 -41 -21 l-41 3 -23
78 c-23 80 -42 110 -85 132 -17 8 -113 14 -315 19 -257 5 -579 21 -851 42 -90
7 -91 6 -123 -22 -53 -48 -84 -186 -105 -459 -3 -47 -5 -50 -33 -53 l-30 -3
-7 125 c-11 210 -41 349 -85 399 l-28 31 -294 13 c-495 21 -711 32 -716 37 -7
7 13 102 34 161 17 48 19 50 55 50 21 0 44 7 52 15 16 16 59 143 46 135 -5 -3
-10 0 -12 7 -3 9 -11 8 -31 -5 -14 -9 -36 -17 -47 -17 -12 0 -18 -4 -15 -10 3
-5 15 -10 26 -10 10 0 19 -7 19 -15 0 -8 5 -15 10 -15 19 0 10 -49 -12 -64
-31 -22 -51 -20 -78 9 -20 21 -22 28 -12 50 7 14 12 37 12 50 0 18 5 25 20 25
13 0 18 5 14 15 -4 8 -10 12 -15 9 -5 -3 -9 3 -9 14 0 15 6 18 30 14 35 -5 38
7 10 33 -19 17 -19 18 0 43 11 13 20 30 20 37 0 7 7 18 15 25 12 10 20 9 40
-4 31 -21 35 -20 35 3 0 28 -27 51 -59 51 -27 0 -28 1 -25 51 1 29 8 55 15 60
10 6 9 16 -5 48 -10 22 -16 47 -13 55 6 15 -24 108 -41 129 -5 7 -13 26 -16
44 -4 17 -14 37 -22 44 -8 6 -14 15 -14 19 0 4 -13 22 -30 40 -16 18 -30 39
-30 47 0 8 -24 38 -52 67 -47 45 -77 64 -168 106 -59 27 -102 52 -97 56 3 3
15 0 27 -6 12 -6 24 -9 27 -6 9 8 -41 25 -73 24 -16 0 -46 7 -68 16 -46 19
-88 20 -139 2z m93 -433 c0 -5 16 -9 35 -10 19 -1 41 -8 49 -16 13 -12 8 -15
-37 -20 -73 -8 -155 -53 -119 -65 8 -2 2 -12 -13 -24 -20 -16 -23 -23 -14 -34
9 -11 8 -14 -5 -14 -9 0 -16 -4 -16 -9 0 -31 -95 2 -167 59 -14 11 -29 17 -33
15 -5 -3 -11 -1 -15 5 -3 5 -18 10 -33 10 -21 0 -24 -2 -12 -10 13 -8 13 -10
-1 -10 -9 0 -19 9 -22 20 -3 11 -1 18 4 14 16 -9 33 7 18 18 -10 6 -7 7 9 3
12 -4 22 -2 22 4 0 6 14 7 34 4 23 -3 42 0 57 11 13 9 37 16 54 17 16 0 55 9
85 19 57 19 120 26 120 13z m-297 -40 c-7 -2 -19 -2 -25 0 -7 3 -2 5 12 5 14
0 19 -2 13 -5z m502 -75 c20 -19 20 -19 -25 -13 -38 5 -41 4 -20 -5 23 -10 23
-12 7 -21 -10 -6 -32 -7 -49 -4 l-32 7 25 14 c24 13 24 13 -11 15 -32 1 -33 2
-10 9 14 4 21 9 15 9 -5 1 -3 5 5 10 20 13 71 2 95 -21z m-215 -92 c0 -19 -17
-29 -37 -22 -12 5 -13 9 -3 21 16 19 40 19 40 1z m-395 -16 c3 -5 12 -10 18
-10 7 0 6 4 -3 11 -12 9 -12 10 3 5 10 -3 26 -6 35 -6 27 0 -3 -23 -48 -36
-37 -11 -39 -11 -30 6 13 25 13 28 -7 33 -14 4 -13 5 4 6 12 0 25 -3 28 -9z
m548 3 c-7 -2 -21 -2 -30 0 -10 3 -4 5 12 5 17 0 24 -2 18 -5z m-59 -19 c9
-23 2 -28 -29 -20 -22 6 -25 9 -15 21 16 20 36 19 44 -1z m-344 -30 c0 -2 -13
2 -30 11 -16 9 -30 18 -30 21 0 2 14 -2 30 -11 17 -9 30 -18 30 -21z m145 -14
c3 -5 -1 -10 -10 -10 -9 0 -13 5 -10 10 3 6 8 10 10 10 2 0 7 -4 10 -10z
m-181 -16 c21 -8 20 -21 -3 -33 -16 -9 -20 -7 -23 14 -5 26 -1 29 26 19z m-44
-14 c0 -5 -9 -10 -20 -10 -11 0 -20 5 -20 10 0 6 9 10 20 10 11 0 20 -4 20
-10z m212 -6 c7 -8 20 -23 29 -33 8 -9 13 -23 11 -29 -2 -7 4 -12 13 -12 10 0
35 -10 56 -22 28 -15 39 -28 39 -45 0 -26 -12 -30 -30 -8 -20 24 -66 19 -88
-10 -59 -75 -139 25 -91 114 10 20 19 41 19 48 0 18 27 16 42 -3z m-275 -51
c-12 -11 -37 6 -31 21 5 14 8 14 21 0 9 -8 13 -18 10 -21z m743 -25 c0 -38
-30 -84 -46 -70 -3 4 -4 -6 0 -23 18 -75 18 -87 5 -95 -10 -7 -10 -12 -1 -22
9 -11 8 -19 -3 -35 -13 -19 -13 -21 8 -27 34 -9 37 -8 37 19 0 14 3 25 8 25
14 -1 46 -30 39 -36 -3 -4 0 -12 7 -19 7 -7 11 -27 8 -46 -2 -19 -5 -54 -7
-78 -2 -24 -9 -57 -16 -73 -9 -22 -14 -26 -25 -17 -13 10 -18 6 -15 -13 2 -15
-27 -59 -33 -49 -4 5 -13 8 -21 5 -7 -3 -23 -1 -34 5 -14 8 -22 8 -27 0 -4 -8
-10 -6 -17 6 -9 18 -10 18 -23 0 -8 -10 -14 -14 -14 -8 0 6 -8 10 -17 9 -18
-3 -20 -8 -22 -54 0 -13 -6 -20 -11 -17 -6 3 -8 17 -6 30 5 26 -2 38 -16 29
-5 -3 -4 -12 3 -20 11 -13 2 -19 -23 -15 -4 0 -5 -6 -2 -13 4 -10 -3 -16 -18
-18 -15 -2 -22 -9 -22 -21 2 -18 -17 -19 -58 -4 -10 4 -26 10 -35 13 -16 6
-16 7 2 14 18 7 19 8 3 15 -22 9 -23 33 -3 62 17 24 11 53 -11 53 -25 0 -15
19 13 22 38 4 41 25 3 24 -16 -1 -30 -6 -30 -13 0 -7 -13 -26 -30 -43 -16 -17
-30 -40 -30 -50 0 -13 -7 -20 -20 -20 -13 0 -18 5 -14 15 4 10 0 15 -14 15
-14 0 -21 8 -24 30 -3 17 -1 33 3 36 12 7 49 -19 49 -35 0 -27 13 -2 15 30 4
40 13 48 61 54 21 3 41 10 42 15 2 6 13 10 26 10 28 0 96 46 96 65 0 8 11 17
24 21 20 5 24 12 23 40 -1 22 5 39 17 47 18 13 17 15 -10 34 -16 11 -45 28
-64 37 -34 16 -35 17 -32 69 3 39 0 57 -12 66 -17 15 -22 41 -7 41 6 0 13 -5
16 -10 4 -6 11 -8 16 -4 6 4 6 11 -2 20 -7 9 -8 14 -1 14 6 0 13 -9 17 -19 8
-25 22 -30 65 -23 l35 6 -30 6 c-17 4 0 6 40 5 60 -3 77 1 110 21 45 27 55 20
55 -38z m277 -2 c-12 -13 -30 -35 -40 -50 -21 -30 -32 -33 -41 -10 -8 20 11
54 30 54 9 0 22 7 30 15 27 26 46 18 21 -9z m-888 -137 c7 -23 9 -54 5 -72 -8
-36 -44 -109 -44 -88 0 7 -6 11 -15 8 -8 -4 -17 -2 -20 3 -4 6 -15 10 -26 10
-20 0 -23 4 -33 53 -5 20 -3 27 9 27 10 0 13 5 9 11 -9 15 55 72 73 65 7 -3
13 1 13 9 0 29 17 14 29 -26z m251 30 c0 -5 -14 -15 -30 -21 -18 -6 -32 -19
-36 -33 -5 -20 -9 -22 -24 -13 -16 10 -15 14 14 44 30 31 76 46 76 23z m-55
-118 c3 -5 1 -12 -4 -15 -5 -3 -11 1 -15 9 -6 16 9 21 19 6z m170 -9 c-3 -3
-11 0 -18 7 -9 10 -8 11 6 5 10 -3 15 -9 12 -12z m551 -17 c-10 -10 -17 -12
-21 -4 -4 5 1 16 11 24 23 17 31 1 10 -20z m-614 -45 c-12 -11 -26 -20 -32
-20 -7 0 -19 -9 -29 -21 -15 -19 -21 -20 -58 -10 -72 20 -33 47 80 56 15 2 31
5 34 9 4 3 11 6 17 6 5 0 0 -9 -12 -20z m-392 0 c0 -5 -4 -10 -10 -10 -5 0
-10 5 -10 10 0 6 5 10 10 10 6 0 10 -4 10 -10z m-244 -28 c1 -12 -5 -27 -12
-33 -19 -16 -17 -29 4 -29 15 0 62 -33 62 -44 0 -2 -20 -3 -45 -3 l-45 0 0 69
c0 61 2 69 18 66 9 -2 17 -13 18 -26z m44 -154 c0 6 4 12 9 12 5 0 7 -9 4 -20
-4 -17 -23 -29 -23 -16 0 2 -3 13 -6 23 -5 15 -4 15 5 3 7 -10 11 -11 11 -2z
m55 -37 c-6 -5 -25 10 -25 20 0 5 6 4 14 -3 8 -7 12 -15 11 -17z m-2500 -36
c-1 -17 3 -25 13 -25 10 0 13 7 10 25 -4 20 -1 25 16 25 32 0 48 -15 44 -41
-3 -22 -7 -24 -67 -24 -49 0 -66 4 -74 17 -14 22 7 48 38 48 19 0 23 -5 20
-25z m2493 13 c-6 -18 -28 -21 -28 -4 0 9 7 16 16 16 9 0 14 -5 12 -12z m-723
-93 c0 -27 -3 -29 -35 -29 -104 3 -100 2 -100 34 l0 31 68 -3 67 -3 0 -30z
m1649 -175 c3 -36 9 -94 12 -130 3 -35 13 -74 21 -86 14 -21 11 -26 -49 -85
-35 -34 -94 -82 -133 -107 -38 -25 -88 -60 -111 -79 -62 -50 -78 -45 -189 52
-54 47 -102 85 -107 85 -5 0 -6 5 -2 12 5 7 2 9 -9 5 -11 -4 -14 -2 -10 9 7
19 48 14 48 -6 0 -18 38 -56 65 -65 22 -7 29 12 6 21 -18 7 -11 65 9 77 9 4
13 12 10 18 -4 5 -1 9 4 9 6 0 11 8 12 18 0 10 3 12 6 5 7 -18 38 -16 53 2 15
18 5 28 -62 67 -43 25 -48 38 -15 38 21 1 21 1 -5 21 -16 11 -28 28 -28 38 0
9 -5 22 -12 29 -9 9 -3 12 30 12 24 0 53 6 65 14 28 18 107 29 142 20 21 -5
25 -11 21 -27 -3 -12 -1 -26 5 -33 7 -8 7 -14 -1 -19 -17 -10 -11 -25 10 -25
11 0 20 -7 20 -15 0 -8 -4 -15 -10 -15 -5 0 -14 -9 -20 -20 -10 -18 -8 -19 22
-13 43 8 54 18 38 38 -10 12 -10 15 5 15 13 0 16 6 12 22 -3 11 1 34 8 49 8
15 12 34 9 43 -3 8 3 19 15 26 12 6 21 7 21 3 0 -4 14 15 31 42 l31 49 13 -24
c7 -14 15 -54 19 -90z m1571 79 c2 -3 6 -16 7 -29 4 -29 -15 -35 -79 -25 -45
7 -60 22 -49 51 5 13 17 16 61 12 30 -3 57 -7 60 -9z m-3248 -45 c3 -9 15 -19
25 -23 17 -6 18 -9 6 -19 -12 -9 -19 -7 -36 9 -23 21 -29 49 -12 49 6 0 13 -7
17 -16z m91 -1 c-2 -9 -8 -18 -15 -20 -7 -3 -9 3 -6 16 6 25 26 28 21 4z m82
-13 c0 -5 -13 -3 -30 3 -16 6 -30 15 -30 19 0 4 14 2 30 -3 17 -6 30 -15 30
-19z m4645 -16 c27 -28 12 -39 -51 -39 -57 0 -59 1 -62 28 -3 26 -2 27 47 27
32 0 55 -6 66 -16z m-4643 -36 c19 -25 25 -98 8 -98 -5 0 -10 11 -10 25 0 38
-21 75 -47 81 -63 16 -114 -32 -95 -92 8 -27 7 -34 -3 -34 -26 0 -34 72 -11
102 38 51 124 59 158 16z m-452 -18 c8 -5 11 -10 5 -11 -5 0 -1 -4 10 -9 18
-8 18 -9 -5 -9 -15 -1 -30 7 -38 19 -14 23 1 28 28 10z m130 -4 c-19 -19 -10
-29 10 -11 25 23 25 7 0 -23 -22 -27 -53 -26 -58 1 -5 24 15 46 39 44 12 -1
15 -5 9 -11z m6459 -13 l11 -28 -4 28 c-3 23 0 27 21 27 20 0 43 -30 43 -56 0
-2 -27 -4 -59 -4 -44 0 -60 4 -65 16 -12 30 -6 44 18 44 17 0 28 -8 35 -27z
m-6542 11 c-3 -3 -12 -4 -19 -1 -8 3 -5 6 6 6 11 1 17 -2 13 -5z m168 -34 c3
-5 13 -6 22 -3 14 6 14 2 -3 -20 -10 -14 -26 -27 -35 -27 -25 0 -53 25 -46 44
7 17 52 22 62 6z m-241 -16 c8 -3 20 -21 26 -40 10 -28 9 -37 -4 -50 -13 -12
-17 -13 -20 -2 -2 7 -8 29 -15 49 -16 52 -16 54 13 43z m4123 -52 c-10 -36 -9
-45 3 -52 23 -15 29 -12 50 23 26 41 25 53 -2 62 -14 3 -18 8 -11 11 7 3 39
-7 73 -22 l60 -27 -28 -51 c-21 -40 -32 -51 -52 -51 -15 0 -29 8 -35 22 -9 17
-14 20 -23 11 -9 -9 -18 -9 -37 0 -28 13 -33 44 -13 99 17 47 29 27 15 -25z
m190 33 c-4 -8 -14 -15 -23 -15 -16 0 -16 2 1 20 20 22 31 20 22 -5z m-4228
-32 c1 -18 -15 -16 -34 4 -16 16 -16 17 1 30 16 12 20 11 26 -4 3 -10 7 -24 7
-30z m4349 25 c2 -9 -5 -19 -17 -23 -24 -7 -37 -1 -51 24 -8 16 -5 18 28 17
26 -1 38 -6 40 -18z m42 12 c4 7 13 9 19 6 16 -10 14 -23 -6 -30 -16 -7 -33 9
-32 29 0 6 3 4 6 -4 4 -10 7 -11 13 -1z m130 -10 c-8 -6 -24 -10 -35 -9 -15 0
-13 3 10 13 32 14 49 11 25 -4z m-4417 -39 c7 -27 -19 -48 -41 -34 -21 13 -28
53 -11 64 17 10 45 -6 52 -30z m282 20 c3 -5 -5 -11 -17 -13 -19 -2 -22 -8
-19 -33 5 -46 20 -67 44 -63 20 3 22 8 19 62 -4 71 13 68 23 -4 5 -34 3 -55
-5 -65 -14 -17 -51 -20 -66 -5 -7 7 -16 4 -29 -10 -38 -42 -77 -14 -90 67 l-7
42 44 11 c24 6 48 13 53 15 19 7 44 5 50 -4z m4088 -48 c-3 -7 -13 -13 -24
-13 -16 0 -17 4 -7 30 9 28 11 29 23 13 7 -9 11 -23 8 -30z m-83 2 c0 -12 -7
-26 -16 -29 -12 -5 -15 -2 -10 10 5 12 1 14 -17 9 -15 -4 -18 -4 -8 3 7 5 11
14 7 20 -6 10 22 22 37 15 4 -2 7 -15 7 -28z m150 15 c0 -6 -4 -18 -9 -28 -5
-9 -12 -25 -15 -34 -7 -22 -22 -23 -30 -2 -7 19 23 74 41 74 7 0 13 -5 13 -10z
m2027 -82 c3 -22 12 -42 19 -45 19 -7 18 -23 -1 -23 -17 0 -30 22 -38 65 -3
17 -9 39 -13 50 -7 18 -6 18 9 6 10 -7 20 -31 24 -53z m-6585 17 c1 -5 8 -15
17 -22 11 -9 12 -12 3 -13 -23 0 -52 20 -52 36 0 17 30 16 32 -1z m45 -1 c-3
-3 -12 -4 -19 -1 -8 3 -5 6 6 6 11 1 17 -2 13 -5z m4433 -32 c0 -14 -23 -32
-42 -32 -10 0 -18 5 -18 11 0 6 7 8 15 5 9 -3 18 1 21 9 6 16 24 21 24 7z
m-3055 -62 c3 -5 2 -10 -4 -10 -5 0 -13 5 -16 10 -3 6 -2 10 4 10 5 0 13 -4
16 -10z m4910 -9 c-3 -6 3 -14 12 -20 16 -9 16 -10 1 -11 -15 0 -48 24 -48 36
0 2 9 4 21 4 11 0 18 -4 14 -9z m113 -21 c14 -23 8 -40 -13 -40 -17 0 -34 30
-28 48 7 18 27 15 41 -8z m-118 -86 c0 -31 -13 -53 -23 -37 -3 5 -8 31 -12 58
l-8 50 22 -19 c13 -12 21 -31 21 -52z m205 55 c4 -6 14 -8 24 -4 9 4 6 -5 -10
-21 -23 -22 -30 -24 -48 -15 -30 17 -28 51 3 51 14 0 28 -5 31 -11z m-3384 -8
c-8 -5 -20 -7 -28 -4 -21 8 -15 13 15 13 20 0 23 -3 13 -9z m58 -63 c-1 -40
-4 -62 -6 -49 -4 19 -7 21 -14 10 -6 -10 -9 -7 -9 14 0 15 5 27 10 27 16 0 11
37 -6 44 -18 7 -10 26 12 26 11 0 14 -15 13 -72z m3174 36 c5 -28 4 -31 -13
-27 -22 6 -26 33 -8 51 14 14 14 15 21 -24z m85 -16 c16 -16 15 -28 -3 -28 -8
0 -15 -5 -15 -12 0 -8 -5 -7 -15 3 -17 17 -11 49 9 49 7 0 17 -5 24 -12z
m-8550 -68 c29 0 32 -3 32 -29 0 -58 -5 -61 -100 -61 -99 0 -117 10 -105 57 9
39 22 45 85 39 30 -3 70 -5 88 -6z m8452 -22 c0 -13 -23 -5 -28 10 -2 7 2 10
12 6 9 -3 16 -11 16 -16z m-1724 -231 c2 -7 6 -27 7 -43 l2 -29 -78 -3 c-91
-3 -107 5 -107 54 l0 34 85 0 c62 0 87 -4 91 -13z m-6306 -67 c218 -6 183 -7
-170 -3 -245 3 -448 7 -451 9 -14 8 -83 -20 -108 -44 -39 -38 -141 -291 -171
-425 -9 -40 -16 -54 -22 -45 -6 8 -7 -1 -3 -25 5 -29 3 -37 -6 -32 -9 6 -10
-2 -5 -31 4 -25 3 -34 -3 -25 -13 19 -18 -2 -31 -129 -6 -58 -14 -132 -18
-165 l-7 -60 -58 0 -59 0 5 50 c2 28 17 151 33 273 27 218 28 224 52 233 19 7
22 13 14 21 -20 20 -14 23 48 20 37 -2 60 -8 60 -15 0 -7 18 40 40 103 22 63
57 149 77 190 32 62 45 78 81 97 48 24 -17 24 702 3z m708 -13 c150 -2 277 -8
282 -13 5 -5 -32 -6 -93 -3 -56 4 -213 7 -349 8 -137 1 -248 4 -248 9 0 4 30
6 68 5 37 -1 190 -4 340 -6z m4938 -185 c16 -10 15 -11 -11 -6 -16 3 -68 9
-115 14 l-85 9 96 -3 c52 -2 104 -8 115 -14z m-5716 -21 l55 -7 -65 -12 c-176
-34 -200 -35 -200 -7 0 18 -33 24 -45 8 -5 -7 -24 -15 -41 -19 -26 -5 -32 -2
-37 15 -4 16 0 22 16 26 55 12 206 10 317 -4z m610 -11 c-8 -5 -28 -9 -45 -9
-29 1 -29 1 -5 9 14 4 34 8 45 9 16 1 17 -1 5 -9z m2830 -8 c80 -9 124 -30
128 -60 3 -19 -1 -22 -28 -22 -17 0 -38 7 -46 15 -11 10 -37 15 -85 15 -83 0
-109 11 -109 46 0 25 2 26 38 20 20 -4 66 -10 102 -14z m2331 1 c13 -16 12
-17 -3 -4 -10 7 -18 15 -18 17 0 8 8 3 21 -13z m1021 10 c-40 -2 -103 -2 -140
0 -37 2 -4 3 73 3 77 0 107 -2 67 -3z m-6428 -17 c-9 -24 34 -108 80 -156 63
-66 108 -126 156 -207 38 -66 87 -119 136 -150 18 -11 17 -12 -7 -12 -24 -1
-27 -6 -34 -47 -4 -28 -11 -44 -18 -41 -12 4 -78 162 -76 181 3 25 -2 37 -12
31 -5 -4 -31 13 -57 37 -26 24 -56 50 -67 58 -11 8 -28 27 -38 42 -19 30 -107
79 -176 98 -51 13 -125 0 -179 -32 -18 -11 -35 -18 -38 -15 -11 11 92 77 154
98 34 13 62 27 62 31 0 5 21 29 46 53 45 44 79 59 68 31z m2771 4 c-3 -5 -19
-10 -36 -10 -16 0 -29 5 -29 10 0 6 16 10 36 10 21 0 33 -4 29 -10z m115 -29
c0 -32 -4 -39 -23 -43 -37 -7 -47 1 -47 43 0 38 1 39 35 39 34 0 35 -1 35 -39z
m3185 29 c-3 -5 -12 -10 -18 -10 -7 0 -6 4 3 10 19 12 23 12 15 0z m623 3
c-26 -2 -71 -2 -100 0 -29 2 -8 3 47 3 55 0 79 -1 53 -3z m95 0 c-7 -2 -21 -2
-30 0 -10 3 -4 5 12 5 17 0 24 -2 18 -5z m-4220 -40 c-7 -43 -17 -53 -56 -53
-27 0 -28 1 -21 38 9 51 10 52 49 52 33 0 34 0 28 -37z m747 -3 c0 -39 -1 -40
-35 -40 -34 0 -35 1 -35 40 0 39 1 40 35 40 34 0 35 -1 35 -40z m160 -7 c25
-42 25 -43 -1 -43 -31 0 -57 17 -74 50 -20 38 -20 37 20 32 26 -3 39 -12 55
-39z m3573 40 c-34 -2 -93 -2 -130 0 -37 2 -9 3 62 3 72 0 102 -1 68 -3z
m-4675 -25 c66 3 73 1 70 -15 -3 -15 -15 -18 -73 -21 -39 -1 -84 -9 -102 -17
-49 -23 -64 -20 -57 13 3 15 7 32 9 39 5 15 57 22 70 8 6 -6 42 -9 83 -7z
m1252 17 c0 -3 -10 -21 -22 -40 -19 -29 -29 -35 -60 -35 -29 0 -36 3 -32 15 4
8 9 15 13 15 4 0 13 11 19 25 9 20 19 25 47 25 19 0 35 -2 35 -5z m3708 -2
c-15 -2 -42 -2 -60 0 -18 2 -6 4 27 4 33 0 48 -2 33 -4z m-5153 -40 c-4 -21
-8 -38 -8 -39 -1 -1 -17 -4 -36 -8 -27 -5 -32 -3 -27 10 3 9 6 26 6 39 0 23
13 31 54 34 16 1 17 -4 11 -36z m1561 23 c3 -9 33 -19 74 -26 67 -11 103 -31
81 -44 -6 -4 -40 -2 -77 5 -45 8 -68 8 -73 1 -3 -6 -18 -8 -34 -5 -24 5 -27
10 -27 44 0 35 3 39 25 39 14 0 28 -6 31 -14z m1704 -32 c18 -52 7 -51 -13 2
-9 25 -12 42 -7 39 5 -3 14 -21 20 -41z m600 42 c0 -2 -8 -10 -17 -17 -16 -13
-17 -12 -4 4 13 16 21 21 21 13z m1573 -3 c-7 -2 -19 -2 -25 0 -7 3 -2 5 12 5
14 0 19 -2 13 -5z m-8321 -25 c3 -9 15 -9 48 0 30 7 49 8 63 0 30 -16 6 -31
-81 -49 -57 -12 -77 -20 -77 -32 0 -8 -10 -26 -21 -39 -12 -13 -24 -31 -27
-40 -3 -10 -12 -16 -19 -13 -16 6 -42 -14 -51 -38 -4 -11 -12 -15 -19 -11 -7
5 -9 1 -6 -14 6 -20 -16 -40 -25 -24 -4 6 18 114 40 200 7 28 33 43 98 58 69
15 73 16 77 2z m3478 -13 c0 -10 -11 -15 -35 -15 -33 0 -43 8 -28 23 13 14 63
7 63 -8z m4939 -34 c25 -48 94 -277 89 -292 -2 -7 -19 43 -38 111 -18 68 -45
147 -60 176 -14 29 -23 51 -18 48 5 -3 17 -22 27 -43z m-5735 2 c-8 -45 -3
-39 -37 -47 -28 -7 -29 -6 -22 26 9 42 22 58 47 58 16 0 18 -5 12 -37z m1004
30 c-10 -2 -28 -2 -40 0 -13 2 -5 4 17 4 22 1 32 -1 23 -4z m3021 -42 c-7 -23
-14 -39 -16 -37 -3 2 1 23 8 45 7 23 14 39 16 37 3 -2 -1 -23 -8 -45z m1001
-32 c0 -4 -9 -7 -19 -6 -11 0 -18 4 -16 7 6 9 35 8 35 -1z m-1321 -23 c6 -8
17 -33 24 -56 11 -40 16 -44 64 -60 29 -9 59 -23 68 -30 19 -15 21 -47 3 -33
-44 34 -126 13 -243 -61 -32 -21 -69 -42 -82 -47 -27 -10 -28 -11 23 63 18 27
38 65 45 85 14 44 71 153 80 153 4 0 12 -6 18 -14z m298 -18 c-3 -8 -6 -5 -6
6 -1 11 2 17 5 13 3 -3 4 -12 1 -19z m303 -18 c0 -5 -10 -10 -22 -10 -19 0
-20 2 -8 10 19 13 30 13 30 0z m102 -2 c-9 -9 -15 -9 -24 0 -9 9 -7 12 12 12
19 0 21 -3 12 -12z m138 2 c24 -15 8 -17 -40 -4 -45 12 -45 12 -10 13 19 0 42
-3 50 -9z m-562 -58 c-6 -29 -13 -50 -16 -47 -2 2 1 27 8 55 7 28 14 49 16 47
3 -2 -1 -27 -8 -55z m1142 47 c96 -1 191 -4 210 -8 l35 -6 -44 -5 c-60 -7 -65
-26 -6 -22 45 4 63 -11 25 -21 -23 -6 -27 -37 -5 -37 8 0 17 -14 21 -35 6 -34
32 -59 69 -67 30 -5 27 -52 -2 -56 -28 -4 -29 -26 -3 -52 19 -19 19 -19 -5
-49 -28 -33 -32 -51 -10 -51 28 0 15 -18 -30 -39 -40 -19 -67 -48 -64 -68 4
-25 -2 -34 -20 -28 -21 6 -38 -10 -21 -20 15 -9 1 -27 -16 -21 -8 3 -14 2 -14
-2 0 -4 -12 -13 -27 -19 -19 -9 -30 -10 -40 -2 -14 13 -29 4 -72 -41 -13 -14
-25 -20 -27 -14 -3 6 -11 20 -19 30 -13 17 -14 17 -15 2 0 -9 6 -19 13 -21 7
-4 3 -8 -10 -12 -13 -4 -23 -11 -23 -17 0 -5 -55 -7 -132 -5 -114 3 -139 7
-177 26 -23 12 -63 24 -88 26 -25 2 -50 8 -56 14 -6 6 -27 11 -48 11 -21 0
-47 8 -62 20 -14 11 -32 17 -40 14 -10 -4 -15 1 -14 13 2 13 -6 19 -25 21 -19
2 -25 8 -21 18 3 9 -2 14 -16 14 -29 0 -64 37 -58 61 5 18 -3 23 -30 20 -18
-2 -24 16 -7 23 28 11 -10 38 -48 34 -27 -2 -34 1 -36 19 -2 12 8 40 22 62 14
22 26 45 26 50 0 6 9 15 19 21 13 6 17 17 14 30 -4 15 0 20 16 20 11 0 20 5
19 12 -4 15 42 39 65 34 12 -3 17 2 17 15 0 10 5 19 10 19 6 0 10 -4 10 -10 0
-5 5 -10 10 -10 6 0 10 9 10 20 0 11 -5 20 -11 20 -5 0 -7 5 -3 12 6 9 9 9 12
0 2 -7 10 -12 18 -12 7 0 11 6 8 13 -3 10 19 19 83 32 66 14 82 20 67 27 -10
4 67 6 176 3 107 -3 274 -6 370 -6z m277 -15 c-3 -3 -12 -4 -19 -1 -8 3 -5 6
6 6 11 1 17 -2 13 -5z m-1067 -35 c0 -5 -7 -9 -15 -9 -15 0 -20 12 -9 23 8 8
24 -1 24 -14z m-373 -91 c-3 -7 -5 -2 -5 12 0 14 2 19 5 13 2 -7 2 -19 0 -25z
m-10 -40 c-3 -8 -6 -5 -6 6 -1 11 2 17 5 13 3 -3 4 -12 1 -19z m-6837 -40 c0
-10 8 -22 18 -25 26 -10 30 -21 21 -66 -5 -23 -12 -64 -16 -92 -5 -35 -8 -42
-11 -25 -2 13 -10 33 -18 44 -8 11 -14 29 -14 40 0 29 -17 7 -24 -29 -2 -16
-2 14 0 68 6 116 10 132 30 116 8 -6 14 -20 14 -31z m-333 0 c-3 -8 -6 -5 -6
6 -1 11 2 17 5 13 3 -3 4 -12 1 -19z m9083 -4 c0 -15 -21 -15 -32 1 -13 17 -9
23 12 18 11 -3 20 -12 20 -19z m-3 -46 c-3 -8 -6 -5 -6 6 -1 11 2 17 5 13 3
-3 4 -12 1 -19z m-7424 -108 c-7 -30 -41 -100 -49 -100 -3 0 -2 5 2 11 3 6 1
15 -5 19 -16 9 -3 58 24 93 22 30 38 18 28 -23z m7424 -17 c-3 -10 -5 -4 -5
12 0 17 2 24 5 18 2 -7 2 -21 0 -30z m-9100 -15 c-3 -7 -5 -2 -5 12 0 14 2 19
5 13 2 -7 2 -19 0 -25z m563 2 c8 -5 11 -12 8 -16 -4 -3 -14 1 -23 10 -18 17
-9 21 15 6z m54 -32 c-6 -9 -34 1 -34 11 0 4 3 10 6 14 8 7 33 -16 28 -25z
m-164 -37 c0 -11 -4 -9 -14 4 -8 11 -12 24 -9 28 7 11 23 -12 23 -32z m309
-16 c20 -28 28 -44 18 -36 -13 10 -17 10 -17 1 0 -9 -4 -9 -12 -2 -7 5 -24 12
-38 14 -27 3 -34 28 -11 36 8 3 11 0 8 -5 -7 -11 42 -37 51 -28 8 8 -35 45
-52 45 -8 0 -22 3 -32 7 -16 6 -16 7 2 14 33 13 46 6 83 -46z m-772 3 c-3 -7
-5 -2 -5 12 0 14 2 19 5 13 2 -7 2 -19 0 -25z m613 22 c0 -5 -4 -10 -10 -10
-5 0 -10 5 -10 10 0 6 5 10 10 10 6 0 10 -4 10 -10z m-47 -37 c-7 -2 -19 -2
-25 0 -7 3 -2 5 12 5 14 0 19 -2 13 -5z m5747 -51 c0 -5 17 -27 38 -50 l39
-42 -211 6 c-237 6 -244 7 -226 29 8 10 31 15 67 15 40 0 54 3 50 13 -3 9 14
12 67 13 103 1 165 8 159 17 -2 4 1 7 6 7 6 0 11 -4 11 -8z m-5087 -124 c-6
-29 -33 -39 -33 -13 0 21 23 56 31 47 4 -4 5 -19 2 -34z m4953 -191 c19 -19
26 -100 12 -119 -11 -14 -30 -15 -140 -9 -69 3 -129 8 -132 11 -2 3 -8 28 -11
56 -11 80 0 86 143 79 70 -4 122 -11 128 -18z m-6159 -169 c-3 -8 -6 -5 -6 6
-1 11 2 17 5 13 3 -3 4 -12 1 -19z m362 -21 c19 -24 -10 -36 -39 -17 -13 9
-13 11 0 20 20 13 26 12 39 -3z m-334 -7 c3 -5 -3 -10 -15 -10 -12 0 -18 5
-15 10 3 6 10 10 15 10 5 0 12 -4 15 -10z m465 -50 c0 -5 -4 -10 -10 -10 -5 0
-10 5 -10 10 0 6 5 10 10 10 6 0 10 -4 10 -10z m669 -28 c7 -23 6 -32 -5 -36
-18 -7 -28 12 -15 28 6 7 8 22 5 32 -4 11 -4 16 0 13 4 -4 11 -20 15 -37z
m6655 -57 c3 -8 1 -15 -4 -15 -6 0 -10 7 -10 15 0 8 2 15 4 15 2 0 6 -7 10
-15z m-7011 -12 c-7 -2 -21 -2 -30 0 -10 3 -4 5 12 5 17 0 24 -2 18 -5z m-48
-23 c3 -5 1 -10 -4 -10 -6 0 -11 5 -11 10 0 6 2 10 4 10 3 0 8 -4 11 -10z
m290 -1 c11 -17 0 -20 -21 -4 -17 13 -17 14 -2 15 9 0 20 -5 23 -11z m-48 -21
c-3 -8 -6 -5 -6 6 -1 11 2 17 5 13 3 -3 4 -12 1 -19z m6803 12 c0 -5 -8 -10
-17 -10 -15 0 -16 2 -3 10 19 12 20 12 20 0z m35 0 c3 -5 1 -10 -4 -10 -6 0
-11 5 -11 10 0 6 2 10 4 10 3 0 8 -4 11 -10z m-1549 -192 c1 -51 5 -123 9
-160 9 -87 4 -107 -44 -157 -32 -33 -46 -41 -75 -41 -34 0 -36 1 -30 27 7 34
36 93 45 93 4 0 10 -6 12 -12 8 -18 27 10 27 39 0 12 4 24 9 27 4 3 6 17 3 31
-3 20 -1 24 12 19 15 -6 16 2 11 70 -5 60 6 156 18 156 1 0 3 -42 3 -92z
m-4817 -368 c12 -69 21 -134 20 -145 -1 -16 -59 277 -58 295 0 3 3 -2 8 -10 5
-8 18 -71 30 -140z m4432 -101 c-16 -68 -30 -115 -30 -104 -1 22 11 80 36 173
28 109 24 61 -6 -69z m-3904 15 c-3 -3 -12 -4 -19 -1 -8 3 -5 6 6 6 11 1 17
-2 13 -5z m4210 -86 c-3 -8 -6 -5 -6 6 -1 11 2 17 5 13 3 -3 4 -12 1 -19z
m-4710 -50 c-3 -8 -6 -5 -6 6 -1 11 2 17 5 13 3 -3 4 -12 1 -19z"/>
<path d="M4670 3890 c0 -5 5 -10 11 -10 5 0 7 5 4 10 -3 6 -8 10 -11 10 -2 0
-4 -4 -4 -10z"/>
<path d="M4325 3850 c-3 -5 1 -10 9 -10 9 0 16 5 16 10 0 6 -4 10 -9 10 -6 0
-13 -4 -16 -10z"/>
<path d="M3093 3551 c1 -12 7 -21 15 -21 16 0 12 32 -5 37 -7 3 -11 -4 -10
-16z"/>
<path d="M6317 3443 c-13 -12 -7 -33 8 -33 8 0 15 9 15 20 0 20 -11 26 -23 13z"/>
<path d="M7885 3371 c-8 -15 3 -31 21 -31 9 0 14 7 12 17 -4 20 -24 28 -33 14z"/>
<path d="M7031 3184 c-11 -32 -11 -38 4 -53 15 -15 18 -14 36 9 10 14 23 30
29 37 5 7 10 14 10 17 0 3 -56 26 -64 26 -1 0 -8 -16 -15 -36z"/>
<path d="M3203 3190 c-19 -8 -20 -12 -11 -49 9 -34 15 -41 34 -41 21 0 24 5
24 34 0 37 -8 66 -19 65 -3 0 -16 -4 -28 -9z"/>
<path d="M730 2829 c0 -5 5 -7 10 -4 6 3 10 1 10 -4 0 -6 5 -11 10 -11 6 0 10
7 10 15 0 8 -9 15 -20 15 -11 0 -20 -5 -20 -11z"/>
<path d="M727 2804 c-13 -13 -7 -24 14 -24 11 0 19 5 17 12 -5 14 -22 21 -31
12z"/>
<path d="M7450 2574 c0 -8 5 -12 10 -9 6 3 10 2 10 -4 0 -5 -6 -12 -12 -14 -7
-3 -3 -6 10 -6 23 -1 26 6 16 33 -8 21 -34 21 -34 0z"/>
<path d="M331 2104 c0 -11 3 -14 6 -6 3 7 2 16 -1 19 -3 4 -6 -2 -5 -13z"/>
<path d="M321 2064 c0 -11 3 -14 6 -6 3 7 2 16 -1 19 -3 4 -6 -2 -5 -13z"/>
<path d="M195 1890 c3 -5 8 -10 11 -10 2 0 4 5 4 10 0 6 -5 10 -11 10 -5 0 -7
-4 -4 -10z"/>
<path d="M171 1704 c0 -11 3 -14 6 -6 3 7 2 16 -1 19 -3 4 -6 -2 -5 -13z"/>
<path d="M210 1640 c0 -5 7 -10 15 -10 8 0 15 5 15 10 0 6 -7 10 -15 10 -8 0
-15 -4 -15 -10z"/>
<path d="M1470 2210 c-12 -8 -9 -10 13 -10 16 0 26 4 22 10 -8 12 -16 12 -35
0z"/>
<path d="M724 2179 c-3 -6 -15 -9 -25 -6 -10 3 -22 1 -25 -4 -3 -5 4 -9 15 -9
12 0 21 -7 21 -15 0 -8 4 -15 9 -15 8 0 41 43 41 55 0 10 -29 5 -36 -6z"/>
<path d="M675 2141 c-3 -5 -1 -12 5 -16 5 -3 10 1 10 9 0 18 -6 21 -15 7z"/>
<path d="M8190 2047 c-88 -19 -105 -25 -108 -42 -2 -15 -1 -17 6 -6 6 7 12 9
15 4 4 -6 -6 -16 -21 -24 -46 -23 -92 -61 -86 -70 3 -5 0 -9 -6 -9 -6 0 -10
-6 -8 -12 3 -18 -12 -70 -25 -86 -21 -26 -14 -53 26 -88 34 -32 39 -40 34 -69
-6 -37 0 -50 18 -35 17 14 69 2 94 -22 12 -10 21 -16 21 -12 0 3 6 2 13 -4 6
-6 30 -13 52 -17 77 -13 105 -27 105 -52 0 -14 6 -23 15 -23 9 0 15 -9 15 -21
0 -15 4 -19 16 -15 9 3 18 6 20 6 2 0 4 7 4 15 0 8 9 15 20 15 13 0 20 7 20
20 0 17 4 18 25 10 14 -5 25 -6 25 -1 0 19 44 19 68 0 27 -21 42 -18 24 4 -7
8 -9 17 -5 20 3 4 -6 7 -21 7 -15 0 -29 7 -33 15 -8 22 -4 24 53 29 27 2 52 4
57 5 4 1 7 12 7 26 0 21 5 25 28 25 15 0 33 -5 40 -12 9 -9 12 -4 12 25 0 33
3 37 37 46 27 8 41 7 51 -2 12 -10 14 -9 10 3 -3 8 1 23 9 32 11 13 12 21 3
37 -7 14 -8 27 -1 40 6 10 7 21 4 25 -3 3 -1 6 5 6 7 0 -9 22 -36 48 -71 72
-93 102 -76 102 25 0 15 19 -13 25 -16 3 -59 14 -98 25 -114 30 -289 33 -415
7z m180 -545 c0 -5 -7 -9 -15 -9 -8 0 -15 4 -15 9 0 4 7 8 15 8 8 0 15 -4 15
-8z"/>
<path d="M8000 2006 c0 -2 7 -6 15 -10 8 -3 15 -1 15 4 0 6 -7 10 -15 10 -8 0
-15 -2 -15 -4z"/>
<path d="M7920 1670 c0 -5 4 -10 9 -10 6 0 13 5 16 10 3 6 -1 10 -9 10 -9 0
-16 -4 -16 -10z"/>
<path d="M7862 1614 c1 -9 9 -19 16 -22 9 -3 13 2 10 14 -1 9 -9 19 -16 22 -9
3 -13 -2 -10 -14z"/>
<path d="M8050 1590 c0 -5 5 -10 11 -10 5 0 7 5 4 10 -3 6 -8 10 -11 10 -2 0
-4 -4 -4 -10z"/>
<path d="M8000 1576 c0 -2 7 -6 15 -10 8 -3 15 -1 15 4 0 6 -7 10 -15 10 -8 0
-15 -2 -15 -4z"/>
<path d="M607 1813 c-11 -10 -8 -53 3 -53 6 0 10 6 10 14 0 8 7 16 15 20 8 3
15 10 15 16 0 11 -33 14 -43 3z"/>
<path d="M6300 1175 c0 -19 5 -25 17 -23 10 2 19 -5 21 -15 3 -16 0 -18 -20
-12 -18 6 -20 4 -12 -5 17 -18 49 -8 52 16 2 13 -5 24 -20 32 l-23 11 23 0
c31 1 18 21 -14 21 -19 0 -24 -5 -24 -25z"/>
<path d="M6530 440 c0 -5 5 -10 10 -10 6 0 10 5 10 10 0 6 -4 10 -10 10 -5 0
-10 -4 -10 -10z"/>
<path d="M5052 4130 c0 -14 2 -19 5 -12 2 6 2 18 0 25 -3 6 -5 1 -5 -13z"/>
<path d="M5060 4090 c0 -5 5 -10 11 -10 5 0 7 5 4 10 -3 6 -8 10 -11 10 -2 0
-4 -4 -4 -10z"/>
<path d="M5071 4065 c1 -19 18 -51 18 -35 0 8 -4 22 -9 30 -5 8 -9 11 -9 5z"/>
<path d="M9548 2873 c-17 -4 -16 -7 2 -44 24 -47 50 -52 50 -10 0 56 -9 65
-52 54z"/>
<path d="M9591 2504 c0 -11 3 -14 6 -6 3 7 2 16 -1 19 -3 4 -6 -2 -5 -13z"/>
<path d="M2610 1601 c0 -5 7 -15 17 -22 15 -13 15 -12 4 9 -12 23 -21 28 -21
13z"/>
<path d="M1916 1173 c4 -15 20 -54 35 -85 16 -32 29 -62 29 -68 0 -5 13 -38
30 -72 29 -60 90 -238 90 -264 0 -7 -15 -18 -34 -24 -19 -6 -37 -18 -40 -26
-5 -12 -1 -14 16 -8 20 6 21 5 9 -10 -10 -12 -17 -14 -27 -5 -8 6 -14 18 -14
25 0 8 -4 14 -8 14 -5 0 -25 31 -45 69 -19 38 -37 67 -40 64 -7 -6 -49 77 -98
192 -21 50 -39 80 -39 69 0 -38 57 -183 109 -277 28 -50 51 -96 51 -103 0 -7
4 -15 9 -18 16 -11 19 -45 4 -50 -10 -4 -13 -2 -10 8 4 10 0 14 -14 13 -10 -1
-19 -4 -19 -7 0 -3 -9 -6 -20 -6 -11 0 -20 4 -20 8 0 4 -8 5 -17 1 -10 -3 -15
-3 -11 1 3 4 -2 16 -12 26 -10 10 -22 26 -28 36 -6 10 -14 16 -17 12 -4 -4 0
-14 9 -23 17 -18 21 -35 7 -35 -4 0 -29 22 -55 50 -25 27 -46 45 -46 40 0 -15
113 -121 124 -117 6 2 20 -6 31 -17 12 -12 37 -35 57 -52 32 -28 37 -39 43
-95 6 -47 10 -59 16 -44 4 11 8 34 8 52 1 20 10 41 24 54 19 19 20 20 2 12
-22 -11 -43 -7 -62 13 -17 17 -16 24 5 40 27 21 49 17 72 -13 25 -32 35 -29
32 7 -4 38 29 64 72 57 l34 -5 -9 31 c-13 45 -11 78 5 109 12 22 12 26 1 21
-8 -2 -16 -12 -19 -21 -3 -10 -4 -2 -2 15 2 27 0 30 -11 21 -8 -6 -13 -7 -12
-2 1 5 0 23 -1 39 -2 29 -2 29 -9 5 -4 -14 -10 -20 -14 -14 -14 24 -67 170
-67 186 0 10 -4 18 -8 18 -10 0 -42 65 -42 85 0 8 -8 24 -17 35 -10 11 -18 28
-18 37 0 9 -6 18 -13 21 -9 3 -11 -3 -6 -25z m-86 -553 c0 -5 -4 -10 -10 -10
-5 0 -10 5 -10 10 0 6 5 10 10 10 6 0 10 -4 10 -10z"/>
<path d="M7420 1180 c20 -13 33 -13 25 0 -3 6 -14 10 -23 10 -15 0 -15 -2 -2
-10z"/>
<path d="M2101 1163 c0 -7 -10 -13 -20 -13 -19 0 -39 -35 -27 -48 4 -3 9 4 13
16 6 25 18 29 27 7 3 -10 17 -14 40 -13 26 2 32 6 24 16 -6 6 -19 12 -28 12
-10 0 -21 8 -23 18 -3 9 -5 11 -6 5z"/>
<path d="M2660 1129 c0 -5 5 -7 10 -4 6 3 10 8 10 11 0 2 -4 4 -10 4 -5 0 -10
-5 -10 -11z"/>
<path d="M1750 1110 c0 -8 5 -22 10 -30 9 -13 10 -13 10 0 0 8 -5 22 -10 30
-9 13 -10 13 -10 0z"/>
<path d="M7191 1070 c-1 -8 4 -31 10 -50 5 -19 16 -78 24 -130 l15 -95 -6 75
c-4 68 -41 236 -43 200z"/>
<path d="M344 972 c5 -13 0 -22 -16 -29 -14 -6 -18 -12 -11 -16 6 -4 18 0 27
9 10 9 24 13 36 9 12 -4 20 -2 20 5 0 6 -4 9 -9 5 -5 -3 -13 0 -16 5 -5 8 5 9
32 4 35 -6 37 -6 24 9 -8 11 -28 17 -53 17 -34 0 -39 -3 -34 -18z"/>
<path d="M60 970 c0 -5 5 -10 10 -10 6 0 10 5 10 10 0 6 -4 10 -10 10 -5 0
-10 -4 -10 -10z"/>
<path d="M447 950 c-18 -17 -26 -30 -18 -30 8 0 19 8 26 17 10 13 16 15 26 6
11 -9 19 -8 32 2 10 7 15 15 10 17 -31 18 -46 15 -76 -12z"/>
<path d="M2064 926 c30 -73 44 -87 17 -17 -11 30 -25 59 -30 64 -6 6 0 -16 13
-47z"/>
<path d="M1605 943 c4 -10 10 -26 12 -35 3 -10 10 -18 15 -18 6 0 8 7 5 15 -4
8 -1 17 5 21 7 5 5 12 -7 21 -26 18 -39 16 -30 -4z"/>
<path d="M224 909 c-2 -4 0 -10 6 -14 11 -7 30 2 30 14 0 10 -29 10 -36 0z"/>
<path d="M502 896 c15 -8 38 -15 50 -16 75 -6 55 15 -22 24 -52 5 -53 5 -28
-8z"/>
<path d="M1870 904 c0 -13 18 -39 24 -34 2 3 -2 14 -10 24 -8 11 -14 16 -14
10z"/>
<path d="M386 891 c-6 -9 72 -6 82 3 3 3 -13 6 -36 6 -22 0 -43 -4 -46 -9z"/>
<path d="M716 886 c4 -10 18 -16 36 -16 16 0 42 -7 59 -15 21 -11 34 -13 48
-6 10 6 21 8 25 6 3 -3 4 -2 1 2 -3 3 -17 7 -32 9 -46 4 -118 20 -131 28 -8 5
-10 2 -6 -8z"/>
<path d="M608 878 c-4 -9 7 -13 38 -14 24 -1 44 2 44 7 0 5 -11 9 -24 9 -13 0
-31 3 -39 6 -8 3 -17 -1 -19 -8z"/>
<path d="M1635 852 c3 -19 17 -52 31 -75 14 -23 23 -34 20 -24 -3 10 -6 30 -6
43 0 13 -6 24 -14 24 -7 0 -18 15 -24 33 l-12 32 5 -33z"/>
<path d="M240 860 c0 -5 5 -10 10 -10 6 0 10 5 10 10 0 6 -4 10 -10 10 -5 0
-10 -4 -10 -10z"/>
<path d="M1700 865 c0 -5 5 -17 10 -25 5 -8 10 -10 10 -5 0 6 -5 17 -10 25 -5
8 -10 11 -10 5z"/>
<path d="M130 840 c-13 -8 -12 -10 3 -10 9 0 17 5 17 10 0 12 -1 12 -20 0z"/>
<path d="M6731 831 c-6 -11 -11 -28 -11 -39 0 -11 -7 -22 -15 -26 -19 -7 -20
-36 -2 -36 15 0 33 30 46 77 11 37 -2 54 -18 24z"/>
<path d="M272 805 c1 -14 6 -25 10 -25 4 0 8 11 8 25 0 14 -4 25 -10 25 -5 0
-9 -11 -8 -25z"/>
<path d="M1731 814 c0 -11 3 -14 6 -6 3 7 2 16 -1 19 -3 4 -6 -2 -5 -13z"/>
<path d="M450 815 c0 -8 61 -36 70 -33 5 2 -9 11 -30 20 -22 9 -40 15 -40 13z"/>
<path d="M957 813 c-14 -13 -6 -21 16 -16 16 3 18 2 8 -5 -20 -14 4 -25 29
-12 18 10 24 7 21 -12 0 -5 4 -8 9 -8 6 0 10 6 10 14 0 8 6 16 13 19 6 3 -3 5
-21 4 -18 0 -38 5 -44 11 -13 13 -31 15 -41 5z"/>
<path d="M1100 810 c0 -5 4 -10 9 -10 6 0 13 5 16 10 3 6 -1 10 -9 10 -9 0
-16 -4 -16 -10z"/>
<path d="M1700 815 c0 -12 48 -85 56 -85 3 0 -3 12 -14 28 -10 15 -24 36 -30
47 -6 11 -12 15 -12 10z"/>
<path d="M56 795 c-3 -8 -1 -15 4 -15 6 0 10 7 10 15 0 8 -2 15 -4 15 -2 0 -6
-7 -10 -15z"/>
<path d="M120 800 c-13 -8 -12 -10 3 -10 9 0 17 5 17 10 0 12 -1 12 -20 0z"/>
<path d="M402 788 c2 -6 10 -14 16 -16 7 -2 10 2 6 12 -7 18 -28 22 -22 4z"/>
<path d="M316 775 c4 -8 10 -15 14 -15 4 0 10 7 14 15 4 10 -1 15 -14 15 -13
0 -18 -5 -14 -15z"/>
<path d="M7242 770 c0 -14 2 -19 5 -12 2 6 2 18 0 25 -3 6 -5 1 -5 -13z"/>
<path d="M8040 781 c0 -6 5 -13 10 -16 6 -4 8 -11 4 -16 -8 -14 15 -39 35 -38
10 0 11 2 4 6 -7 2 -13 12 -13 21 -1 28 -40 70 -40 43z"/>
<path d="M8090 775 c0 -8 4 -15 9 -15 5 0 14 7 21 15 10 13 9 15 -9 15 -12 0
-21 -6 -21 -15z"/>
<path d="M7885 760 c3 -5 8 -10 11 -10 2 0 4 5 4 10 0 6 -5 10 -11 10 -5 0 -7
-4 -4 -10z"/>
<path d="M0 574 l0 -126 28 7 c38 9 44 17 49 69 5 45 6 46 20 26 13 -19 22
-21 63 -15 30 4 50 3 55 -4 3 -6 15 -11 26 -11 11 0 31 -12 45 -27 13 -14 26
-24 28 -22 11 11 9 89 -3 103 -11 13 -11 16 1 16 10 0 19 16 25 43 9 36 11 38
11 12 0 -16 -3 -68 -8 -115 -4 -47 -5 -88 -1 -93 4 -4 23 0 42 10 19 9 61 19
94 21 92 5 107 10 100 31 -13 43 56 34 72 -9 8 -22 15 -28 32 -23 17 4 21 13
21 44 0 36 -7 44 -32 40 -5 0 -8 7 -8 17 0 23 40 72 41 51 0 -8 7 0 14 16 l14
30 0 -40 c0 -22 -4 -73 -8 -113 -4 -40 -4 -75 1 -78 4 -2 26 4 50 15 24 11 54
21 67 23 19 2 27 11 33 36 7 25 15 34 38 39 36 7 39 18 8 28 l-23 7 25 7 c24
8 23 8 -10 13 -19 3 -4 5 35 5 39 0 58 -2 43 -4 -35 -5 -40 -43 -7 -43 12 0
34 -11 51 -25 30 -25 58 -33 58 -16 0 6 -5 13 -10 16 -6 4 -8 11 -5 16 3 5 -1
6 -9 3 -11 -4 -16 0 -16 10 0 9 0 19 0 24 0 7 4 8 35 11 9 0 15 11 15 25 0 14
5 28 11 31 7 5 9 -4 5 -27 -10 -62 -18 -208 -11 -208 22 0 65 33 65 50 0 19
14 25 53 22 9 -1 17 3 17 9 0 6 6 9 14 6 8 -3 27 -2 43 3 l28 8 -27 1 c-16 1
-28 5 -28 11 0 5 3 9 8 8 4 -1 18 2 31 6 14 5 26 4 30 -2 3 -6 25 -12 49 -14
23 -2 41 -7 40 -11 -2 -5 5 -13 15 -18 9 -6 17 -17 17 -26 0 -12 7 -14 30 -10
21 5 29 3 27 -6 -1 -6 6 -11 16 -9 10 2 17 -3 17 -13 0 -8 6 -25 12 -36 11
-17 11 -23 1 -26 -21 -7 -15 -23 8 -23 18 0 19 -2 9 -15 -9 -11 -9 -15 -1 -15
7 0 10 -4 6 -9 -3 -5 -1 -12 4 -15 5 -4 11 -1 14 6 2 8 4 8 3 -2 -1 -8 -12
-17 -26 -21 -24 -7 -24 -8 -4 -14 11 -4 28 -23 36 -43 16 -36 31 -93 28 -101
-1 -2 4 -7 10 -11 7 -4 13 -24 13 -44 2 -29 8 -41 29 -54 15 -9 30 -14 33 -11
6 7 -47 279 -86 432 -16 65 -39 133 -51 151 -26 39 -72 73 -119 86 -18 6 -202
12 -409 15 -206 3 -529 7 -717 10 l-343 5 0 -126z m525 36 c3 -5 -1 -10 -10
-10 -9 0 -13 5 -10 10 3 6 8 10 10 10 2 0 7 -4 10 -10z m-375 -31 c0 -5 -11
-9 -25 -9 -26 0 -34 15 -12 23 16 5 37 -3 37 -14z m348 2 c11 -7 11 -9 -1 -14
-16 -6 -27 0 -27 15 0 10 11 10 28 -1z m850 -18 c-10 -2 -26 -2 -35 0 -10 3
-2 5 17 5 19 0 27 -2 18 -5z m49 1 c-3 -3 -12 -4 -19 -1 -8 3 -5 6 6 6 11 1
17 -2 13 -5z m-1257 -14 c0 -5 -7 -7 -15 -4 -8 4 -15 8 -15 10 0 2 7 4 15 4 8
0 15 -4 15 -10z m1297 -6 c-3 -3 -12 -4 -19 -1 -8 3 -5 6 6 6 11 1 17 -2 13
-5z m-763 -53 c-7 -9 -24 13 -24 32 0 21 1 21 13 -3 8 -14 12 -27 11 -29z
m-114 -1 c0 -5 -5 -10 -11 -10 -5 0 -7 5 -4 10 3 6 8 10 11 10 2 0 4 -4 4 -10z"/>
<path d="M2058 683 c7 -3 16 -2 19 1 4 3 -2 6 -13 5 -11 0 -14 -3 -6 -6z"/>
<path d="M8112 674 c-11 -12 -11 -17 2 -29 8 -8 20 -15 26 -15 6 0 8 -4 5 -10
-3 -5 -1 -10 4 -10 14 0 14 4 -3 45 -17 40 -16 39 -34 19z"/>
<path d="M7901 644 c0 -11 3 -14 6 -6 3 7 2 16 -1 19 -3 4 -6 -2 -5 -13z"/>
<path d="M7128 564 c-10 -16 1 -66 24 -113 16 -32 23 -65 24 -112 0 -36 4 -71
7 -76 4 -6 11 -41 16 -78 14 -95 24 -95 16 0 -4 43 -8 97 -7 120 0 41 -10 81
-51 199 -13 38 -26 65 -29 60z"/>
<path d="M7275 526 c3 -22 12 -81 19 -131 7 -49 9 -92 4 -93 -5 -2 -4 -10 3
-18 6 -7 9 -19 7 -26 -3 -7 -2 -22 3 -33 7 -17 8 -17 8 7 l1 27 478 3 c262 2
564 2 671 1 l194 -3 28 -26 c15 -14 29 -36 32 -47 3 -12 12 -43 20 -70 8 -26
12 -47 8 -47 -4 0 -13 21 -19 47 -7 26 -20 62 -29 80 -12 27 -18 31 -29 22 -8
-6 -14 -19 -15 -28 0 -9 -3 -11 -5 -4 -3 7 -1 21 5 31 8 15 7 21 -4 26 -8 3
-17 1 -20 -4 -3 -4 -1 -10 5 -12 7 -2 7 -14 1 -36 -7 -22 -6 -32 1 -32 6 0 9
-3 5 -6 -3 -3 -1 -18 5 -33 5 -14 12 -37 14 -51 13 -75 5 -70 109 -70 56 0 95
4 95 10 0 17 -61 203 -77 233 -29 58 -20 57 -775 58 -381 1 -682 5 -668 9 l25
8 -27 1 c-16 1 -28 6 -28 11 0 6 14 9 30 8 17 -1 30 -8 30 -15 0 -7 5 -13 11
-13 6 0 8 9 4 21 -5 15 -4 19 4 15 6 -4 11 -14 11 -22 0 -8 8 -14 18 -14 15 0
15 2 2 11 -12 9 -11 9 5 4 11 -4 29 -8 40 -9 19 -1 20 4 16 114 -3 118 4 146
14 49 8 -71 14 -89 30 -89 8 0 11 7 8 20 -4 15 0 20 14 20 10 0 23 -4 29 -10
11 -11 49 -14 82 -7 13 4 22 1 23 -6 1 -22 18 27 19 58 3 38 7 18 15 -67 6
-61 8 -67 33 -74 66 -18 62 -25 64 104 0 64 3 101 5 82 3 -19 9 -39 15 -45 7
-7 9 -6 5 1 -6 11 32 19 143 30 35 3 40 2 23 -6 -13 -5 -23 -18 -23 -30 0 -11
0 -23 -1 -27 0 -4 4 -9 10 -11 6 -2 11 5 11 15 0 14 2 15 9 4 14 -21 39 -6 43
26 2 15 7 -9 11 -54 l8 -82 36 -10 c20 -6 40 -8 44 -5 5 3 6 55 4 117 -2 62
-2 103 1 92 8 -26 24 -36 47 -29 9 3 17 0 17 -6 0 -6 4 -8 10 -5 13 8 80 -5
77 -15 -1 -5 7 -16 18 -24 14 -11 16 -15 6 -16 -11 0 -10 -5 4 -20 10 -11 15
-20 10 -20 -4 0 -2 -7 5 -15 7 -8 20 -15 29 -15 14 0 18 11 20 52 3 79 11 72
11 -10 0 -78 0 -78 69 -85 l24 -2 -2 115 c-2 63 0 112 3 109 3 -3 7 -19 7 -35
2 -47 9 -64 26 -64 8 0 13 6 10 13 -4 10 6 12 47 6 28 -3 55 -4 60 -1 5 3 6
-1 1 -8 -6 -9 0 -11 24 -5 20 4 31 3 31 -4 0 -6 6 -11 13 -11 8 0 22 -9 32
-20 18 -20 18 -21 -4 -27 -30 -8 -23 -39 8 -35 18 1 21 -2 16 -17 -5 -16 17
-46 34 -46 3 0 5 -13 3 -28 -2 -16 1 -34 6 -40 6 -7 13 -25 16 -42 9 -55 18
-75 29 -68 6 4 8 0 4 -9 -4 -11 2 -18 16 -23 19 -6 20 -8 5 -12 -31 -8 -12
-55 25 -61 15 -3 17 2 11 40 -4 24 -10 48 -14 53 -5 6 -11 28 -15 50 -10 61
10 24 36 -67 l23 -79 95 3 c87 3 96 5 98 23 l3 20 -9 -20 c-7 -17 -10 -13 -21
25 -24 90 -113 346 -136 393 -30 58 -91 104 -147 111 -23 3 -388 7 -810 9
l-768 4 6 -41z m405 -76 c0 -5 -7 -10 -15 -10 -8 0 -15 5 -15 10 0 6 7 10 15
10 8 0 15 -4 15 -10z m1211 -202 c5 -22 8 -43 5 -46 -3 -3 -6 2 -6 12 0 9 -4
15 -9 12 -4 -3 -6 6 -3 19 2 14 0 25 -6 25 -5 0 -12 9 -15 21 -4 16 -3 18 9 8
7 -6 19 -29 25 -51z m-24 -80 c-3 -8 -6 -5 -6 6 -1 11 2 17 5 13 3 -3 4 -12 1
-19z m-100 -150 c-3 -8 -6 -5 -6 6 -1 11 2 17 5 13 3 -3 4 -12 1 -19z"/>
<path d="M2123 519 c-13 -5 -23 -10 -23 -13 0 -8 50 0 51 8 1 13 -5 14 -28 5z"/>
<path d="M6796 478 c-8 -78 -6 -358 4 -398 7 -30 8 -24 10 40 2 87 17 62 19
-32 1 -60 8 -88 22 -88 10 0 5 87 -20 390 -6 69 -11 128 -11 133 0 4 -4 7 -9
7 -5 0 -11 -24 -15 -52z"/>
<path d="M9472 503 c-18 -9 -38 -25 -44 -36 -14 -27 -3 -240 17 -322 8 -33 14
-79 15 -102 l0 -43 70 0 70 0 0 260 0 260 -47 0 c-27 0 -63 -8 -81 -17z"/>
<path d="M6977 455 c-4 -8 -3 -53 0 -99 5 -67 10 -90 26 -107 17 -18 23 -44
30 -136 6 -62 14 -113 19 -113 13 0 7 172 -8 269 -7 42 -10 79 -7 84 2 4 -1 7
-6 7 -6 0 -11 7 -11 16 0 26 -22 94 -31 94 -4 0 -9 -7 -12 -15z"/>
<path d="M1175 440 c-3 -5 -1 -10 4 -10 6 0 11 5 11 10 0 6 -2 10 -4 10 -3 0
-8 -4 -11 -10z"/>
<path d="M1339 433 c-13 -3 -10 -11 17 -37 21 -20 40 -53 49 -82 20 -71 47
-223 41 -237 -2 -7 -5 2 -6 18 l-2 30 -7 -30 c-4 -16 -3 -45 3 -62 8 -30 13
-33 49 -33 l40 0 -8 53 c-5 28 -8 70 -8 92 1 26 -2 33 -6 21 -5 -12 -12 12
-20 65 -14 87 -35 155 -55 177 -15 15 -65 30 -87 25z m118 -410 c-3 -10 -5 -5
-5 12 0 17 2 24 5 18 2 -7 2 -21 0 -30z"/>
<path d="M8682 421 c4 -13 18 -16 19 -4 0 4 -5 9 -11 12 -7 2 -11 -2 -8 -8z"/>
<path d="M0 400 c0 -24 -7 -24 812 -25 430 0 544 3 536 12 -5 7 -24 15 -42 17
-17 3 -318 8 -668 11 -637 6 -638 6 -638 -15z"/>
<path d="M8717 407 c-4 -10 2 -13 20 -9 18 3 21 7 11 13 -18 12 -25 11 -31 -4z"/>
<path d="M7156 365 c8 -37 14 -45 14 -19 0 10 -5 26 -10 34 -8 11 -9 7 -4 -15z"/>
<path d="M1471 354 c0 -11 3 -14 6 -6 3 7 2 16 -1 19 -3 4 -6 -2 -5 -13z"/>
<path d="M6725 350 c3 -5 8 -10 11 -10 2 0 4 5 4 10 0 6 -5 10 -11 10 -5 0 -7
-4 -4 -10z"/>
<path d="M7100 352 c0 -7 7 -20 15 -28 19 -20 20 -4 0 22 -9 12 -14 14 -15 6z"/>
<path d="M1372 300 c0 -14 2 -19 5 -12 2 6 2 18 0 25 -3 6 -5 1 -5 -13z"/>
<path d="M1491 310 c0 -8 4 -22 9 -30 12 -18 12 -2 0 25 -6 13 -9 15 -9 5z"/>
<path d="M7558 313 c7 -3 16 -2 19 1 4 3 -2 6 -13 5 -11 0 -14 -3 -6 -6z"/>
<path d="M7618 313 c12 -2 32 -2 45 0 12 2 2 4 -23 4 -25 0 -35 -2 -22 -4z"/>
<path d="M7958 313 c12 -2 32 -2 45 0 12 2 2 4 -23 4 -25 0 -35 -2 -22 -4z"/>
<path d="M8258 313 c23 -2 59 -2 80 0 20 2 1 4 -43 4 -44 0 -61 -2 -37 -4z"/>
<path d="M1392 280 c0 -19 2 -27 5 -17 2 9 2 25 0 35 -3 9 -5 1 -5 -18z"/>
<path d="M6850 286 c0 -14 5 -28 10 -31 6 -4 10 7 10 24 0 17 -4 31 -10 31 -5
0 -10 -11 -10 -24z"/>
<path d="M7298 175 c2 -14 6 -25 8 -25 2 0 4 11 4 25 0 14 -4 25 -9 25 -4 0
-6 -11 -3 -25z"/>
</g>
</svg>
