<?xml version="1.0" standalone="no"?>
<!DOCTYPE svg PUBLIC "-//W3C//DTD SVG 20010904//EN"
 "http://www.w3.org/TR/2001/REC-SVG-20010904/DTD/svg10.dtd">
<svg version="1.0" xmlns="http://www.w3.org/2000/svg"
 width="549.000000pt" height="534.000000pt" viewBox="0 0 549.000000 534.000000"
 preserveAspectRatio="xMidYMid meet">

<g transform="translate(0.000000,534.000000) scale(0.100000,-0.100000)"
fill="#000000" stroke="none">
<path d="M2705 3650 c-3 -6 1 -7 9 -4 18 7 21 14 7 14 -6 0 -13 -4 -16 -10z"/>
<path d="M2732 3614 c-6 -10 -12 -13 -16 -6 -8 13 -45 4 -75 -20 -34 -26 -52
-23 -47 7 6 31 -18 33 -72 8 -51 -23 -88 -66 -124 -143 -41 -89 -58 -173 -61
-290 -2 -86 -4 -100 -19 -100 -58 0 -63 -39 -15 -131 72 -137 93 -159 124
-128 7 7 13 -6 18 -48 4 -32 18 -84 31 -115 30 -71 31 -108 5 -108 -11 0 -31
-13 -44 -30 -21 -24 -36 -31 -84 -36 -64 -7 -88 -23 -108 -71 -8 -18 -21 -33
-29 -33 -9 0 -22 -13 -31 -30 -8 -16 -29 -37 -45 -45 -29 -15 -44 -52 -16 -42
10 4 11 1 3 -16 -8 -18 -17 -21 -52 -19 -27 3 -65 -5 -106 -20 -104 -40 -129
-47 -129 -37 0 5 -5 9 -10 9 -6 0 -10 -8 -8 -17 2 -11 -11 -25 -37 -39 -39
-21 -45 -22 -230 -14 -104 5 -309 12 -455 16 -146 3 -274 10 -285 14 -11 4
-33 3 -49 -1 -35 -10 -74 5 -41 17 97 33 118 59 72 88 -31 20 -185 66 -246 73
-39 4 -49 9 -41 18 7 9 6 16 -5 25 -12 10 -15 9 -15 -4 0 -15 -8 -17 -58 -11
-141 15 -192 27 -192 43 0 12 -3 13 -12 4 -15 -15 -32 -16 -23 -2 3 6 2 10 -4
10 -5 0 -12 -4 -16 -9 -3 -5 -18 -8 -33 -6 -15 1 -55 6 -89 10 l-63 7 0 -70
c0 -76 4 -82 63 -82 48 0 58 -11 48 -48 -6 -18 -10 -36 -11 -40 -1 -9 -60 -8
-82 2 -16 7 -17 -22 -15 -441 l2 -448 35 1 c21 0 43 -7 54 -18 23 -21 22 -21
-59 -19 -32 0 -36 -1 -20 -9 11 -5 37 -9 58 -9 39 -1 45 -9 25 -29 -9 -9 -8
-12 8 -13 15 -1 14 -3 -6 -9 -21 -7 -19 -8 14 -7 24 1 41 8 44 16 3 10 0 12
-12 8 -9 -4 -16 -2 -16 2 0 9 24 21 42 21 6 0 8 -7 5 -14 -8 -19 22 -78 34
-70 6 3 8 13 5 21 -3 8 1 24 9 36 13 18 15 19 15 4 0 -13 9 -17 40 -17 22 0
40 -4 40 -10 0 -5 -12 -10 -26 -10 -14 0 -23 -4 -20 -9 3 -5 15 -7 26 -4 11 3
20 1 20 -4 0 -13 113 -3 121 10 4 5 50 12 103 15 84 4 96 3 96 -12 0 -9 5 -16
11 -16 5 0 7 5 3 11 -5 9 3 10 29 5 34 -6 61 7 35 17 -7 3 4 6 24 6 20 1 39 5
42 9 15 25 -29 38 -158 47 -56 5 -92 15 -49 15 11 0 26 6 32 14 8 10 33 13 84
12 39 -1 103 4 140 11 38 7 143 12 233 12 91 1 170 4 176 7 5 4 28 1 49 -6 31
-11 41 -11 54 0 12 10 15 10 15 -4 0 -9 8 -16 18 -17 9 0 24 -2 34 -4 9 -2 19
6 23 19 l8 21 4 -21 c2 -12 -2 -37 -9 -55 -14 -36 -10 -124 5 -101 13 20 27
14 27 -12 0 -14 5 -28 10 -31 6 -3 10 -13 10 -21 0 -11 -6 -13 -20 -9 -25 8
-28 -22 -3 -40 19 -14 9 -37 -12 -28 -8 3 -15 0 -15 -6 0 -6 -4 -11 -10 -11
-5 0 -10 11 -10 25 0 15 -6 25 -14 25 -10 0 -13 8 -10 25 3 18 -1 27 -13 32
-10 4 -22 12 -26 20 -4 7 -19 13 -33 13 -13 0 -27 6 -30 13 -8 21 -76 7 -80
-16 -3 -20 7 -22 23 -6 7 7 28 9 56 5 37 -6 43 -10 42 -29 -1 -14 -9 -23 -23
-25 -29 -4 -18 -22 13 -22 37 0 55 -10 55 -32 0 -16 -6 -19 -32 -16 -20 2 -32
8 -30 16 1 8 -15 12 -55 12 -50 1 -61 4 -76 25 -15 21 -15 25 -3 25 8 0 21 -9
30 -21 10 -15 20 -19 35 -14 25 8 26 18 5 39 -12 12 -28 15 -72 10 -31 -3 -74
-6 -96 -5 -32 1 -36 -2 -26 -13 16 -21 90 -58 90 -46 0 6 7 10 15 10 8 0 15
-6 15 -12 0 -7 12 -19 28 -26 23 -10 29 -10 38 3 12 16 49 22 40 6 -4 -5 0
-12 6 -14 7 -3 4 -6 -7 -7 -16 -1 -14 -3 7 -10 15 -4 43 -6 63 -3 45 6 92 -12
101 -39 10 -32 -5 -87 -27 -98 -29 -16 -46 -1 -21 19 43 34 36 80 -14 84 -27
2 -29 0 -31 -38 -1 -22 1 -32 4 -23 5 21 23 24 23 6 0 -7 -4 -19 -9 -27 -8
-12 -13 -12 -24 -3 -12 10 -16 8 -21 -10 -9 -37 -7 -48 11 -48 9 0 32 -5 50
-12 28 -10 33 -16 28 -33 -3 -11 -8 -35 -12 -53 -8 -47 -25 -39 -21 11 2 32
-1 42 -12 42 -8 0 -16 -9 -18 -20 -2 -11 -9 -24 -14 -30 -7 -7 -8 2 -4 28 5
25 4 37 -3 33 -5 -3 -12 2 -15 11 -3 10 -3 -2 -1 -27 3 -29 2 -38 -3 -26 -8
19 -9 18 -16 -5 -3 -13 -13 -55 -21 -93 -9 -38 -26 -107 -40 -153 -13 -46 -32
-133 -41 -192 -14 -91 -14 -119 -4 -179 l12 -72 288 0 c247 0 289 2 294 15 3
8 4 21 1 28 -2 6 -6 29 -8 50 -3 21 -13 47 -22 57 -12 13 -15 27 -10 50 4 18
2 36 -4 44 -23 27 39 226 70 226 9 0 6 -34 -12 -162 -10 -76 -12 -215 -3 -270
l7 -38 901 0 902 0 -7 75 c-8 78 -36 193 -70 280 -10 28 -19 58 -19 67 0 9 -9
32 -20 50 -19 33 -60 152 -60 177 0 16 72 130 82 130 15 2 39 -61 50 -127 6
-37 10 -119 9 -181 -2 -120 7 -164 40 -191 16 -13 20 -36 25 -147 l7 -133 215
0 215 0 -6 40 c-3 23 -1 38 4 34 5 -3 9 2 9 10 0 9 -3 16 -7 16 -11 0 -33 50
-33 72 0 12 8 18 24 18 34 0 45 19 52 84 5 61 -8 75 -22 24 -5 -17 -15 -33
-23 -36 -10 -3 -11 0 -2 16 6 11 11 34 11 51 0 26 4 31 25 31 26 0 35 25 16
46 -5 5 -11 33 -14 62 -6 50 -5 52 18 52 20 0 25 5 25 25 0 20 -5 25 -25 25
-45 0 -61 76 -26 122 13 15 18 33 14 46 -6 25 -14 27 -31 10 -22 -22 -24 1 -2
30 24 33 20 52 -11 52 -10 0 -19 7 -19 15 0 8 6 15 14 15 8 0 18 5 21 10 9 15
-5 51 -16 44 -6 -3 -19 2 -30 12 -24 21 -26 95 -4 114 22 18 18 39 -9 49 -13
5 -26 17 -30 26 -8 21 -8 69 0 89 11 28 22 7 18 -32 -3 -27 1 -43 16 -61 17
-20 30 -24 88 -26 37 -1 83 -6 102 -13 19 -6 103 -13 185 -16 169 -7 275 -16
275 -24 0 -3 -9 -16 -21 -28 -17 -18 -25 -20 -48 -11 -18 7 -46 7 -86 0 l-60
-10 76 -2 c41 0 80 -6 86 -12 13 -13 74 36 67 55 -4 11 5 13 43 8 26 -2 50 -9
51 -13 2 -5 13 -9 25 -9 16 0 18 3 9 9 -10 6 -8 10 10 13 12 3 31 9 41 13 12
5 17 3 17 -8 0 -22 20 -26 90 -18 55 7 60 6 44 -6 -17 -12 -9 -13 57 -7 63 5
81 3 110 -12 28 -16 57 -19 162 -20 l127 0 0 263 c0 145 -2 263 -5 263 -2 0
-28 -9 -56 -20 -28 -12 -56 -19 -61 -18 -6 2 16 26 48 53 85 71 90 81 47 87
l-28 4 28 12 c24 10 27 17 27 57 0 25 -2 45 -5 45 -8 0 -85 -52 -85 -57 0 -2
9 1 21 8 13 6 25 7 30 2 6 -6 -2 -15 -18 -24 -16 -8 -30 -16 -33 -19 -3 -3
-20 -10 -37 -17 -35 -12 -43 -4 -18 17 12 10 13 16 4 26 -9 11 -8 14 5 14 10
0 32 11 49 24 18 14 44 28 60 31 26 7 27 10 27 73 l0 65 -127 -6 c-70 -4 -175
-11 -233 -17 -242 -22 -465 -41 -615 -51 -88 -6 -203 -14 -255 -19 -52 -5
-122 -9 -155 -8 -115 1 127 27 455 48 91 6 221 17 290 25 107 12 558 45 619
45 20 0 21 5 21 120 l0 120 -41 0 c-45 0 -43 -4 -27 70 2 9 -7 16 -22 18 -17
2 -21 0 -12 -6 9 -6 11 -21 6 -50 -6 -39 -9 -42 -38 -43 -17 0 -25 -3 -18 -6
6 -2 9 -9 6 -14 -3 -6 -12 -5 -21 2 -12 10 -17 10 -25 -2 -7 -11 -11 -11 -15
-1 -2 6 -14 12 -27 12 -12 0 -28 11 -39 28 l-17 27 2 -40 3 -39 -90 -2 -90 -1
90 13 90 13 -105 -5 c-57 -3 -107 -10 -111 -16 -4 -7 -9 -7 -13 0 -7 12 -48 4
-58 -12 -6 -8 -11 -6 -19 4 -8 11 -12 12 -16 3 -2 -7 -21 -13 -41 -13 l-37 0
1 52 c1 44 0 45 -3 11 -4 -42 -5 -43 -41 -44 -20 -1 -49 -1 -64 0 -19 1 -28
-4 -28 -14 0 -8 -7 -15 -15 -15 -8 0 -15 6 -15 13 0 8 -4 7 -10 -3 -8 -12 -12
-13 -19 -2 -7 11 -19 12 -62 3 l-54 -10 55 4 c35 3 48 1 35 -4 -11 -4 -79 -11
-151 -15 -105 -6 -133 -4 -137 6 -4 10 -6 10 -6 1 -1 -7 -5 -13 -11 -13 -5 0
-10 20 -10 45 0 49 -23 65 -33 22 -2 -12 -8 -31 -13 -42 -7 -17 -6 -18 8 -8 8
7 18 10 21 6 17 -17 2 -23 -53 -23 -36 0 -60 4 -60 11 0 6 -7 3 -16 -5 -12
-12 -20 -13 -35 -6 -13 7 -19 7 -19 0 0 -5 -9 -10 -21 -10 -11 0 -17 5 -14 10
3 6 2 10 -4 10 -5 0 -11 -4 -13 -9 -1 -5 -58 -11 -126 -13 l-123 -5 -20 36
c-24 41 -110 114 -174 146 -23 12 -74 30 -111 40 -100 27 -163 87 -178 171
-13 70 -25 79 -118 92 -47 7 -99 9 -116 6 -32 -6 -32 -6 -32 33 0 29 7 46 24
63 26 24 56 97 56 137 0 18 5 23 28 23 20 0 32 9 46 33 46 78 76 150 76 182 0
32 -3 36 -31 42 -23 4 -28 10 -23 22 13 31 16 129 4 165 -6 20 -15 63 -20 96
-5 34 -17 80 -28 103 -11 23 -28 59 -37 80 -30 66 -77 87 -165 75 -13 -1 -25
2 -25 7 -1 29 -42 46 -142 59 -32 5 -44 2 -51 -10z m155 -56 c-3 -7 -5 -2 -5
12 0 14 2 19 5 13 2 -7 2 -19 0 -25z m-187 -8 c-8 -5 -22 -9 -30 -9 -10 0 -8
3 5 9 27 12 43 12 25 0z m163 -17 c-7 -2 -19 -2 -25 0 -7 3 -2 5 12 5 14 0 19
-2 13 -5z m297 -223 c0 -5 -4 -10 -10 -10 -5 0 -10 5 -10 10 0 6 5 10 10 10 6
0 10 -4 10 -10z m-15 -252 c-4 -35 -7 -75 -6 -90 1 -16 -3 -28 -8 -28 -4 0 -8
23 -7 51 1 27 -1 52 -5 54 -9 6 2 59 15 67 18 13 19 10 11 -54z m-28 -245 c-3
-10 -5 -2 -5 17 0 19 2 27 5 18 2 -10 2 -26 0 -35z m-87 -383 c0 -11 -2 -20
-4 -20 -2 0 -6 9 -9 20 -3 11 -1 20 4 20 5 0 9 -9 9 -20z m-850 -224 c-25 -13
-49 -22 -54 -19 -5 3 8 11 28 18 21 7 40 16 43 19 4 3 11 6 17 6 6 -1 -9 -12
-34 -24z m-1850 -26 c0 -16 -5 -30 -10 -30 -6 0 -9 12 -6 28 5 33 5 32 11 32
3 0 5 -13 5 -30z m70 -30 c0 -5 -9 -10 -20 -10 -11 0 -20 5 -20 10 0 6 9 10
20 10 11 0 20 -4 20 -10z m5060 -50 c0 -6 -23 -9 -52 -8 l-53 1 45 7 c25 4 48
8 53 8 4 1 7 -2 7 -8z m-5156 -56 c15 -39 8 -43 -63 -42 -51 1 -68 5 -64 14 3
8 -6 14 -24 17 -15 2 -1 4 32 5 37 0 53 -2 41 -7 -19 -7 -18 -8 3 -14 24 -6
51 11 51 32 0 17 17 13 24 -5z m1386 9 c-1 -5 -11 -20 -23 -34 -22 -26 -41
-36 -93 -45 -25 -5 -26 -3 -21 26 4 17 2 30 -3 30 -6 0 -10 -14 -10 -31 0 -24
-3 -30 -16 -25 -9 3 -20 6 -25 6 -5 0 -9 7 -9 16 0 9 -9 18 -20 21 -28 7 -25
17 8 29 32 12 212 18 212 7z m3017 1 c-3 -3 -12 -4 -19 -1 -8 3 -5 6 6 6 11 1
17 -2 13 -5z m-4031 -14 l134 0 0 -25 c0 -28 -21 -41 -47 -29 -10 4 -24 6 -31
5 -19 -3 -72 22 -72 34 0 5 -7 2 -15 -9 -12 -16 -31 -19 -160 -21 -141 -2
-147 -2 -155 19 -7 20 -4 21 89 26 53 3 102 5 109 3 8 -2 74 -3 148 -3z m761
-22 l-3 -33 -234 2 c-232 2 -235 2 -254 25 l-18 23 93 6 c52 3 167 6 256 7
l163 2 -3 -32z m-1410 -10 c-3 -7 -5 -2 -5 12 0 14 2 19 5 13 2 -7 2 -19 0
-25z m870 9 c-7 -11 -26 -22 -40 -24 -23 -3 -27 0 -27 21 0 22 4 25 40 24 39
0 40 -1 27 -21z m-802 -5 c-12 -12 -33 -10 -28 3 2 8 11 11 19 8 8 -3 12 -8 9
-11z m2772 -104 c-3 -8 -6 -5 -6 6 -1 11 2 17 5 13 3 -3 4 -12 1 -19z m1920
-35 c-37 -2 -66 -7 -63 -11 2 -4 -53 -8 -123 -9 -71 -1 -117 2 -106 7 11 4 65
8 119 9 55 1 102 3 104 6 3 3 35 4 71 3 l66 -2 -68 -3z m100 1 c-3 -3 -12 -4
-19 -1 -8 3 -5 6 6 6 11 1 17 -2 13 -5z m-630 -29 c2 -6 -66 -11 -184 -13
-104 -2 -192 -6 -197 -9 -5 -3 -7 0 -4 8 3 10 31 16 99 20 140 8 282 5 286 -6z
m-3953 -60 c3 -8 1 -15 -4 -15 -6 0 -10 7 -10 15 0 8 2 15 4 15 2 0 6 -7 10
-15z m5067 -5 c10 0 19 5 19 10 0 6 18 9 40 8 30 -2 39 -7 35 -17 -3 -8 0 -18
7 -22 7 -5 -6 -6 -29 -3 -34 4 -47 0 -63 -16 -29 -29 -48 -26 -42 6 l5 26 -54
-7 c-63 -9 -89 -24 -64 -38 10 -5 22 -4 33 5 13 9 12 7 -2 -10 -19 -22 -43
-31 -31 -12 9 14 -5 12 -39 -5 -17 -9 -47 -17 -69 -20 -22 -2 -44 -8 -50 -14
-19 -19 -28 -12 -25 20 3 34 10 39 71 59 44 14 61 5 33 -16 -14 -10 -16 -14
-5 -14 8 0 27 12 44 28 21 20 46 30 95 37 36 6 67 7 68 3 2 -4 12 -8 23 -8z
m-181 0 c0 -7 -14 -8 -37 -4 -52 9 -54 14 -5 14 23 0 42 -5 42 -10z m-105 -10
c-3 -5 -12 -7 -20 -3 -21 7 -19 13 6 13 11 0 18 -4 14 -10z m-395 -8 c0 -8
-53 -42 -66 -42 -4 0 3 11 16 25 23 24 50 33 50 17z m241 -5 c42 8 35 -4 -8
-16 -39 -11 -61 -2 -48 19 5 8 10 9 18 1 5 -5 23 -7 38 -4z m92 -7 c-3 -11 -9
-20 -13 -20 -5 0 -12 -9 -15 -20 -6 -20 -35 -28 -35 -10 0 6 5 10 12 10 6 0 9
3 5 6 -6 6 -111 -58 -121 -75 -13 -21 25 -11 58 15 31 25 96 41 96 24 0 -4
-25 -15 -55 -24 -30 -10 -53 -21 -52 -25 1 -3 -14 -22 -34 -42 -32 -30 -43
-35 -79 -33 -23 1 -57 -4 -76 -12 -39 -16 -44 -17 -44 -5 0 5 27 14 60 22 33
7 61 18 64 24 3 8 -5 10 -21 7 -18 -3 -24 -1 -19 7 4 6 14 11 21 11 8 0 30 14
48 30 19 17 37 30 41 30 3 0 28 16 55 35 26 19 56 35 65 35 9 0 19 7 22 15 9
22 23 18 17 -5z m-443 0 c0 -5 -13 -10 -29 -10 -16 0 -38 -3 -48 -6 -12 -5
-15 -4 -8 4 18 19 85 28 85 12z m254 -9 c-18 -11 -35 -24 -38 -30 -8 -13 -36
-15 -36 -3 0 5 10 14 23 20 18 9 14 10 -26 7 -41 -3 -47 -2 -36 11 8 9 32 14
78 14 l66 0 -31 -19z m-414 -10 c0 -4 -7 -8 -15 -8 -16 0 -20 9 -9 20 8 8 24
-1 24 -12z m-130 -1 c13 -9 13 -11 0 -20 -8 -6 -23 -8 -32 -6 -10 2 -21 0 -24
-5 -3 -5 2 -9 10 -9 9 0 16 -4 16 -10 0 -5 -11 -10 -24 -10 -19 0 -23 4 -19
20 6 23 -14 27 -41 7 -18 -13 -18 -14 0 -31 17 -18 17 -18 -3 -12 -13 4 -34
-1 -57 -15 -32 -19 -40 -20 -67 -9 -24 10 -39 10 -70 1 -22 -7 -37 -16 -34
-21 3 -4 20 -3 39 2 23 7 39 7 52 0 16 -9 14 -12 -21 -33 -21 -13 -33 -25 -26
-27 7 -2 20 2 29 10 26 22 113 68 128 68 8 0 14 -4 14 -10 0 -5 -6 -10 -13
-10 -18 0 -49 -34 -40 -43 3 -4 -11 -7 -31 -7 -27 0 -49 -9 -76 -30 -44 -35
-50 -36 -50 -12 0 9 -9 44 -19 77 -10 33 -17 63 -15 67 3 4 33 7 68 7 36 -1
76 6 92 13 16 8 37 13 47 11 11 -3 17 1 17 12 0 11 5 15 15 12 8 -4 17 -3 19
2 3 4 22 8 42 9 20 1 39 4 42 7 8 7 15 6 32 -5z m190 2 c0 -4 -18 -26 -40 -47
-22 -21 -40 -34 -40 -27 0 7 -6 12 -14 12 -8 0 -18 5 -22 11 -5 8 1 10 20 7
21 -4 30 0 43 23 16 26 53 41 53 21z m-3197 -17 c1 -5 -6 -11 -15 -13 -11 -2
-18 3 -18 13 0 17 30 18 33 0z m3081 -10 c-25 -19 -40 -19 -24 0 7 8 20 15 28
15 13 0 12 -3 -4 -15z m-1075 -12 c10 -17 10 -17 11 0 0 9 6 17 14 17 9 0 13
-8 9 -22 -4 -20 -3 -21 7 -5 15 23 30 22 30 -3 0 -13 5 -18 15 -14 10 4 15 0
15 -15 0 -25 -3 -26 -35 -5 -14 9 -40 16 -60 16 -30 0 -35 3 -35 24 0 28 15
31 29 7z m1246 8 c-6 -5 -21 -12 -34 -16 -21 -6 -22 -5 -10 8 8 9 23 16 34 17
11 0 15 -3 10 -9z m749 -12 c-10 -4 -26 -8 -34 -8 -12 0 -11 3 3 14 11 7 26
11 35 8 13 -6 13 -8 -4 -14z m-594 2 c0 -8 -56 -21 -94 -21 -27 0 -13 11 26
20 46 11 68 11 68 1z m-1459 -58 c-13 -9 -20 -8 -34 4 -22 20 -13 31 10 12 15
-12 16 -12 10 4 -11 29 4 42 17 15 10 -19 9 -25 -3 -35z m1517 45 c-3 -7 -20
-18 -39 -25 -26 -9 -33 -16 -31 -33 1 -17 -2 -21 -13 -16 -9 3 -14 2 -10 -3 3
-5 -8 -12 -25 -16 -16 -4 -32 -11 -35 -16 -4 -5 -15 -9 -26 -9 -10 0 -19 -4
-19 -10 0 -5 -7 -10 -15 -10 -8 0 -15 -7 -15 -16 0 -12 3 -14 13 -6 7 6 24 8
37 5 16 -4 27 -1 36 11 7 11 18 15 25 10 8 -4 10 -3 5 4 -4 7 -2 12 3 12 19 0
12 -27 -11 -42 -13 -8 -43 -18 -68 -22 -77 -11 -144 -37 -171 -66 -22 -24 -24
-29 -10 -38 12 -7 0 -10 -46 -9 -35 1 -63 5 -63 9 0 4 -24 5 -52 3 -41 -3 -46
-2 -23 4 25 7 18 17 -9 12 -4 -1 -15 6 -23 16 -8 10 -12 13 -8 6 7 -15 -25
-33 -61 -33 -27 0 -27 1 -8 15 18 14 16 14 -16 8 -19 -3 -44 -13 -55 -20 -20
-15 -19 -15 3 -8 13 4 22 2 22 -4 0 -6 -9 -11 -20 -11 -11 0 -20 -5 -20 -11 0
-5 -4 -7 -10 -4 -5 3 -10 15 -10 26 0 10 5 19 10 19 6 0 10 5 10 11 0 5 -5 7
-10 4 -8 -5 -30 32 -30 49 0 2 20 4 45 4 55 3 105 20 87 31 -9 6 -7 12 8 26
11 10 23 15 28 10 4 -4 1 -10 -5 -12 -18 -6 -16 -23 2 -23 9 0 18 7 21 15 4 8
10 12 16 9 5 -3 22 0 39 6 23 10 32 10 44 0 12 -10 24 -10 55 -1 22 6 40 17
40 24 1 17 69 67 92 67 11 0 17 -4 14 -9 -4 -5 0 -11 6 -14 7 -2 -4 -8 -26
-12 -27 -6 -43 -16 -55 -36 -9 -16 -20 -29 -26 -29 -5 0 -27 -5 -47 -11 -45
-12 -52 -34 -8 -24 29 6 44 -9 18 -17 -8 -3 -6 -7 5 -11 11 -4 21 2 33 21 23
39 83 82 114 82 15 0 35 9 46 21 20 22 111 69 119 61 14 -14 2 -31 -27 -37
-18 -4 -52 -20 -76 -36 -28 -20 -49 -28 -62 -24 -13 4 -20 2 -20 -6 0 -7 -8
-21 -17 -31 -21 -24 -7 -38 30 -31 22 4 25 8 16 19 -6 8 -7 14 -2 14 5 0 26
15 46 34 25 23 51 36 81 40 38 6 46 12 55 36 6 19 17 30 29 30 10 0 27 7 38
15 24 18 37 19 32 3z m452 -3 c-7 -8 -18 -15 -24 -15 -6 0 -2 7 8 15 25 19 32
19 16 0z m-5060 -15 c0 -5 -7 -10 -16 -10 -8 0 -12 5 -9 10 3 6 10 10 16 10 5
0 9 -4 9 -10z m4213 3 c-7 -2 -21 -2 -30 0 -10 3 -4 5 12 5 17 0 24 -2 18 -5z
m457 -9 c0 -10 -6 -14 -15 -10 -8 3 -15 2 -15 -3 0 -4 -12 -13 -26 -19 -14 -7
-22 -17 -19 -22 3 -6 -1 -10 -9 -10 -23 0 -20 10 16 47 34 35 68 44 68 17z
m520 9 c0 -11 -78 -83 -91 -83 -7 0 0 14 16 30 16 17 23 30 17 30 -7 0 -12 5
-12 11 0 6 6 9 13 6 8 -3 20 -1 28 4 17 10 29 12 29 2z m-110 -18 c0 -8 -7
-15 -15 -15 -16 0 -20 12 -8 23 11 12 23 8 23 -8z m-3862 -24 c3 -15 -1 -22
-9 -19 -7 2 -14 14 -16 27 -2 15 1 21 9 19 7 -3 15 -15 16 -27z m1841 5 c17
-20 -3 -66 -29 -66 -11 0 -20 7 -20 15 0 8 5 15 11 15 6 0 8 7 5 16 -12 30 12
45 33 20z m150 -3 c50 -42 42 -132 -15 -165 -87 -51 -169 79 -99 155 30 32 81
36 114 10z m75 1 c3 -9 6 -17 6 -18 0 -1 -9 -2 -20 -3 -11 -1 -20 0 -20 2 0
11 13 35 20 35 4 0 11 -7 14 -16z m836 12 c0 -2 -7 -6 -15 -10 -8 -3 -15 -1
-15 4 0 6 7 10 15 10 8 0 15 -2 15 -4z m85 -26 c-20 -23 -29 -21 -19 4 3 9 13
16 22 16 13 0 12 -3 -3 -20z m715 5 c-17 -21 -111 -64 -127 -58 -23 9 80 71
121 72 15 1 16 -2 6 -14z m138 -3 c2 -7 -2 -10 -11 -6 -8 3 -18 1 -22 -5 -3
-6 -16 -10 -28 -10 -16 1 -17 3 -5 6 9 2 15 10 12 18 -4 10 2 13 22 12 15 -1
29 -8 32 -15z m-892 -27 c-5 -18 -13 -25 -31 -25 -32 0 -31 5 3 35 31 27 37
25 28 -10z m780 0 c-8 -8 -20 -15 -26 -15 -6 0 -8 -4 -5 -10 3 -5 -2 -10 -12
-10 -14 1 -12 6 12 25 33 27 56 34 31 10z m-4936 -35 c0 -20 -26 -45 -33 -33
-3 4 -2 23 0 41 4 26 8 30 19 21 8 -6 14 -19 14 -29z m1203 18 c18 -12 34 -26
35 -30 2 -4 8 -8 14 -8 7 0 6 5 -1 14 -10 12 -8 17 8 26 16 8 19 8 15 -3 -6
-16 22 -31 31 -17 4 6 15 10 26 10 15 0 19 -7 19 -36 0 -31 -2 -35 -14 -25 -8
7 -39 15 -69 18 -49 5 -56 3 -66 -15 -7 -13 -17 -19 -26 -16 -9 4 -15 0 -15
-10 0 -11 -9 -16 -29 -16 -16 0 -34 -7 -41 -15 -11 -13 -7 -15 24 -15 20 0 36
-4 36 -9 0 -13 -53 -21 -65 -10 -5 5 -19 9 -31 9 -13 0 -26 5 -29 10 -8 12
-55 13 -55 1 0 -16 -31 -21 -53 -9 -12 6 -37 11 -54 9 -24 -1 -33 3 -33 14 0
8 3 15 8 16 4 0 27 2 51 5 40 5 43 4 38 -15 -7 -27 16 -28 42 -2 16 16 26 18
52 11 26 -8 39 -6 66 11 18 11 33 27 33 35 0 8 5 14 10 14 6 0 10 5 10 10 0 6
-11 8 -27 4 -22 -6 -25 -4 -20 10 5 12 1 16 -18 16 -14 0 -25 4 -25 10 0 5 18
8 39 6 22 -2 45 1 53 5 19 13 27 11 61 -13z m2087 9 c0 -7 -9 -13 -20 -13 -11
0 -20 6 -20 13 0 7 9 13 20 13 11 0 20 -6 20 -13z m1856 -32 c-22 -18 -54 -35
-70 -38 l-31 -4 33 25 c38 29 95 60 102 54 3 -2 -13 -19 -34 -37z m-4871 25
c-3 -5 -11 -10 -16 -10 -6 0 -7 5 -4 10 3 6 11 10 16 10 6 0 7 -4 4 -10z m183
-16 c-2 -26 -24 -52 -34 -41 -3 3 -2 12 2 19 5 7 7 21 6 31 -2 10 3 17 12 17
11 0 15 -8 14 -26z m226 5 c-10 -4 -26 -8 -34 -8 -12 0 -11 3 3 14 11 7 26 11
35 8 13 -6 13 -8 -4 -14z m353 15 c-3 -3 -12 -4 -19 -1 -8 3 -5 6 6 6 11 1 17
-2 13 -5z m3530 0 c-3 -3 -12 -4 -19 -1 -8 3 -5 6 6 6 11 1 17 -2 13 -5z m473
-9 c-14 -17 -30 -20 -30 -6 0 5 8 12 18 14 9 3 19 5 21 6 2 0 -2 -6 -9 -14z
m-4684 -8 c11 -11 -19 -8 -36 3 -12 8 -10 9 7 7 12 -2 26 -6 29 -10z m554 3
c0 -5 -7 -10 -16 -10 -8 0 -12 5 -9 10 3 6 10 10 16 10 5 0 9 -4 9 -10z m3140
6 c0 -3 -4 -8 -10 -11 -5 -3 -10 -1 -10 4 0 6 5 11 10 11 6 0 10 -2 10 -4z
m-3875 -16 c-3 -5 -13 -10 -21 -10 -8 0 -14 5 -14 10 0 6 9 10 21 10 11 0 17
-4 14 -10z m361 1 c-6 -9 -56 -22 -56 -14 0 4 40 21 53 22 5 1 6 -3 3 -8z
m283 -2 c-16 -6 -35 -6 -50 0 -20 8 -16 10 26 10 43 -1 46 -2 24 -10z m206
-19 c0 -31 -41 -56 -78 -46 -31 7 -34 18 -10 41 10 10 27 15 44 13 20 -3 26
-1 21 10 -3 10 0 13 9 10 8 -3 14 -15 14 -28z m1535 -22 c21 -42 21 -43 1 -18
-11 14 -21 28 -21 32 0 10 -50 -13 -50 -22 0 -4 -14 -10 -31 -14 -28 -5 -31
-9 -25 -33 6 -27 6 -27 -9 -9 -8 11 -15 25 -15 30 0 8 96 65 127 75 2 1 12
-18 23 -41z m2300 31 c-11 -7 -1 -8 35 -4 l50 6 -45 -17 c-48 -17 -73 -34 -51
-34 8 0 11 -6 7 -17 -8 -21 10 -33 51 -33 30 0 58 -19 31 -21 -43 -4 -75 5
-90 24 -14 19 -18 19 -33 7 -16 -13 -17 -13 -11 7 6 18 4 20 -14 16 -14 -4
-20 -1 -20 10 0 19 -47 31 -84 21 -39 -9 -67 -54 -57 -90 7 -26 11 -29 42 -26
49 5 25 -16 -26 -22 -41 -5 -67 6 -78 34 -4 12 -6 11 -6 -4 -1 -11 -6 -16 -15
-13 -8 3 -16 1 -18 -5 -3 -8 -12 -6 -28 5 -22 16 -23 17 -4 17 11 0 30 7 42
16 27 18 54 12 46 -11 -4 -9 -1 -15 9 -15 13 0 16 17 7 40 -1 3 -2 8 -1 12 1
10 -41 4 -66 -10 -15 -8 -56 -12 -120 -10 -54 2 -113 -1 -132 -6 -25 -7 -32
-6 -27 2 4 7 18 12 31 12 13 0 28 6 32 13 10 14 48 37 64 37 8 0 8 -5 -1 -15
-18 -22 -5 -31 15 -11 21 21 46 20 85 -1 30 -17 32 -17 44 0 7 9 20 17 29 17
19 0 31 16 19 24 -5 3 -26 -3 -46 -14 -22 -11 -36 -14 -33 -7 5 16 71 49 75
37 2 -5 13 -5 29 1 14 5 60 11 104 13 43 2 84 8 90 12 9 5 10 2 6 -9 -3 -10
-2 -17 3 -17 6 0 10 6 10 14 0 14 18 23 50 25 13 1 13 0 0 -10z m-4575 -9 c-3
-5 -14 -10 -23 -10 -15 0 -15 2 -2 10 20 13 33 13 25 0z m3629 -1 c-9 -15 -75
-42 -83 -33 -3 4 -1 8 4 11 6 2 21 10 35 17 31 17 53 20 44 5z m-3677 -5 c-3
-3 -12 -4 -19 -1 -8 3 -5 6 6 6 11 1 17 -2 13 -5z m522 -8 c9 -10 8 -15 -4
-20 -8 -3 -15 -1 -15 4 0 6 -7 10 -16 10 -8 0 -12 5 -9 10 9 14 31 12 44 -4z
m107 2 c4 -7 -2 -18 -17 -27 -13 -9 -32 -24 -41 -33 -22 -22 -28 -22 -28 -3 0
8 5 15 11 15 11 0 39 24 39 34 0 3 -10 6 -22 6 -19 0 -20 2 -8 10 21 13 57 12
66 -2z m2184 -19 c0 -5 -11 -9 -25 -9 -14 0 -25 6 -25 14 0 9 8 12 25 8 14 -2
25 -8 25 -13z m220 -10 c-14 -4 -19 -7 -12 -8 6 -1 12 -8 12 -17 0 -12 -6 -15
-26 -10 -23 6 -24 5 -14 -14 10 -19 9 -20 -14 -14 -20 5 -26 2 -26 -11 0 -10
5 -13 12 -9 7 5 8 3 4 -5 -5 -7 -14 -10 -21 -7 -8 3 -16 0 -19 -7 -3 -9 -8 -8
-15 3 -9 12 -12 13 -20 1 -11 -18 -21 0 -15 27 4 12 11 19 20 15 28 -10 61 7
89 47 24 35 30 38 49 28 21 -12 21 -12 -4 -19z m1767 25 c-3 -3 -12 -4 -19 -1
-8 3 -5 6 6 6 11 1 17 -2 13 -5z m-4867 -8 c0 -2 -7 -6 -15 -10 -8 -3 -15 -1
-15 4 0 6 7 10 15 10 8 0 15 -2 15 -4z m520 -11 c-14 -17 -40 -20 -40 -6 0 5
10 12 23 14 12 2 24 5 26 6 2 0 -2 -6 -9 -14z m-694 -9 c19 -20 18 -26 -6 -26
-13 0 -20 7 -20 20 0 24 6 25 26 6z m275 3 c-14 -6 -28 -6 -33 -1 -5 5 5 9 24
10 31 0 31 -1 9 -9z m271 -11 c-6 -6 -15 -8 -19 -4 -4 4 -1 11 7 16 8 5 17 7
19 4 3 -2 -1 -10 -7 -16z m-85 6 c-3 -3 -12 -4 -19 -1 -8 3 -5 6 6 6 11 1 17
-2 13 -5z m780 0 c-3 -3 -12 -4 -19 -1 -8 3 -5 6 6 6 11 1 17 -2 13 -5z m3513
-9 c0 -8 -8 -19 -19 -24 -16 -9 -20 -7 -23 14 -4 21 -1 25 18 25 14 0 24 -6
24 -15z m403 8 c-7 -2 -19 -2 -25 0 -7 3 -2 5 12 5 14 0 19 -2 13 -5z m-3885
-65 c-27 -11 -43 -1 -44 27 -2 21 2 25 16 20 10 -3 22 0 26 7 6 9 10 3 14 -17
4 -23 1 -32 -12 -37z m1810 37 c12 -13 19 -31 16 -40 -7 -17 -24 -21 -24 -5 0
6 -8 10 -17 10 -13 0 -14 3 -5 12 7 7 12 17 12 23 0 5 -5 3 -10 -5 -9 -13 -11
-13 -20 0 -14 22 -12 30 8 30 10 0 28 -11 40 -25z m-2741 9 c-3 -3 -12 -4 -19
-1 -8 3 -5 6 6 6 11 1 17 -2 13 -5z m367 -19 c-5 -19 -2 -25 9 -25 9 0 19 5
23 11 4 8 9 8 17 0 14 -14 9 -17 -35 -24 -36 -5 -38 -4 -38 22 0 28 7 41 22
41 5 0 6 -11 2 -25z m4288 3 c-7 -7 -12 -8 -12 -2 0 14 12 26 19 19 2 -3 -1
-11 -7 -17z m-4585 -6 c-14 -3 -16 -7 -6 -18 9 -12 5 -14 -27 -14 -45 0 -79
15 -54 24 41 14 86 22 95 17 6 -3 2 -7 -8 -9z m190 4 c-5 -11 0 -12 23 -3 33
13 49 4 32 -16 -7 -8 -8 -18 -4 -22 4 -5 1 -5 -6 -1 -11 6 -11 11 0 24 11 13
11 14 -2 7 -20 -12 -100 -24 -100 -14 0 4 7 15 16 23 19 20 48 21 41 2z m4574
4 c5 0 9 -3 9 -8 0 -9 -65 -32 -105 -37 -16 -2 -46 -8 -65 -13 -26 -8 -29 -10
-12 -11 13 -1 20 -5 17 -11 -4 -6 -12 -7 -18 -3 -17 11 -189 5 -201 -7 -14
-14 -39 -13 -59 3 -16 11 -15 12 5 13 84 5 174 17 183 25 5 5 22 9 39 9 35 0
147 29 161 42 5 5 16 6 23 3 8 -3 18 -5 23 -5z m-4928 -25 c-3 -8 -11 -15 -19
-15 -12 0 -12 4 -2 19 13 22 30 18 21 -4z m277 5 c-24 -15 -37 -11 -16 5 11 8
22 12 25 9 3 -3 -1 -9 -9 -14z m-230 -10 c0 -5 9 -10 20 -10 11 0 20 -4 20
-10 0 -18 -45 -10 -58 10 -10 17 -10 20 3 20 8 0 15 -4 15 -10z m520 -13 c11
-5 9 -6 -4 -4 -11 1 -21 9 -23 17 -3 10 -2 11 4 4 4 -6 15 -14 23 -17z m524
-4 c-9 -36 -13 -40 -24 -23 -8 12 -10 11 -11 -5 0 -11 -3 -15 -5 -9 -8 18 14
64 31 64 12 0 14 -7 9 -27z m-1144 7 c0 -5 -9 -10 -20 -10 -11 0 -20 5 -20 10
0 6 9 10 20 10 11 0 20 -4 20 -10z m703 -25 c-6 -16 -53 -21 -53 -5 0 5 6 7
14 4 7 -3 16 2 20 11 3 9 10 14 15 10 6 -3 8 -12 4 -20z m3485 13 c1 -5 0 -8
-3 -8 -3 0 -16 0 -30 0 -14 0 -25 4 -25 8 0 10 54 10 58 0z m932 8 c0 -2 -13
-6 -29 -8 -17 -2 -28 -1 -25 4 5 8 54 12 54 4z m-4890 -16 c-20 -13 -60 -13
-60 0 0 6 17 10 38 10 27 0 33 -3 22 -10z m4007 4 c-3 -3 -12 -4 -19 -1 -8 3
-5 6 6 6 11 1 17 -2 13 -5z m773 -4 c-8 -5 -19 -10 -25 -10 -5 0 -3 5 5 10 8
5 20 10 25 10 6 0 3 -5 -5 -10z m-4610 -4 c0 -2 -7 -6 -15 -10 -8 -3 -15 -1
-15 4 0 6 7 10 15 10 8 0 15 -2 15 -4z m35 -16 c-27 -12 -43 -12 -25 0 8 5 22
9 30 9 10 0 8 -3 -5 -9z m3681 1 c-7 -11 -85 -25 -93 -17 -8 8 37 25 70 25 16
1 26 -3 23 -8z m813 -7 c9 -8 -55 -2 -74 6 -13 6 -5 7 25 3 25 -3 47 -7 49 -9z
m-964 -13 c-3 -6 -11 -11 -17 -11 -6 0 -6 6 2 15 14 17 26 13 15 -4z m-3015
-12 c0 -5 -4 -9 -10 -9 -5 0 -10 7 -10 16 0 8 5 12 10 9 6 -3 10 -10 10 -16z
m2977 15 c-3 -3 -12 -4 -19 -1 -8 3 -5 6 6 6 11 1 17 -2 13 -5z m-3110 -10
c-3 -3 -12 -4 -19 -1 -8 3 -5 6 6 6 11 1 17 -2 13 -5z m2876 -1 c-7 -2 -21 -2
-30 0 -10 3 -4 5 12 5 17 0 24 -2 18 -5z m57 -3 c0 -12 60 -13 79 -1 8 5 21 6
30 3 8 -3 -10 -11 -44 -19 -40 -9 -61 -10 -63 -3 -2 5 -10 10 -18 10 -8 0 -14
5 -14 10 0 6 7 10 15 10 8 0 15 -4 15 -10z m720 6 c0 -11 -19 -15 -25 -6 -3 5
1 10 9 10 9 0 16 -2 16 -4z m-1480 -17 c0 -5 8 -9 18 -8 38 3 72 -2 72 -11 0
-10 -57 -12 -92 -3 -19 5 -25 33 -8 33 6 0 10 -5 10 -11z m1734 -4 c-6 -16
-42 -30 -52 -21 -3 4 4 9 16 13 12 3 19 9 16 14 -3 5 2 9 10 9 9 0 13 -6 10
-15z m113 4 c-16 -9 -84 -5 -96 6 -2 3 22 5 55 5 45 -1 55 -3 41 -11z m64 1
c5 0 9 -4 9 -9 0 -12 -38 -2 -47 12 -4 7 0 8 11 4 10 -4 22 -7 27 -7z m-2051
-16 c0 -8 -5 -12 -10 -9 -6 4 -8 11 -5 16 9 14 15 11 15 -7z m44 1 c-4 -8 -12
-15 -20 -15 -8 0 -14 7 -14 15 0 8 9 15 20 15 13 0 18 -5 14 -15z m56 -2 c0
-15 -2 -16 -10 -3 -6 10 -10 11 -10 3 0 -7 -7 -13 -15 -13 -16 0 -20 12 -8 23
13 14 43 7 43 -10z m2097 11 c-3 -3 -12 -4 -19 -1 -8 3 -5 6 6 6 11 1 17 -2
13 -5z m-4674 -11 c-7 -2 -21 -2 -30 0 -10 3 -4 5 12 5 17 0 24 -2 18 -5z
m4037 -3 c0 -13 -20 -13 -40 0 -12 8 -9 10 13 10 15 0 27 -4 27 -10z m-3792
-7 c-21 -2 -55 -2 -75 0 -21 2 -4 4 37 4 41 0 58 -2 38 -4z m3182 -98 c0 -8
-4 -15 -10 -15 -5 0 -10 7 -10 15 0 8 5 15 10 15 6 0 10 -7 10 -15z m431 -12
c12 -14 12 -17 0 -21 -11 -4 -11 -6 0 -13 11 -7 11 -9 1 -9 -16 0 -42 24 -42
39 0 5 -8 12 -17 14 -10 3 -4 5 13 6 18 1 37 -6 45 -16z m-4361 -3 c0 -5 -4
-10 -10 -10 -5 0 -10 5 -10 10 0 6 5 10 10 10 6 0 10 -4 10 -10z m4156 3 c-11
-11 -77 -13 -71 -2 4 5 22 9 42 9 20 0 33 -3 29 -7z m-2986 -159 c0 -8 -5 -12
-10 -9 -6 4 -8 11 -5 16 9 14 15 11 15 -7z m20 -422 c0 -13 -36 -111 -43 -119
-4 -3 -7 7 -7 24 0 26 -4 31 -31 37 -19 3 -29 11 -26 18 4 14 31 15 58 4 12
-5 18 0 23 18 6 24 26 37 26 18z m-79 -154 c54 -16 49 -29 -11 -26 -27 2 -50
4 -50 5 0 7 13 33 17 33 3 0 23 -5 44 -12z m-14 -173 c-4 -12 -58 -7 -72 6 -6
7 -5 13 4 18 16 10 73 -9 68 -24z m-3 -96 l6 -36 -40 3 c-43 3 -60 10 -60 25
0 7 15 8 40 4 39 -7 40 -6 40 21 0 35 6 28 14 -17z"/>
<path d="M3131 3074 c0 -11 3 -14 6 -6 3 7 2 16 -1 19 -3 4 -6 -2 -5 -13z"/>
<path d="M540 2020 c-9 -6 -10 -10 -3 -10 6 0 15 5 18 10 8 12 4 12 -15 0z"/>
<path d="M3950 1580 c0 -5 7 -10 15 -10 8 0 15 5 15 10 0 6 -7 10 -15 10 -8 0
-15 -4 -15 -10z"/>
<path d="M4146 1495 c-10 -8 -24 -16 -30 -18 -6 -2 -8 -7 -5 -11 9 -10 67 14
73 30 7 18 -13 18 -38 -1z"/>
<path d="M4210 1500 c0 -5 5 -10 10 -10 6 0 10 5 10 10 0 6 -4 10 -10 10 -5 0
-10 -4 -10 -10z"/>
<path d="M4192 1468 c-19 -19 -14 -35 14 -42 34 -9 44 2 20 20 -11 8 -14 14
-8 14 7 0 12 5 12 10 0 14 -23 13 -38 -2z"/>
<path d="M4270 1445 c-13 -16 -8 -18 28 -9 12 4 22 10 22 15 0 15 -37 10 -50
-6z"/>
<path d="M4325 1434 l-30 -24 25 0 c34 0 49 12 41 32 -5 14 -9 13 -36 -8z"/>
<path d="M3247 1602 c-36 -37 -36 -81 -1 -116 33 -33 68 -33 99 -1 34 33 34
93 2 123 -32 30 -68 28 -100 -6z m84 -11 c-6 -4 -13 -29 -15 -56 -4 -44 -7
-49 -30 -52 -27 -4 -33 6 -17 23 5 5 11 27 13 49 2 30 8 42 23 46 24 7 42 0
26 -10z"/>
<path d="M1295 1560 c3 -5 8 -10 11 -10 2 0 4 5 4 10 0 6 -5 10 -11 10 -5 0
-7 -4 -4 -10z"/>
<path d="M1310 1525 c-7 -8 -11 -17 -8 -20 8 -8 49 8 45 18 -6 18 -23 19 -37
2z"/>
<path d="M1101 1521 c-9 -6 -7 -10 8 -14 12 -3 21 -1 21 3 0 14 -15 19 -29 11z"/>
<path d="M2615 3600 c-3 -5 -2 -10 4 -10 5 0 13 5 16 10 3 6 2 10 -4 10 -5 0
-13 -4 -16 -10z"/>
<path d="M1423 2924 c-34 -15 -5 -24 75 -24 48 0 96 -1 106 -2 10 -2 21 3 23
10 3 8 -6 12 -29 13 -18 0 -62 2 -98 4 -36 2 -71 2 -77 -1z"/>
<path d="M1328 2903 c12 -2 30 -2 40 0 9 3 -1 5 -23 4 -22 0 -30 -2 -17 -4z"/>
<path d="M1290 2825 c0 -30 15 -33 30 -6 14 27 13 31 -10 31 -15 0 -20 -7 -20
-25z"/>
<path d="M1350 2845 c0 -7 26 -35 33 -35 3 0 4 8 3 18 -3 16 -36 32 -36 17z"/>
<path d="M1412 2834 c2 -8 8 -15 13 -16 6 -1 15 -8 22 -17 11 -14 12 -12 13
10 0 16 -7 29 -16 33 -26 10 -36 7 -32 -10z"/>
<path d="M1475 2830 c3 -5 13 -10 21 -10 8 0 14 5 14 10 0 6 -9 10 -21 10 -11
0 -17 -4 -14 -10z"/>
<path d="M1540 2830 c0 -5 5 -10 10 -10 6 0 10 5 10 10 0 6 -4 10 -10 10 -5 0
-10 -4 -10 -10z"/>
<path d="M1600 2830 c0 -5 7 -10 15 -10 8 0 15 5 15 10 0 6 -7 10 -15 10 -8 0
-15 -4 -15 -10z"/>
<path d="M1294 2765 c-4 -10 -1 -21 7 -26 8 -5 15 -4 17 1 2 6 11 10 19 10 9
0 13 -6 9 -15 -4 -11 1 -15 19 -15 20 0 25 5 25 25 0 21 -5 25 -29 25 -16 0
-36 3 -45 6 -10 4 -18 -1 -22 -11z"/>
<path d="M1410 2757 c0 -26 36 -48 64 -41 15 3 25 9 22 12 -3 2 -1 13 5 23 9
17 5 19 -41 19 -35 0 -50 -4 -50 -13z m47 -12 c0 -8 -6 -15 -14 -15 -14 0 -17
12 -6 23 11 11 20 8 20 -8z"/>
<path d="M1540 2759 c0 -9 12 -14 37 -14 32 0 38 -3 36 -20 -2 -18 -1 -18 9 3
14 28 9 32 -41 39 -31 4 -41 2 -41 -8z"/>
<path d="M1290 2672 c0 -25 3 -29 20 -25 11 3 20 12 20 20 0 11 7 13 24 9 14
-3 28 -2 31 4 4 6 -8 10 -29 10 -19 0 -41 3 -50 6 -12 5 -16 -1 -16 -24z"/>
<path d="M1410 2675 c0 -9 12 -21 26 -27 21 -10 27 -9 35 3 8 11 12 11 16 2 8
-21 18 -15 21 12 2 24 -1 25 -48 25 -38 0 -50 -4 -50 -15z"/>
<path d="M1540 2671 c0 -18 3 -20 18 -12 21 11 65 3 56 -10 -3 -5 -1 -9 4 -9
10 0 25 30 19 37 -3 2 -25 6 -51 9 -42 6 -46 4 -46 -15z"/>
<path d="M1568 2643 c6 -2 18 -2 25 0 6 3 1 5 -13 5 -14 0 -19 -2 -12 -5z"/>
<path d="M1290 2595 c0 -17 6 -25 18 -26 9 0 32 -1 50 -2 29 -2 32 1 32 26 0
26 -2 27 -50 27 -47 0 -50 -2 -50 -25z m60 -6 c0 -5 -4 -9 -10 -9 -5 0 -10 7
-10 16 0 8 5 12 10 9 6 -3 10 -10 10 -16z"/>
<path d="M1414 2604 c3 -9 6 -21 6 -27 0 -7 4 -6 10 3 8 12 10 12 16 -3 3 -9
10 -17 16 -17 5 0 7 4 4 8 -2 4 0 14 5 22 8 13 10 13 18 0 5 -8 7 -18 5 -22
-3 -4 0 -8 5 -8 6 0 11 14 11 30 0 29 -1 30 -51 30 -43 0 -50 -3 -45 -16z"/>
<path d="M1540 2589 c0 -24 4 -29 24 -29 14 0 28 4 31 10 4 6 -1 7 -12 3 -15
-6 -16 -5 -3 9 18 18 40 13 41 -11 0 -10 4 -8 10 8 5 13 8 25 7 26 -2 1 -24 5
-50 7 -47 5 -48 5 -48 -23z"/>
<path d="M1292 2523 c2 -10 11 -16 19 -14 8 2 22 6 32 8 11 4 17 0 17 -11 0
-9 7 -16 15 -16 9 0 15 9 15 25 0 23 -3 25 -51 25 -43 0 -50 -3 -47 -17z"/>
<path d="M1413 2528 c2 -7 10 -13 18 -13 8 0 13 -8 13 -18 -2 -23 13 -22 21 3
7 23 16 25 33 8 9 -9 12 -7 12 10 0 20 -5 22 -51 22 -36 0 -49 -4 -46 -12z"/>
<path d="M1540 2514 c0 -26 4 -29 33 -31 17 0 26 1 20 4 -7 2 -13 11 -13 19 0
17 37 19 42 2 3 -7 7 -6 11 5 5 14 0 17 -27 17 -19 0 -41 3 -50 6 -12 5 -16 0
-16 -22z"/>
<path d="M1290 2435 c0 -28 27 -35 36 -10 4 8 12 15 20 15 8 0 11 -6 8 -15 -4
-10 0 -15 15 -15 16 0 21 6 21 25 0 23 -3 25 -50 25 -47 0 -50 -2 -50 -25z"/>
<path d="M1418 2438 c3 -12 7 -17 10 -10 2 6 8 12 13 12 4 0 6 -7 3 -15 -4
-10 0 -15 11 -15 11 0 15 5 11 15 -3 9 0 15 9 15 8 0 15 -7 15 -15 0 -22 17
-18 23 4 7 27 0 31 -54 31 -44 0 -47 -2 -41 -22z"/>
<path d="M1540 2436 c0 -21 5 -26 25 -26 15 0 24 5 23 13 -2 7 6 11 19 9 12
-2 24 2 28 8 4 6 -7 10 -29 10 -19 0 -41 3 -50 6 -12 5 -16 0 -16 -20z"/>
<path d="M1290 2373 c0 -10 4 -24 9 -31 6 -10 12 -7 25 13 13 20 19 23 30 13
7 -7 12 -18 9 -24 -2 -6 3 -11 12 -11 10 0 15 10 15 29 0 27 -2 28 -50 28 -41
0 -50 -3 -50 -17z"/>
<path d="M1421 2358 c1 -31 2 -31 9 -8 l7 25 10 -25 10 -25 7 23 c5 15 15 22
33 22 41 0 19 11 -31 17 l-46 4 1 -33z"/>
<path d="M1540 2356 c0 -18 5 -23 24 -23 15 0 23 4 20 12 -3 7 3 16 13 19 10
4 19 2 21 -3 5 -16 19 -13 19 4 0 11 -12 15 -49 15 -44 0 -48 -2 -48 -24z"/>
<path d="M1921 2332 c2 -21 0 -42 -3 -48 -11 -16 -6 -75 6 -80 6 -2 31 2 56
10 39 11 45 17 46 42 3 46 3 47 19 34 12 -10 15 -10 15 4 0 9 -8 16 -21 16
-11 0 -18 4 -15 9 4 5 0 12 -6 14 -7 3 -3 6 10 6 13 1 20 -3 17 -9 -3 -5 1
-10 10 -10 9 0 14 4 10 9 -3 5 -1 12 5 16 27 17 3 25 -71 25 l-81 0 3 -38z"/>
<path d="M1297 2294 c4 -11 13 -13 36 -8 25 5 29 4 24 -10 -5 -11 -1 -16 13
-16 15 0 20 7 20 25 0 23 -3 25 -50 25 -40 0 -48 -3 -43 -16z"/>
<path d="M1420 2294 c0 -11 5 -14 16 -10 10 4 14 2 11 -6 -2 -7 -10 -12 -16
-10 -22 4 -10 -35 14 -46 28 -13 34 -42 9 -42 -9 0 -14 -7 -12 -17 2 -10 12
-18 23 -18 30 0 40 80 13 107 -22 22 -15 41 12 33 10 -3 21 -2 24 3 3 5 -8 12
-25 16 -51 10 -69 7 -69 -10z"/>
<path d="M1544 2293 c10 -10 86 -11 92 -1 3 4 -18 8 -47 8 -29 0 -49 -3 -45
-7z"/>
<path d="M2040 2249 c0 -5 5 -7 10 -4 6 3 10 8 10 11 0 2 -4 4 -10 4 -5 0 -10
-5 -10 -11z"/>
<path d="M1174 2238 c-4 -6 0 -16 8 -22 8 -6 18 -23 22 -38 4 -18 13 -28 25
-28 27 0 38 70 14 88 -21 15 -60 16 -69 0z"/>
<path d="M1437 2205 c3 -8 9 -12 14 -9 12 7 11 11 -5 17 -10 4 -13 1 -9 -8z"/>
<path d="M4737 2192 c-10 -2 -16 -9 -14 -15 5 -16 36 -22 48 -10 13 13 -11 31
-34 25z"/>
<path d="M5248 2193 c7 -3 16 -2 19 1 4 3 -2 6 -13 5 -11 0 -14 -3 -6 -6z"/>
<path d="M1742 2160 c0 -14 2 -19 5 -12 2 6 2 18 0 25 -3 6 -5 1 -5 -13z"/>
<path d="M1766 2171 c-7 -11 7 -27 23 -26 23 0 24 22 1 28 -11 3 -22 2 -24 -2z"/>
<path d="M953 2153 c9 -2 23 -2 30 0 6 3 -1 5 -18 5 -16 0 -22 -2 -12 -5z"/>
<path d="M4113 2080 c0 -25 2 -35 4 -22 2 12 2 32 0 45 -2 12 -4 2 -4 -23z"/>
<path d="M4845 2080 c-19 -8 -19 -9 3 -9 12 -1 22 4 22 9 0 6 -1 10 -2 9 -2 0
-12 -4 -23 -9z"/>
<path d="M4433 2053 c9 -2 25 -2 35 0 9 3 1 5 -18 5 -19 0 -27 -2 -17 -5z"/>
<path d="M1401 1184 c0 -11 3 -14 6 -6 3 7 2 16 -1 19 -3 4 -6 -2 -5 -13z"/>
<path d="M146 1141 c-3 -5 1 -11 9 -15 9 -3 15 0 15 9 0 16 -16 20 -24 6z"/>
<path d="M513 1133 c9 -2 25 -2 35 0 9 3 1 5 -18 5 -19 0 -27 -2 -17 -5z"/>
<path d="M1375 1130 l-30 -6 28 -6 c15 -3 30 -1 33 4 9 13 3 15 -31 8z"/>
<path d="M746 1116 c5 -13 -1 -16 -30 -16 -20 0 -36 -4 -36 -10 0 -5 -9 -10
-21 -10 -11 0 -18 4 -15 9 3 5 -8 11 -25 15 -44 9 -59 8 -59 -4 0 -5 9 -10 19
-10 11 0 23 -5 27 -12 5 -8 0 -9 -17 -5 -13 4 -30 7 -36 7 -7 0 -13 7 -13 16
0 13 -5 15 -22 9 -13 -5 -62 -7 -110 -6 -63 2 -88 -1 -88 -9 0 -8 -9 -10 -26
-6 -28 7 -120 -11 -142 -27 -9 -7 -17 -5 -25 5 -9 12 -25 14 -67 9 l-55 -6 -3
-67 -3 -67 37 -7 c24 -4 39 -3 44 6 5 9 9 9 14 1 4 -6 19 -10 34 -10 17 1 21
3 10 6 -56 15 41 41 109 30 20 -4 42 -3 47 2 25 18 98 31 196 35 58 3 112 7
121 11 10 3 20 2 24 -4 3 -6 20 -11 36 -11 18 0 28 -4 24 -10 -4 -6 6 -10 21
-10 27 0 27 1 8 16 -18 14 -17 15 20 9 35 -6 37 -5 23 9 -8 9 -23 16 -31 16
-21 0 -21 46 0 54 9 3 33 6 54 6 59 0 70 29 13 35 -15 1 -36 6 -46 10 -13 6
-16 4 -11 -9z m-456 -56 c0 -5 -7 -10 -16 -10 -8 0 -12 5 -9 10 3 6 10 10 16
10 5 0 9 -4 9 -10z m-35 -14 c18 -18 1 -25 -35 -16 -24 6 -24 6 -5 18 25 15
24 15 40 -2z m261 1 c7 2 21 0 31 -6 14 -8 5 -10 -42 -10 -55 0 -58 1 -41 14
12 9 24 11 29 6 5 -5 15 -7 23 -4z m134 -7 c0 -5 -9 -10 -20 -10 -11 0 -20 5
-20 10 0 6 9 10 20 10 11 0 20 -4 20 -10z m-295 -28 c-6 -7 -55 11 -50 18 3 5
16 3 29 -3 14 -7 23 -13 21 -15z m235 24 c0 -3 -4 -8 -10 -11 -5 -3 -10 -1
-10 4 0 6 5 11 10 11 6 0 10 -2 10 -4z m-426 -21 c-4 -8 -14 -15 -23 -16 -9
-1 -6 -4 9 -9 19 -6 12 -8 -32 -9 -35 -1 -58 -6 -61 -13 -3 -10 -9 -8 -23 4
-20 20 -12 37 9 20 8 -7 17 -8 23 -3 5 5 20 11 34 13 14 2 24 9 23 16 -2 7 7
12 22 12 18 0 23 -4 19 -15z m286 5 c11 -7 7 -10 -17 -10 -18 0 -33 5 -33 10
0 13 30 13 50 0z m233 -7 c-7 -2 -19 -2 -25 0 -7 3 -2 5 12 5 14 0 19 -2 13
-5z m-420 -24 c-31 -20 -53 -19 -53 3 0 5 7 8 15 4 8 -3 15 -1 15 4 0 6 12 10
28 10 l27 0 -32 -21z"/>
<path d="M915 1109 c-4 -6 -5 -12 -3 -14 8 -8 137 -20 181 -17 38 3 47 8 47
23 0 23 -13 24 -31 3 -11 -13 -26 -15 -78 -11 -36 3 -67 10 -69 16 -5 14 -39
14 -47 0z"/>
<path d="M1173 1112 c-13 -2 -23 -8 -23 -13 0 -9 37 -3 49 7 8 7 -4 10 -26 6z"/>
<path d="M1410 1066 c0 -8 5 -18 10 -21 6 -3 10 3 10 14 0 12 -4 21 -10 21 -5
0 -10 -6 -10 -14z"/>
<path d="M746 1051 c-9 -14 64 -18 82 -4 15 11 10 12 -30 13 -26 0 -49 -4 -52
-9z"/>
<path d="M4126 1052 c-3 -5 11 -12 32 -15 20 -3 45 -8 55 -12 9 -4 17 -3 17 3
0 5 -15 12 -32 15 -18 3 -40 8 -49 12 -10 3 -20 2 -23 -3z"/>
<path d="M975 1040 c-4 -6 -15 -8 -26 -5 -24 8 -25 -3 -1 -21 15 -12 14 -13
-15 -14 -20 0 -32 5 -30 12 1 7 -15 12 -40 14 -24 2 -43 -1 -43 -6 0 -6 10
-10 23 -10 13 0 28 -5 35 -12 13 -13 132 -13 177 1 17 5 22 10 13 10 -10 1
-18 4 -18 9 0 7 -47 32 -61 32 -4 0 -11 -5 -14 -10z"/>
<path d="M4055 1010 c-9 -15 4 -70 17 -70 6 0 7 11 4 26 -7 25 -5 26 29 22 19
-2 35 0 35 4 0 4 -9 8 -21 8 -11 0 -29 5 -39 10 -13 7 -21 7 -25 0z"/>
<path d="M4168 1013 c7 -3 16 -2 19 1 4 3 -2 6 -13 5 -11 0 -14 -3 -6 -6z"/>
<path d="M4188 983 c7 -3 16 -2 19 1 4 3 -2 6 -13 5 -11 0 -14 -3 -6 -6z"/>
<path d="M4270 981 c0 -12 188 -13 195 -2 4 8 -26 10 -94 9 -56 -1 -101 -4
-101 -7z"/>
<path d="M395 969 c-18 -4 5 -7 57 -8 48 0 89 3 93 8 6 11 -100 10 -150 0z"/>
<path d="M560 970 c0 -5 21 -10 48 -9 38 1 42 2 22 9 -36 12 -70 12 -70 0z"/>
<path d="M4120 940 c0 -5 5 -10 11 -10 5 0 7 5 4 10 -3 6 -8 10 -11 10 -2 0
-4 -4 -4 -10z"/>
<path d="M5200 940 c0 -5 14 -7 33 -3 45 8 47 13 4 13 -20 0 -37 -4 -37 -10z"/>
<path d="M535 930 c3 -5 13 -10 21 -10 8 0 14 5 14 10 0 6 -9 10 -21 10 -11 0
-17 -4 -14 -10z"/>
<path d="M688 933 c6 -2 18 -2 25 0 6 3 1 5 -13 5 -14 0 -19 -2 -12 -5z"/>
<path d="M4230 931 c0 -4 11 -6 25 -3 14 2 25 6 25 8 0 2 -11 4 -25 4 -14 0
-25 -4 -25 -9z"/>
<path d="M304 908 c-10 -15 1 -19 26 -10 l24 9 -22 5 c-12 4 -25 2 -28 -4z"/>
<path d="M4830 910 c-13 -8 -12 -10 3 -10 9 0 17 5 17 10 0 12 -1 12 -20 0z"/>
<path d="M4950 910 c0 -5 11 -10 25 -10 14 0 25 5 25 10 0 6 -11 10 -25 10
-14 0 -25 -4 -25 -10z"/>
<path d="M5080 910 c0 -5 20 -9 45 -8 25 1 45 6 45 10 0 4 -20 8 -45 8 -25 0
-45 -4 -45 -10z"/>
<path d="M5185 910 c-3 -5 3 -10 15 -10 12 0 18 5 15 10 -3 6 -10 10 -15 10
-5 0 -12 -4 -15 -10z"/>
<path d="M5253 909 c11 -7 23 -7 35 0 14 9 11 10 -18 10 -29 0 -32 -1 -17 -10z"/>
<path d="M105 900 c-7 -11 9 -11 45 0 24 8 24 8 -7 9 -17 1 -35 -3 -38 -9z"/>
<path d="M236 896 c3 -8 12 -12 20 -9 21 8 17 23 -6 23 -13 0 -18 -5 -14 -14z"/>
<path d="M4492 898 c2 -6 10 -14 16 -16 7 -2 10 2 6 12 -7 18 -28 22 -22 4z"/>
<path d="M4550 895 c7 -8 16 -15 21 -15 5 0 6 7 3 15 -4 8 -13 15 -21 15 -13
0 -13 -3 -3 -15z"/>
<path d="M58 893 c6 -2 18 -2 25 0 6 3 1 5 -13 5 -14 0 -19 -2 -12 -5z"/>
<path d="M425 890 c8 -13 45 -13 65 0 11 7 3 10 -28 10 -26 0 -41 -4 -37 -10z"/>
<path d="M580 890 c0 -13 20 -13 40 0 12 8 9 10 -12 10 -16 0 -28 -4 -28 -10z"/>
<path d="M4664 889 c12 -8 25 -8 40 -1 18 9 16 11 -19 11 -33 0 -37 -1 -21
-10z"/>
<path d="M5343 893 c9 -2 23 -2 30 0 6 3 -1 5 -18 5 -16 0 -22 -2 -12 -5z"/>
<path d="M4433 883 c9 -2 25 -2 35 0 9 3 1 5 -18 5 -19 0 -27 -2 -17 -5z"/>
<path d="M4784 879 c-5 -8 -2 -11 8 -6 9 3 20 1 26 -5 6 -6 12 -6 16 1 4 6 3
11 -3 11 -5 0 -16 3 -24 6 -8 3 -18 0 -23 -7z"/>
<path d="M5206 883 c-4 -4 12 -13 36 -19 l43 -11 -83 -7 c-119 -12 -93 -19 33
-11 66 5 102 11 94 16 -11 7 -10 9 4 9 9 0 17 4 17 10 0 5 -17 9 -37 8 -21 -2
-52 1 -68 5 -17 4 -34 4 -39 0z"/>
<path d="M5380 880 c-33 -10 -27 -12 48 -15 66 -2 83 8 31 19 -37 7 -46 7 -79
-4z"/>
<path d="M5035 870 c11 -5 38 -9 60 -9 22 0 49 4 60 9 13 6 -7 9 -60 9 -53 0
-73 -3 -60 -9z"/>
<path d="M0 860 c0 -5 5 -10 10 -10 6 0 10 5 10 10 0 6 -4 10 -10 10 -5 0 -10
-4 -10 -10z"/>
<path d="M55 860 c-16 -7 -12 -9 18 -9 23 -1 36 3 32 9 -7 12 -23 12 -50 0z"/>
<path d="M4948 863 c7 -3 16 -2 19 1 4 3 -2 6 -13 5 -11 0 -14 -3 -6 -6z"/>
<path d="M498 853 c12 -2 30 -2 40 0 9 3 -1 5 -23 4 -22 0 -30 -2 -17 -4z"/>
<path d="M5376 828 c2 -8 26 -14 60 -15 49 -1 53 0 37 13 -23 17 -104 19 -97
2z"/>
<path d="M4118 658 c-6 -18 3 -58 13 -58 12 0 12 57 0 64 -5 4 -11 1 -13 -6z"/>
<path d="M4143 455 c0 -22 2 -30 4 -17 2 12 2 30 0 40 -3 9 -5 -1 -4 -23z"/>
<path d="M4081 154 c0 -11 3 -14 6 -6 3 7 2 16 -1 19 -3 4 -6 -2 -5 -13z"/>
</g>
</svg>
