<svg width="2000" height="889" viewBox="0 0 2000 889" fill="none" xmlns="http://www.w3.org/2000/svg">
<g clip-path="url(#clip0_15_216)">
<path fill-rule="evenodd" clip-rule="evenodd" d="M2000 327.299C1915.32 344.528 1805.12 388.591 1680.05 490.552C1424.49 698.888 1302.45 682.222 1096.04 654.035C1070.48 650.545 1043.63 646.878 1015.24 643.457C1011.76 643.038 1008.29 642.61 1004.84 642.174L999.491 641.377C992.956 640.368 986.465 639.383 980.019 638.431C973.484 637.422 966.994 636.436 960.547 635.486C954.012 634.476 947.521 633.49 941.075 632.54C934.541 631.53 928.05 630.545 921.603 629.594C915.067 628.584 908.578 627.6 902.132 626.648C895.595 625.638 889.106 624.655 882.66 623.702C876.124 622.692 869.635 621.709 863.188 620.757C856.652 619.748 850.163 618.762 843.716 617.811C670.116 590.985 528.87 582.032 371.134 737.378C294.584 812.768 192.995 858.29 92.6908 884.814C87.3454 886.227 82.0043 887.581 76.6694 888.888H82.779C86.2059 888.025 89.6341 887.144 93.0657 886.236C193.587 859.655 295.409 814.02 372.167 738.425C498.325 614.179 613.988 595.382 744.251 606.628C621.526 598.956 510.859 621.893 390.605 740.324C314.055 815.714 212.467 861.236 112.162 887.759C110.718 888.142 109.274 888.515 107.831 888.888H113.635C213.799 862.266 315.159 816.69 391.638 741.371C517.796 617.125 633.46 598.327 763.723 609.573C640.998 601.902 530.329 624.839 410.077 743.269C335.244 816.968 236.483 862.122 138.383 888.889H143.91C240.525 861.896 337.381 816.93 411.111 744.318C537.269 620.071 652.932 601.274 783.195 612.519C660.469 604.848 549.801 627.785 429.549 746.216C357.396 817.276 262.996 861.797 168.395 888.889H173.685C266.854 861.612 359.473 817.295 430.582 747.263C556.74 623.018 672.404 604.219 802.667 615.465C679.94 607.792 569.273 630.731 449.021 749.161C379.425 817.704 289.133 861.556 197.925 888.889H202.997C292.821 861.404 381.45 817.774 450.054 750.209C576.212 625.962 691.875 607.167 822.139 618.411C699.412 610.74 588.746 633.677 468.493 752.107C401.345 818.238 314.929 861.386 227.015 888.889H231.896C318.474 861.265 403.323 818.356 469.526 753.155C595.684 628.908 711.347 610.112 841.611 621.356C718.884 613.685 608.218 636.624 487.965 755.052C423.167 818.869 340.427 861.282 255.713 888.889H260.415C343.837 861.192 425.103 819.028 488.998 756.1C615.156 631.854 730.82 613.056 861.082 624.302C738.356 616.63 627.688 639.568 507.437 757.998C444.899 819.588 365.648 861.241 284.042 888.889H288.588C368.945 861.176 446.797 819.785 508.469 759.046C634.629 634.798 750.291 616.002 880.554 627.248C757.827 619.576 647.16 642.516 526.908 760.944C466.552 820.385 390.631 861.256 312.047 888.889H316.446C393.82 861.215 468.418 820.614 527.941 761.992C654.099 637.744 769.762 618.95 900.026 630.194C777.299 622.522 666.631 645.46 546.38 763.89C488.135 821.253 415.392 861.323 339.748 888.889H344.017C418.487 861.305 489.969 821.511 547.413 764.938C673.571 640.69 789.235 621.896 919.497 633.14C796.769 625.467 686.104 648.406 565.852 766.836C509.65 822.186 439.951 861.436 367.175 888.889H371.305C442.949 861.44 511.453 822.475 566.885 767.884C693.042 643.637 808.706 624.84 938.969 636.086C816.243 628.414 705.575 651.352 585.323 769.782C531.099 823.184 464.312 861.596 394.315 888.889H398.339C467.234 861.619 532.878 823.498 586.357 770.83C712.514 646.583 828.178 627.786 958.441 639.031C835.715 631.359 725.047 654.297 604.795 772.727C552.494 824.236 488.505 861.799 421.223 888.889H425.144C491.356 861.839 554.25 824.571 605.828 773.775C731.986 649.529 847.649 630.731 977.913 641.977C855.186 634.307 744.517 657.244 624.267 775.673C573.837 825.34 512.539 862.042 447.901 888.89H451.707C515.311 862.098 575.567 825.7 625.3 776.721C751.458 652.475 867.121 633.677 997.385 644.923C874.658 637.251 763.99 660.188 643.739 778.619C595.127 826.494 536.417 862.319 474.352 888.89H478.078C539.135 862.395 596.841 826.872 644.772 779.667C770.929 655.42 886.593 636.623 1016.86 647.869C894.13 640.197 783.462 663.134 663.211 781.565C616.374 827.691 560.162 862.636 500.609 888.89H504.229C562.81 862.724 618.064 828.092 664.244 782.613C790.401 658.366 906.065 639.569 1036.33 650.814C913.602 643.143 802.934 666.08 682.682 784.511C637.576 828.934 583.774 862.984 526.665 888.89H530.212C586.375 863.087 639.249 829.35 683.715 785.559C809.873 661.312 925.537 642.515 1055.8 653.76C933.073 646.089 822.406 669.026 702.154 787.456C658.738 830.216 607.264 863.364 552.54 888.89H556.001C609.807 863.478 660.393 830.65 703.187 788.504C829.345 664.258 945.008 645.461 1075.27 656.706C952.545 649.035 841.877 671.972 721.626 790.402C679.861 831.534 630.641 863.775 578.245 888.89H581.627C633.134 863.902 681.5 831.986 722.659 791.45C848.817 667.204 964.48 648.406 1094.74 659.652C972.017 651.98 861.349 674.917 741.098 793.348C700.945 832.89 653.905 864.213 603.775 888.89H607.099C656.361 864.353 702.573 833.354 742.131 794.396C868.289 670.149 983.952 651.352 1114.22 662.598C991.489 654.926 880.821 677.863 760.569 796.294C721.999 834.28 677.072 864.68 629.155 888.89H632.4C679.475 864.832 723.611 834.757 761.602 797.341C887.76 673.095 1003.42 654.298 1133.69 665.544C1010.96 657.874 900.293 680.81 780.041 799.24C743.021 835.699 700.145 865.172 654.39 888.89H657.561C702.502 865.334 744.616 836.192 781.075 800.287C907.232 676.04 1022.9 657.245 1153.16 668.489C1030.43 660.819 919.765 683.756 799.513 802.185C764.008 837.151 723.115 865.689 679.464 888.89H682.589C725.445 865.862 765.595 837.655 800.546 803.233C926.704 678.986 1042.37 660.19 1172.63 671.434C1049.91 663.763 939.238 686.7 818.985 805.131C784.968 838.631 746.003 866.232 704.408 888.89H707.48C748.301 866.413 786.544 839.146 820.018 806.178C957.992 670.294 1083.41 660.53 1229.11 678.262C1235 679.168 1240.94 680.065 1246.92 680.95C1253.36 681.944 1259.85 682.927 1266.39 683.896C1272.83 684.888 1279.32 685.872 1285.86 686.842C1292.3 687.834 1298.79 688.818 1305.33 689.788C1311.77 690.781 1318.26 691.764 1324.8 692.734C1331.24 693.727 1337.74 694.71 1344.27 695.679C1350.72 696.673 1357.21 697.656 1363.75 698.625C1370.19 699.618 1376.68 700.602 1383.22 701.571C1408.98 705.539 1435.5 709.37 1462.91 712.673C1491.5 716.116 1518.24 719.769 1543.7 723.246C1712.54 746.302 1825.05 761.639 2000 652.912V651.169C1866.84 734.09 1769.93 745.051 1656.87 735.392C1767.19 742.436 1864.65 726.391 2000 637.528V635.76C1856.64 730.055 1755.9 742.568 1637.4 732.446C1752.94 739.825 1854.37 721.87 2000 621.472V619.683C1846.14 725.945 1741.72 740.076 1617.93 729.501C1738.55 737.204 1843.78 717.318 2000 604.811V602.98C1835.33 721.772 1727.4 737.57 1598.46 726.555C1724.02 734.574 1832.92 712.676 2000 587.548V585.706C1824.22 717.56 1712.94 735.053 1578.99 723.609C1709.36 731.936 1821.77 708.007 2000 569.752V567.893C1812.82 713.306 1698.35 732.524 1559.52 720.664C1694.57 729.289 1810.36 703.302 2000 551.458V549.578C1801.15 709.017 1683.62 729.984 1540.04 717.718C1677.93 726.524 1795.71 699.276 1992.53 538.826C1995.03 536.79 1997.52 534.792 2000 532.802V530.909C1997.21 533.139 1994.41 535.397 1991.6 537.684C1786 705.3 1666.8 727.264 1520.57 714.772C1658.46 723.578 1776.24 696.33 1973.06 535.881C1982.12 528.494 1991.1 521.413 2000 514.625V512.789C1990.8 519.796 1981.51 527.096 1972.13 534.738C1766.52 702.354 1647.33 724.319 1501.1 711.826C1638.99 720.632 1756.77 693.385 1953.59 532.935C1969.3 520.124 1984.78 508.241 2000 497.199V495.387C1984.48 506.62 1968.69 518.722 1952.66 531.793C1747.05 699.409 1627.86 721.373 1481.63 708.881C1619.52 717.687 1737.3 690.439 1934.11 529.99C1956.58 511.674 1978.56 495.251 2000 480.499V478.698C1978.27 493.619 1955.97 510.272 1933.19 528.848C1727.58 696.463 1608.38 718.428 1462.16 705.935C1600.04 714.741 1717.82 687.493 1914.64 527.044C1943.96 503.139 1972.46 482.442 2000 464.513V462.761C1972.17 480.837 1943.36 501.734 1913.72 525.902C1708.11 693.518 1588.91 715.482 1442.68 702.989C1580.57 711.795 1698.35 684.548 1895.17 524.098C1931.46 494.514 1966.49 469.817 2000 449.236V447.52C1966.2 468.226 1930.86 493.105 1894.24 522.956C1688.64 690.572 1569.44 712.536 1423.21 700.044C1561.1 708.85 1678.88 681.602 1875.7 521.153C1919.08 485.785 1960.66 457.414 2000 434.703V433.01C1960.38 455.828 1918.48 484.374 1874.77 520.01C1669.16 687.626 1549.97 709.59 1403.74 697.098C1541.63 705.904 1659.41 678.656 1856.23 518.207C1906.84 476.948 1954.99 445.203 2000 420.873V419.201C1954.71 443.618 1906.24 475.537 1855.3 517.065C1649.69 684.68 1530.5 706.645 1384.27 694.152C1522.16 702.958 1639.94 675.71 1836.75 515.261C1894.74 467.991 1949.51 433.196 2000 407.751V406.121C1949.23 431.636 1894.15 466.576 1835.83 514.119C1630.22 681.734 1511.02 703.699 1364.8 691.206C1502.68 700.012 1620.46 672.764 1817.28 512.315C1882.81 458.898 1944.22 421.417 2000 395.358V393.739C1943.94 419.856 1882.21 457.484 1816.36 511.173C1610.75 678.789 1491.55 700.753 1345.32 688.26C1483.21 697.067 1600.99 669.819 1797.81 509.369C1871.05 449.663 1939.16 409.854 2000 383.666V382.076C1938.88 408.309 1870.46 448.246 1796.88 508.227C1591.28 675.843 1472.08 697.807 1325.85 685.314C1463.74 694.121 1581.52 666.873 1778.34 506.423C1859.5 440.263 1934.35 398.534 2000 372.701V371.136C1934.08 397.003 1858.91 438.845 1777.41 505.281C1571.8 672.897 1452.61 694.862 1306.38 682.369C1444.27 691.175 1562.05 663.927 1758.87 503.478C1848.16 430.68 1929.83 387.464 2000 362.456V360.909C1929.56 385.94 1847.58 429.262 1757.94 502.336C1552.33 669.952 1433.14 691.916 1286.91 679.423C1424.8 688.23 1542.58 660.982 1739.39 500.532C1837.08 420.895 1925.64 376.653 2000 352.93V351.399C1925.37 375.14 1836.49 419.482 1738.47 499.39C1532.86 667.004 1413.67 688.972 1267.44 676.477C1405.32 685.284 1523.1 658.036 1719.92 497.586C1826.29 410.877 1921.82 366.129 2000 344.142V342.632C1921.56 364.627 1825.69 409.463 1719 496.444C1513.39 664.059 1394.19 686.026 1247.96 673.532C1385.85 682.338 1503.63 655.09 1700.45 494.641C1815.82 400.591 1918.45 355.905 2000 336.091V334.596C1918.18 354.415 1815.22 399.182 1699.52 493.499C1493.92 661.115 1374.72 683.079 1228.49 670.587C1366.38 679.393 1484.16 652.147 1680.98 491.696C1805.73 389.996 1915.59 346.011 2000 328.789V327.299Z" fill="#ACBAC9" fill-opacity="0.19"/>
<path fill-rule="evenodd" clip-rule="evenodd" d="M578.401 622.828C578.694 627.772 579.235 632.533 580.013 637.118ZM1473.69 706.118C1474.66 707.879 1475.69 709.76 1476.76 711.745ZM1476.76 711.745C1477.72 713.513 1478.68 715.311 1479.64 717.144ZM1479.64 717.144C1480.59 718.928 1481.55 720.772 1482.53 722.688ZM1482.53 722.688C1483.5 724.583 1484.4 726.357 1485.23 728.02ZM1485.23 728.02C1486.03 729.622 1486.93 731.465 1487.92 733.48ZM1487.92 733.48C1488.77 735.225 1489.62 736.988 1490.47 738.76ZM1490.47 738.76C1491.33 740.547 1492.18 742.351 1493.03 744.155ZM1493.03 744.155C1493.84 745.896 1494.65 747.645 1495.45 749.389ZM1495.45 749.389H1495.46C1496.27 751.167 1497.09 752.951 1497.89 754.732M1497.89 754.732C1498.67 756.477 1499.45 758.21 1500.21 759.929ZM1500.21 759.929C1500.9 761.486 1501.67 763.242 1502.53 765.224ZM1502.53 765.224C1503.33 767.073 1504.09 768.826 1504.75 770.382ZM1504.75 770.382L1506.09 773.527ZM1523.74 818.136C1523.02 816.203 1522.3 814.282 1521.58 812.376L1523.47 817.419C1526.15 824.621 1528.83 832.008 1531.51 839.588C1528.9 832.212 1526.31 825.062 1523.74 818.136ZM1506.09 773.527L1505.33 771.729ZM1505.33 771.729C1504.58 769.967 1503.85 768.246 1503.13 766.586ZM1503.13 766.586H1503.13ZM1503.13 766.586C1502.35 764.781 1501.58 763.019 1500.83 761.31ZM1500.83 761.31C1500 759.436 1499.24 757.706 1498.53 756.128ZM1498.53 756.128C1497.72 754.314 1496.91 752.541 1496.12 750.804ZM1496.12 750.804C1495.44 749.319 1494.62 747.56 1493.7 745.584ZM1493.7 745.584C1492.85 743.761 1492.01 741.965 1491.17 740.206ZM1491.17 740.206C1490.28 738.336 1489.43 736.571 1488.64 734.939ZM1488.64 734.939C1487.75 733.106 1486.86 731.289 1485.97 729.5ZM1485.97 729.5C1485.12 727.787 1484.23 726.023 1483.3 724.192ZM1483.3 724.192C1482.25 722.134 1481.31 720.3 1480.46 718.675ZM1480.46 718.675C1479.52 716.869 1478.57 715.077 1477.62 713.301ZM1477.62 713.301C1475.66 709.639 1473.67 706.031 1471.65 702.475ZM1282.82 600.903V600.905L1281.21 601.365L1282.47 601.008H1282.48L1284.13 600.548V600.546L1284.68 600.393L1284.68 600.39L1286.2 599.982H1286.2L1287.71 599.587C1288.76 599.317 1289.78 599.057 1290.75 598.819C1291.76 598.57 1292.77 598.328 1293.77 598.099H1293.78L1295.98 597.608L1295.98 597.605L1298.18 597.139H1298.18L1299.31 596.902L1299.31 596.9C1300.08 596.748 1300.93 596.582 1301.88 596.408C1302.82 596.237 1303.66 596.085 1304.44 595.952C1305.16 595.828 1305.99 595.694 1306.87 595.556C1307.77 595.416 1308.57 595.297 1309.29 595.193C1309.95 595.1 1310.66 595.003 1311.44 594.902C1312.24 594.799 1312.95 594.711 1313.59 594.637H1313.59L1313.91 594.603C1314.59 594.526 1315.32 594.448 1316.09 594.371H1316.1L1318.27 594.171L1318.28 594.168L1319.93 594.03H1319.95L1321.6 593.915H1321.62L1322.41 593.875C1323.04 593.84 1323.69 593.804 1324.36 593.776C1324.99 593.749 1325.65 593.723 1326.31 593.705H1326.31L1328.14 593.66H1328.15C1328.75 593.65 1329.37 593.642 1329.99 593.641H1330L1330.5 593.647L1331.67 593.658H1331.68L1332.86 593.678L1333.38 593.686H1333.4L1334.69 593.727H1334.7L1335.99 593.783L1336.54 593.808H1336.55L1338 593.886H1338.01L1339.47 593.981H1339.48L1339.98 594.022L1339.98 594.025H1339.99V594.024C1340.66 594.074 1341.33 594.122 1342.13 594.199L1342.44 594.227H1342.44L1343.06 594.288H1343.08L1343.88 594.382H1343.88L1344.46 594.452L1345.37 594.56L1345.67 594.593H1345.67L1346.5 594.691L1346.51 594.694L1347.26 594.793L1347.28 594.795L1348.18 594.936V594.933L1348.66 595.007L1348.66 595.01L1349.47 595.135L1349.7 595.171L1350.34 595.269V595.268L1350.43 595.281L1350.43 595.284L1350.72 595.33H1350.73C1361.14 597.092 1371.43 600.299 1381.62 605.208C1391.81 610.112 1401.9 616.722 1411.93 625.295C1414.5 627.5 1417.08 629.837 1419.66 632.309C1422.21 634.762 1424.78 637.37 1427.37 640.13H1427.37C1429.28 642.17 1431.19 644.302 1433.12 646.515C1435.05 648.738 1436.96 651.027 1438.86 653.377C1440.42 655.314 1442 657.332 1443.59 659.421C1445.15 661.471 1446.73 663.607 1448.32 665.81C1449.7 667.72 1451.08 669.666 1452.44 671.644C1453.79 673.608 1455.16 675.643 1456.55 677.744L1456.55 677.743C1457.82 679.666 1459.05 681.571 1460.25 683.453C1461.44 685.333 1462.66 687.29 1463.9 689.325C1465.03 691.176 1466.15 693.032 1467.26 694.892C1468.27 696.596 1469.27 698.313 1470.26 700.038C1469.58 698.849 1468.91 697.684 1468.24 696.543C1467.19 694.746 1466.09 692.899 1464.95 691.012C1463.74 689.016 1462.54 687.062 1461.36 685.163C1460.12 683.193 1458.92 681.304 1457.76 679.526C1456.42 677.455 1455.08 675.45 1453.77 673.512C1452.45 671.567 1451.1 669.632 1449.74 667.712C1448.2 665.536 1446.66 663.435 1445.14 661.407C1443.62 659.381 1442.09 657.386 1440.54 655.427C1438.7 653.103 1436.88 650.862 1435.07 648.718C1433.26 646.559 1431.43 644.468 1429.6 642.452C1427.24 639.844 1424.85 637.339 1422.44 634.934C1420.05 632.549 1417.66 630.281 1415.26 628.125C1410.99 624.276 1406.7 620.786 1402.42 617.647C1398.14 614.514 1393.83 611.716 1389.51 609.239C1384.37 606.301 1379.22 603.823 1374.06 601.77C1368.89 599.713 1363.69 598.075 1358.47 596.822C1357.72 596.64 1356.88 596.45 1355.97 596.255C1355.14 596.076 1354.3 595.905 1353.47 595.746L1353.39 595.731H1353.39L1353 595.658H1353L1352.79 595.616V595.615L1352.09 595.481L1351.91 595.446V595.448L1350.78 595.249L1350.72 595.238L1350.7 595.235L1349.52 595.053H1349.51L1349.07 594.987L1349.05 594.982L1349.01 594.975L1348.5 594.894H1348.5C1348.04 594.821 1347.57 594.745 1347.08 594.68L1347.06 594.677L1347.04 594.674C1346.56 594.612 1346.01 594.549 1345.47 594.487L1344.76 594.407H1344.75L1344.46 594.373C1343.67 594.282 1342.9 594.193 1342.22 594.13V594.131L1341.15 594.044L1340.63 594.001L1339.39 593.904V593.902L1338.11 593.821L1336.82 593.752L1336.36 593.73L1334.73 593.662L1333.11 593.616L1331.91 593.597L1330.71 593.588L1329.69 593.581L1328.98 593.596H1328.97L1327.5 593.619L1326.03 593.656C1325.42 593.677 1324.78 593.703 1324.12 593.734L1322.2 593.839C1321.57 593.876 1320.91 593.922 1320.21 593.973H1320.21C1319.59 594.017 1318.91 594.075 1318.21 594.134V594.131L1316.16 594.324V594.326L1314.1 594.546V594.547L1312.49 594.74V594.738L1310.88 594.943V594.945L1309.85 595.086V595.088L1307.69 595.407C1306.92 595.523 1306.2 595.64 1305.53 595.75L1303.35 596.127V596.125L1301.19 596.525V596.526L1299.05 596.947V596.946L1296.93 597.39L1296 597.588V597.586L1294.53 597.914V597.916L1293.05 598.257V598.258L1292.14 598.473H1292.14L1291.44 598.637L1290.34 598.898V598.897C1289.13 599.198 1287.87 599.523 1286.59 599.865C1285.32 600.205 1284.05 600.554 1282.82 600.903ZM1267.51 605.703L1267.17 605.821L1267.51 605.704L1269.44 605.061L1270.14 604.826V604.825L1270.84 604.591L1271.03 604.525L1270.66 604.649V604.647L1269.09 605.167V605.168L1267.51 605.704V605.703ZM1265.06 606.557V606.558L1264.93 606.603L1265.27 606.484L1265.06 606.557ZM1244.51 614.439V614.441L1244.29 614.529L1245.95 613.852C1247.02 613.415 1248.3 612.9 1249.71 612.336L1250.39 612.066L1250.39 612.064L1252.68 611.165H1252.68L1254.96 610.282L1254.96 610.279L1257.22 609.419H1257.23L1259.48 608.578L1259.48 608.575L1260.75 608.11H1260.75L1263.14 607.239L1262.59 607.437L1260.9 608.048V608.049L1259.21 608.675V608.674C1258.32 609.002 1257.37 609.36 1256.14 609.828H1256.14C1255.07 610.232 1254.04 610.631 1253.06 611.01V611.011L1250.68 611.949V611.947L1248.27 612.908V612.91L1246.39 613.671V613.67L1244.51 614.439ZM1241.11 615.852L1239.5 616.531L1241.62 615.638L1241.11 615.853V615.852ZM1232.92 619.349V619.351L1231.62 619.925H1231.62L1234.51 618.666H1234.51C1236.06 617.996 1237.58 617.344 1239.07 616.715V616.713L1237.7 617.292V617.293L1236.58 617.769V617.767L1232.92 619.349ZM1187.56 640.337V640.338L1185.99 641.085H1185.99L1188.79 639.756V639.754L1190.39 638.991H1190.39L1196.03 636.311L1198.65 635.072L1201.91 633.528H1201.92L1207.9 630.713L1208.55 630.408L1208.56 630.405L1214.17 627.797H1214.17L1218.56 625.781L1220.62 624.84L1220.63 624.836L1224.03 623.296H1224.03L1227.42 621.777H1227.43L1228.71 621.208V621.205L1231.32 620.057L1229.24 620.967V620.969L1227.39 621.789V621.788L1224.81 622.945V622.946L1222.21 624.118V624.117L1217.28 626.362L1215.53 627.164V627.166L1212.31 628.658V628.659L1209.06 630.169L1209.06 630.166L1207.3 630.99L1202.84 633.084V633.085L1197.41 635.656L1196.75 635.968L1190.87 638.761L1187.56 640.337ZM1157.58 654.49L1155.51 655.449L1158.81 653.923V653.924L1163.83 651.58L1168.9 649.198L1169.07 649.118V649.116L1174.13 646.726L1178.94 644.44L1179.42 644.211L1184.82 641.643V641.641L1185.05 641.532H1185.05L1179.42 644.208L1177.7 645.024L1173.84 646.86L1168.37 649.445L1167.83 649.7H1167.82L1162.96 651.982V651.986L1157.58 654.49L1157.58 654.49ZM1149.68 658.128L1147.64 659.057L1149.06 658.414V658.415L1153.87 656.21V656.209L1154.96 655.706H1154.95L1152.32 656.918L1149.68 658.125L1149.68 658.128ZM1131.33 666.304L1128.81 667.391L1130.48 666.674L1130.48 666.677C1131.86 666.082 1133.37 665.424 1135 664.708V664.707L1137.29 663.699L1139.57 662.687V662.688L1144.27 660.582L1144.43 660.511H1144.43L1141.81 661.686L1139.21 662.846L1139.2 662.849L1136.6 663.999H1136.6L1133.98 665.153L1131.34 666.301L1131.33 666.304ZM1123.49 669.657V669.658L1126.02 668.59V668.588L1128.25 667.635V667.633L1128.74 667.424H1128.74L1126.13 668.54H1126.13L1123.49 669.657ZM1122.86 669.924L1121.1 670.662L1121.76 670.387V670.389L1122.86 669.924ZM1110.33 675.061L1110 675.19V675.191L1110.33 675.061ZM1113.69 673.709L1113.58 673.756L1113.69 673.71V673.709ZM1106.9 676.419L1104.64 677.3L1106.33 676.64L1106.9 676.419ZM1101.2 678.619L1101.2 678.622L1104.22 677.461H1104.22L1101.2 678.619ZM1094.82 681.009L1094.82 681.01C1096.95 680.228 1099.06 679.435 1101.17 678.634L1098.17 679.766H1098.17L1094.82 681.009ZM1076.83 687.281L1076.34 687.442L1077.6 687.028L1076.83 687.281ZM1070.32 689.368H1070.31ZM1070.31 689.368L1069.37 689.66ZM1069.37 689.66V689.661ZM932.516 724.194C929.223 724.83 925.926 725.452 922.628 726.06C925.928 725.452 929.223 724.83 932.516 724.194ZM637.756 714.887C637.136 714.555 636.521 714.221 635.91 713.881C636.521 714.22 637.138 714.555 637.756 714.887ZM601.065 685.175C595.536 678.268 590.916 670.632 587.307 662.219C590.915 670.63 595.529 678.259 601.045 685.156C604.67 689.683 608.687 693.898 613.067 697.812C608.695 693.904 604.685 689.695 601.065 685.175ZM580.013 637.118C579.235 632.521 578.693 627.745 578.399 622.787ZM580.582 640.229C580.388 639.242 580.206 638.246 580.034 637.242C580.206 638.246 580.388 639.243 580.582 640.229ZM581.582 644.834C581.247 643.43 580.938 642.007 580.65 640.567C580.938 642.007 581.247 643.428 581.582 644.834ZM583.345 651.342C583.154 650.715 582.97 650.083 582.79 649.449C582.97 650.083 583.154 650.713 583.345 651.342ZM578.218 618.774C578.166 617.169 578.141 615.546 578.141 613.907C578.141 615.548 578.167 617.171 578.218 618.774ZM578.399 622.787C578.343 621.823 578.294 620.854 578.256 619.876ZM582.698 472.608C575.53 447.558 558.501 434.168 526.066 429.406C558.53 434.179 575.575 447.739 582.753 473.158C589.112 495.682 587.651 527.518 582.301 570.852C587.692 527.202 589.155 495.168 582.698 472.608ZM494.321 427.381C446.505 427.336 376.345 437.576 275.5 453.5C376.345 437.578 446.505 427.337 494.321 427.381ZM126.932 476.949C99.3202 481.226 73.0537 483.254 48.1051 483.239C73.054 483.254 99.3204 481.226 126.932 476.949ZM1235.22 625.243L1235.05 625.275ZM1571.15 510.683H1571.16L1572.22 510.18L1571.15 510.683ZM1563.08 514.488L1563.16 514.486L1567.53 512.41L1567.46 512.414L1563.08 514.488ZM1559.37 514.607H1559.39L1560.46 514.1L1559.37 514.607ZM1554.88 518.384H1554.97L1559.74 516.113L1559.64 516.119L1554.88 518.384ZM1551.32 518.406L1551.4 518.404L1555.75 516.335L1555.69 516.342L1551.32 518.406ZM1547.61 518.526L1547.63 518.524L1548.69 518.02L1547.61 518.526ZM1543.44 523.84H1543.41L1540.15 525.39L1543.44 523.84ZM1546.52 522.363L1546.57 522.366L1551.72 519.928L1551.63 519.929L1550.98 520.239L1546.52 522.363ZM1543.11 522.302L1543.21 522.304L1547.98 520.031L1547.88 520.037L1543.11 522.302ZM1539.55 522.326L1539.64 522.324L1543.99 520.254L1543.93 520.258L1539.55 522.326ZM1535.85 522.445L1535.86 522.444L1536.93 521.939L1535.85 522.445ZM1531.68 527.759H1531.65L1528.38 529.309L1531.68 527.759ZM1534.75 526.282L1534.81 526.285L1539.96 523.846L1539.87 523.848L1539.21 524.159L1534.75 526.282ZM1531.35 526.222L1531.44 526.223L1536.23 523.949L1536.12 523.954L1531.35 526.222ZM1527.79 526.245L1527.87 526.244L1532.23 524.17L1532.17 524.176L1527.79 526.245ZM1524.09 526.365L1524.1 526.364L1525.17 525.859L1524.09 526.365ZM1519.91 531.681H1519.88L1516.62 533.229L1519.91 531.681ZM1522.99 530.203L1523.04 530.206L1528.2 527.766L1528.11 527.767L1527.45 528.078L1522.99 530.203ZM1519.58 530.143L1519.68 530.144L1524.46 527.869L1524.36 527.873L1519.58 530.143ZM1516.02 530.167L1516.11 530.165L1520.47 528.09L1520.41 528.096L1516.02 530.167ZM1512.32 530.286L1512.33 530.284L1513.4 529.778L1512.32 530.286ZM1508.15 535.603L1508.11 535.602L1504.86 537.148L1508.15 535.603ZM1511.22 534.126L1511.27 534.129L1516.43 531.687L1516.34 531.688L1515.69 531.998L1511.22 534.126ZM1507.82 534.066H1507.91L1512.69 531.79L1512.59 531.796L1507.82 534.066ZM1504.26 534.088L1504.34 534.086L1508.7 532.013L1508.64 532.017L1504.26 534.088ZM1500.55 534.208H1500.57L1501.64 533.698L1500.55 534.208ZM1496.38 539.523H1496.35L1493.09 541.069L1496.38 539.523ZM1499.46 538.046L1499.51 538.049L1504.66 535.61L1504.57 535.611L1503.92 535.918L1499.46 538.046ZM1496.05 537.985L1496.14 537.987L1500.92 535.713L1500.82 535.718L1496.05 537.985ZM1492.49 538.009L1492.57 538.008L1496.93 535.934L1496.87 535.938L1492.49 538.009ZM1488.76 538.13L1488.8 538.128L1491.05 537.058L1488.76 538.13ZM1484.61 543.444H1484.58L1481.33 544.988L1484.61 543.444ZM1487.69 541.967L1487.74 541.97L1492.9 539.529L1492.81 539.53L1492.16 539.838L1487.69 541.967ZM1484.29 541.907H1484.38L1489.16 539.633L1489.06 539.638L1484.29 541.907ZM1480.71 541.93L1480.81 541.927L1485.17 539.855L1485.08 539.863L1480.71 541.93ZM1476.97 542.051L1477.01 542.048L1479.87 540.697L1476.97 542.051ZM1472.93 547.327L1472.9 547.326L1469.56 548.908L1472.93 547.327ZM1475.88 545.908L1475.93 545.911L1481.13 543.45L1481.04 543.452L1480.4 543.757L1475.88 545.908ZM1472.48 545.837H1472.59L1477.39 543.554L1477.27 543.561L1472.48 545.837ZM1468.89 545.863L1469 545.86L1473.38 543.778L1473.28 543.786L1468.89 545.863ZM1465.19 545.982H1465.2L1465.98 545.609L1465.19 545.982ZM1461.16 551.251H1461.1L1456.54 553.418L1461.16 551.251ZM1464.09 549.833L1464.16 549.835L1469.44 547.335L1469.33 547.338L1468.62 547.673L1464.09 549.833ZM1460.68 549.762L1460.8 549.764L1465.66 547.448L1465.54 547.454L1460.68 549.762ZM1457.14 549.778L1457.22 549.777L1461.64 547.673L1461.58 547.678L1457.14 549.778ZM1449.38 555.168H1449.32L1444.14 557.624L1449.38 555.168ZM1452.31 553.748L1452.39 553.75L1457.65 551.257L1457.54 551.259L1456.85 551.586L1452.31 553.748ZM1448.91 553.685H1449.01L1453.88 551.368L1453.77 551.374L1448.91 553.685ZM1445.38 553.704L1445.44 553.702L1449.86 551.6L1449.83 551.601L1445.38 553.704ZM1311.33 599.041L1311.1 599.152L1311.26 599.116L1311.49 599.009L1311.33 599.041ZM1437.59 559.088H1437.56L1434.67 560.459L1437.59 559.088ZM1440.53 557.673L1440.58 557.676L1445.85 555.182L1445.77 555.183L1445.08 555.508L1440.53 557.673ZM1437.17 557.602H1437.25L1442.11 555.288L1442.03 555.291L1437.17 557.602ZM1433.63 557.627H1433.69L1438.11 555.52L1438.08 555.523L1433.63 557.627ZM1429.92 557.744L1429.94 557.742L1431.7 556.91L1429.92 557.744ZM1299.54 602.971L1299.34 603.066L1299.51 603.03L1299.71 602.939L1299.54 602.971ZM1305.43 600.179L1304.97 600.397L1305.1 600.369L1305.56 600.154L1305.43 600.179ZM1425.82 563.012H1425.8L1424.17 563.786L1425.82 563.012ZM1428.78 561.595H1428.82L1434.1 559.099L1434.02 559.1L1433.33 559.431L1428.78 561.595ZM1425.42 561.525H1425.49L1430.36 559.21L1430.28 559.213L1425.42 561.525ZM1421.86 561.547L1421.95 561.544L1426.37 559.438L1426.31 559.442L1421.86 561.547ZM1418.14 561.668L1418.16 561.666L1419.6 560.987L1418.14 561.668ZM1287.8 606.878L1287.58 606.984L1287.75 606.949L1287.97 606.846L1287.8 606.878ZM1293.64 604.109L1293.22 604.309L1293.35 604.281L1293.77 604.084L1293.64 604.109ZM1299.69 601.253L1299.01 601.574L1299.07 601.562L1299.74 601.246L1299.69 601.253ZM1414.06 566.938H1414.05L1412.97 567.448L1414.06 566.938ZM1417.04 565.515L1417.07 565.517L1422.35 563.018L1422.28 563.02L1421.58 563.356L1417.04 565.515ZM1413.64 565.447H1413.75L1418.62 563.132L1418.5 563.136L1413.64 565.447ZM1410.09 565.466L1410.18 565.464L1414.61 563.358L1414.54 563.362L1410.09 565.466ZM1406.37 565.591L1406.39 565.589L1407.49 565.065L1406.37 565.591ZM1276.04 610.799L1275.8 610.912L1275.96 610.878L1276.2 610.77L1276.04 610.799ZM1281.92 608.012L1281.47 608.226L1281.59 608.201L1282.04 607.99L1281.92 608.012ZM1287.93 605.179L1287.28 605.484L1287.32 605.476L1287.96 605.173L1287.93 605.179ZM1402.31 570.859H1402.27L1398.08 572.848L1402.31 570.859ZM1405.27 569.435L1405.33 569.437L1410.6 566.942L1410.5 566.944L1409.81 567.275L1405.27 569.435ZM1401.87 569.368H1401.97L1406.83 567.056L1406.72 567.062L1401.87 569.368ZM1398.33 569.384L1398.41 569.383L1402.83 567.282L1402.77 567.286L1398.33 569.384ZM1394.61 569.51H1394.62L1395.5 569.094L1394.61 569.51ZM1264.25 614.734L1264.08 614.814L1264.24 614.782L1264.4 614.705L1264.25 614.734ZM1270.16 611.93L1269.69 612.155L1269.81 612.132L1270.27 611.91L1270.16 611.93ZM1276.21 609.083L1275.54 609.398L1275.57 609.393L1276.23 609.078L1276.21 609.083ZM1390.54 574.779H1390.5L1386.94 576.47L1390.54 574.779ZM1393.5 573.355L1393.56 573.356L1398.82 570.866L1398.72 570.868L1398.04 571.194L1393.5 573.355ZM1390.11 573.288H1390.2L1395.06 570.979L1394.96 570.983L1390.11 573.288ZM1386.56 573.307L1386.65 573.304L1391.06 571.204L1391 571.209L1386.56 573.307ZM1382.85 573.43H1382.86L1383.4 573.175L1382.85 573.43ZM1252.55 618.628L1252.32 618.74L1252.46 618.711L1252.69 618.601L1252.55 618.628ZM1258.38 615.866L1257.98 616.055L1258.09 616.032L1258.48 615.846L1258.38 615.866ZM1264.46 612.999L1263.76 613.33L1263.79 613.324L1264.48 612.996L1264.46 612.999ZM1378.77 578.702H1378.73L1375.48 580.244L1378.77 578.702ZM1381.72 577.279L1381.78 577.282L1387.05 574.786H1386.96L1386.27 575.115L1381.72 577.279ZM1378.34 577.211L1378.43 577.212L1383.29 574.9L1383.19 574.904L1378.34 577.211ZM1374.79 577.233L1374.87 577.231L1379.29 575.127L1379.23 575.131L1374.79 577.233ZM1371.09 577.353H1371.1L1371.98 576.934L1371.09 577.353ZM1235.05 625.275L1235.04 625.278L1235.21 625.243M1240.75 622.564L1240.56 622.654L1240.73 622.618L1240.92 622.532L1240.75 622.564ZM1246.66 619.764L1246.19 619.986L1246.32 619.959L1246.78 619.74L1246.66 619.764ZM1252.65 616.939L1252.02 617.231L1252.08 617.222L1252.68 616.934L1252.65 616.939ZM1367 582.621H1366.97L1363.94 584.06L1367 582.621ZM1369.96 581.2L1370.01 581.201L1375.29 578.706L1375.2 578.709L1374.51 579.037L1369.96 581.2ZM1366.58 581.13H1366.67L1371.53 578.821L1371.43 578.824L1366.58 581.13ZM1363.02 581.153L1363.11 581.151L1367.52 579.051L1367.46 579.054L1363.02 581.153ZM1359.32 581.275H1359.33L1360.03 580.94L1359.32 581.275ZM1228.98 626.476L1228.73 626.595L1228.93 626.554L1229.17 626.439L1228.98 626.476ZM1234.82 623.706L1234.4 623.905L1234.56 623.874L1234.98 623.678L1234.82 623.706ZM1240.89 620.845L1240.2 621.169L1240.28 621.153L1240.96 620.831L1240.89 620.845ZM1358.21 585.117L1358.26 585.12L1363.51 582.635H1363.42L1362.75 582.956L1358.21 585.117ZM1354.83 585.046H1354.92L1359.77 582.741L1359.67 582.746L1354.83 585.046ZM1351.27 585.071L1351.35 585.07L1355.76 582.969L1355.71 582.974L1351.27 585.071ZM1347.57 585.192L1347.58 585.19L1348.34 584.826L1347.57 585.192ZM1211.49 633.122L1211.48 633.127L1211.63 633.097L1211.63 633.094L1211.49 633.122ZM1217.2 630.409L1217.01 630.498L1217.16 630.465L1217.34 630.381L1217.2 630.409ZM1223.11 627.607L1222.62 627.837L1222.73 627.815L1223.21 627.587L1223.11 627.607ZM1229.12 624.773L1228.48 625.077L1228.5 625.073L1229.13 624.772L1229.12 624.773ZM1332.23 590.812L1332.18 590.816L1329.43 592.115L1329.5 592.114L1332.23 590.812ZM1343.05 588.974L1343.14 588.976L1348.02 586.656L1347.92 586.661L1343.05 588.974ZM1339.49 589L1339.57 588.998L1344.02 586.882L1343.97 586.886L1339.49 589ZM1335.78 589.122H1335.79L1336.34 588.864L1335.78 589.122ZM1205.47 634.313L1205.22 634.434L1205.37 634.403L1205.62 634.285L1205.47 634.313ZM1211.32 631.541L1210.91 631.736L1211.03 631.714L1211.43 631.522L1211.32 631.541ZM1217.4 628.676L1216.69 629.01L1216.73 629.003L1217.42 628.672L1217.4 628.676ZM1117.56 672.133L1117.57 672.127L1117.64 672.098H1117.65L1119.7 671.246V671.245L1120.84 670.769H1120.84L1118.13 671.892H1118.13L1115.41 673.008L1115.41 673.011L1115.24 673.081L1115.62 672.925L1115.62 672.927L1117.54 672.14V672.139L1117.56 672.133ZM1026.78 702.118V702.12L1026.66 702.153C997.643 710.104 967.047 717.415 936.033 723.509C981.397 714.596 1025.86 703.083 1065.8 690.766C1060.07 692.533 1054.22 694.294 1048.26 696.037C1041.28 698.077 1034.12 700.108 1026.79 702.117L1026.78 702.118ZM536.175 425.995C500.761 421.166 447.318 426.373 368.945 437.799C440.979 427.569 490.912 423.12 524.703 427.728C558.825 432.38 576.652 446.119 584.115 472.203C591.524 498.089 588.631 536.133 581.341 589.6C579.725 601.454 579.264 612.476 579.869 622.701C580.491 633.201 582.239 642.871 585.012 651.749C588.854 664.047 594.677 674.841 602.213 684.251C610.099 694.099 619.865 702.443 631.208 709.428C642.079 716.121 654.408 721.578 667.928 725.919C682.14 730.483 697.667 733.82 714.199 736.072C755.809 741.745 803.796 740.584 853.343 734.972C864.785 733.677 876.311 732.142 887.858 730.402C830.252 738.362 773.737 740.892 725.66 734.337C692.102 729.761 662.637 720.758 639.757 706.097C616.822 691.398 600.498 671.017 593.292 643.716C588.87 626.966 587.887 607.617 590.917 585.388C605.332 479.672 602.458 435.034 536.175 425.995ZM1582.93 506.757L1583.98 506.26L1582.92 506.759L1582.93 506.757ZM1574.93 510.564L1579.3 508.484L1579.24 508.488L1574.85 510.565L1574.93 510.564ZM1566.73 514.466L1571.52 512.188L1571.42 512.193L1566.64 514.466H1566.73ZM1558.33 518.448L1563.48 516.009L1563.39 516.011L1562.74 516.319L1558.28 518.444L1558.33 518.448ZM1551.91 521.47L1555.21 519.921H1555.17L1551.91 521.47ZM1353.85 587.19L1353.88 587.181L1355.25 586.537H1355.22L1353.85 587.19ZM1347.31 588.625L1347.44 588.598L1351.76 586.548L1351.67 586.55L1350.98 586.877L1347.31 588.625ZM1334.64 591.304L1334.8 591.271L1336.24 590.585L1336.14 590.59L1334.64 591.304ZM1311.51 597.323L1311.46 597.332L1310.79 597.646L1310.85 597.633L1311.51 597.323ZM1317.33 596.231L1317.2 596.256L1316.76 596.466L1316.9 596.437L1317.33 596.231ZM7.82196 0C61.1148 147.163 199.131 395.811 515.021 346.872C553.148 340.965 588.437 335.353 620.917 330.191C770.857 306.355 860.942 292.034 912.806 299.106C980.379 308.319 983.368 353.405 968.812 460.151C966.555 476.705 966.542 491.642 968.531 505.075C973.159 536.325 988.645 559.46 1011.91 575.996C1035.24 592.574 1066.4 602.549 1102.29 607.442C1152.85 614.336 1212.81 611.154 1273.55 602.162C1275.12 601.66 1276.59 601.203 1277.96 600.791C1279.4 600.356 1280.89 599.921 1282.41 599.488H1282.41C1283.7 599.123 1284.97 598.772 1286.21 598.442C1287.44 598.114 1288.69 597.791 1289.97 597.472C1293.17 596.365 1296.34 595.319 1299.5 594.339C1303.4 592.957 1307.28 591.663 1311.13 590.465C1315.08 589.064 1319 587.754 1322.9 586.541C1326.85 585.14 1330.77 583.828 1334.67 582.617C1338.65 581.206 1342.6 579.883 1346.53 578.664C1350.44 577.277 1354.33 575.978 1358.19 574.775C1362.14 573.378 1366.05 572.069 1369.95 570.857C1373.92 569.448 1377.87 568.127 1381.79 566.908C1385.73 565.512 1389.65 564.2 1393.54 562.991C1397.45 561.602 1401.35 560.299 1405.22 559.095C1409.19 557.686 1413.14 556.366 1417.06 555.146C1418.11 554.775 1419.15 554.411 1420.19 554.052C1423.05 553.071 1425.89 552.141 1428.72 551.261C1429.8 550.879 1430.88 550.501 1431.95 550.132C1434.81 549.152 1437.64 548.225 1440.47 547.346C1441.55 546.961 1442.64 546.583 1443.72 546.211C1446.56 545.234 1449.39 544.312 1452.21 543.434C1453.3 543.045 1454.39 542.663 1455.48 542.29C1458.34 541.308 1461.18 540.378 1464.01 539.498C1465.09 539.114 1466.17 538.738 1467.24 538.368C1470.11 537.384 1472.96 536.452 1475.8 535.569C1476.87 535.19 1477.94 534.815 1479.01 534.449C1481.89 533.459 1484.75 532.523 1487.61 531.635C1488.67 531.258 1489.72 530.891 1490.77 530.529C1493.67 529.533 1496.56 528.592 1499.43 527.699C1500.47 527.33 1501.51 526.967 1502.54 526.611C1505.34 525.65 1508.12 524.743 1510.89 523.878C1512.03 523.473 1513.16 523.077 1514.29 522.688C1517.11 521.724 1519.9 520.808 1522.69 519.94C1523.81 519.542 1524.93 519.151 1526.05 518.766C1528.91 517.784 1531.75 516.855 1534.58 515.975C1535.66 515.593 1536.74 515.215 1537.81 514.846C1540.77 513.828 1543.73 512.864 1546.66 511.953C1547.64 511.608 1548.62 511.266 1549.59 510.931C1552.51 509.93 1555.41 508.982 1558.29 508.086C1559.32 507.722 1560.34 507.363 1561.36 507.012C1564.23 506.028 1567.09 505.096 1569.92 504.212C1570.99 503.833 1572.06 503.458 1573.13 503.092C1576 502.108 1578.85 501.176 1581.69 500.293C1582.76 499.912 1583.83 499.539 1584.89 499.173C1587.76 498.188 1590.61 497.257 1593.45 496.373C1594.52 495.994 1595.59 495.619 1596.66 495.253C1599.52 494.269 1602.38 493.336 1605.22 492.453C1606.29 492.074 1607.35 491.699 1608.42 491.333C1611.29 490.349 1614.14 489.414 1616.98 488.533C1618.05 488.154 1619.12 487.78 1620.18 487.414C1623.05 486.429 1625.9 485.496 1628.74 484.614C1629.81 484.234 1630.88 483.86 1631.95 483.494C1634.81 482.509 1637.67 481.578 1640.51 480.694C1641.58 480.315 1642.64 479.94 1643.71 479.574C1646.58 478.589 1649.43 477.659 1652.27 476.775C1653.34 476.395 1654.41 476.02 1655.47 475.654C1754.04 441.797 1836.34 465.107 1924.66 722.213C1948.65 792.056 1967.53 846.93 1983.6 888.888H1982.04C1965.97 846.906 1947.13 792.17 1923.26 722.69C1842.98 488.984 1767.91 449.287 1681.05 469.722C1763.59 455.616 1835.96 502.16 1912.9 726.132C1936.15 793.82 1954.6 847.451 1970.34 888.888H1968.78C1953.04 847.437 1934.63 793.948 1911.5 726.61C1831.22 492.905 1756.15 453.207 1669.29 473.641C1751.83 459.537 1824.2 506.078 1901.13 730.052C1923.66 795.626 1941.68 848.006 1957.09 888.888H1955.53C1940.12 848.001 1922.14 795.764 1899.74 730.53C1819.45 496.823 1744.38 457.13 1657.53 477.561C1740.06 463.457 1812.43 509.999 1889.37 733.971C1911.18 797.468 1928.77 848.593 1943.86 888.888H1942.3C1927.21 848.597 1909.67 797.62 1887.97 734.45C1807.69 500.743 1732.62 461.048 1645.76 481.481C1728.3 467.377 1800.67 513.919 1877.6 737.891C1898.72 799.347 1915.87 849.213 1930.63 888.888H1929.07C1914.31 849.228 1897.21 799.506 1876.21 738.37C1795.93 504.664 1720.85 464.967 1634 485.4C1716.53 471.296 1788.91 517.839 1865.84 741.811C1886.26 801.259 1902.98 849.863 1917.41 888.888H1915.85C1901.43 849.884 1884.76 801.431 1864.44 742.289C1785.66 512.947 1711.9 470.438 1627.09 488.239L1625.96 488.718C1706.96 476.654 1778.3 525.134 1854.08 745.731C1873.82 803.205 1890.1 850.543 1904.2 888.889H1902.65C1888.56 850.574 1872.32 803.382 1852.68 746.209C1775.43 521.314 1703 476.074 1620.25 491.189L1618.21 492.086C1697.55 482.219 1767.79 532.7 1842.31 749.651C1861.39 805.181 1877.23 851.25 1891 888.889H1889.44C1875.69 851.288 1859.89 805.37 1840.92 750.129C1765.14 529.533 1694.01 481.788 1613.22 494.307L1610.43 495.565C1688.15 487.888 1757.28 540.264 1830.55 753.571C1848.97 807.19 1864.37 851.985 1877.81 888.889H1876.25C1862.83 852.029 1847.48 807.385 1829.15 754.049C1754.8 537.599 1684.92 487.562 1606 497.585L1602.61 499.15C1678.72 493.63 1746.75 547.795 1818.79 757.491C1833.74 801.033 1846.72 838.761 1858.24 871.086C1860.42 877.21 1862.55 883.142 1864.63 888.889H1863.07C1861.04 883.294 1858.97 877.525 1856.85 871.577C1845.28 839.112 1832.32 801.439 1817.39 757.969C1744.41 545.519 1675.74 493.386 1598.6 501.008L1594.68 502.839C1669.26 499.424 1736.21 555.254 1807.02 761.41C1822.46 806.354 1835.79 845.117 1847.62 878.244C1848.92 881.86 1850.19 885.408 1851.45 888.889H1849.88C1848.68 885.565 1847.46 882.185 1846.23 878.74C1834.41 845.625 1821.07 806.849 1805.63 761.889C1733.97 553.276 1666.45 499.242 1591 504.569L1586.62 506.641C1659.71 505.236 1725.62 562.587 1795.26 765.331C1811.27 811.931 1825.01 851.878 1837.07 885.539L1838.27 888.889H1836.71L1835.69 886.035C1823.49 852.003 1809.8 812.209 1793.86 765.808C1723.46 560.842 1657.05 505.099 1583.19 508.269L1578.41 510.541C1650.08 511.057 1714.98 569.796 1783.5 769.25C1799.4 815.558 1813.07 855.31 1825.1 888.889H1823.53C1811.44 855.111 1797.87 815.649 1782.1 769.728C1712.88 568.228 1647.53 510.953 1575.16 512.087L1574.51 512.4L1570.04 514.526C1640.37 516.861 1704.3 576.866 1771.73 773.17C1787.02 817.685 1800.25 856.131 1811.94 888.889H1810.38C1798.65 856.02 1785.51 817.828 1770.34 773.648C1702.24 575.426 1637.9 516.78 1566.93 516.004L1561.48 518.591C1630.55 522.637 1693.56 583.77 1759.97 777.09C1774.64 819.81 1787.41 856.944 1798.77 888.889H1797.21C1785.85 856.953 1773.15 820.022 1758.57 777.568C1691.55 582.459 1628.16 522.57 1558.51 519.996L1552.69 522.731C1620.61 528.354 1682.75 590.474 1748.2 781.01C1762.28 821.993 1774.6 857.833 1785.62 888.89H1784.06C1773.06 857.872 1760.8 822.223 1746.81 781.488C1680.79 589.285 1618.28 528.296 1549.85 524.06C1547.81 525.011 1545.77 525.961 1543.72 526.909C1610.55 533.996 1671.89 597.007 1736.44 784.929C1749.93 824.196 1761.81 858.74 1772.47 888.89H1770.91C1760.27 858.802 1748.45 824.44 1735.04 785.407C1669.93 595.854 1608.24 533.935 1540.91 528.202C1538.78 529.18 1536.64 530.156 1534.49 531.127C1600.34 539.539 1660.94 603.313 1724.68 788.849C1737.58 826.41 1749.01 859.656 1759.32 888.889H1757.75C1747.48 859.757 1736.11 826.676 1723.28 789.327C1659.01 602.213 1598.06 539.466 1531.74 532.366C1529.51 533.371 1527.26 534.373 1525 535.366C1589.97 544.947 1649.91 609.368 1712.91 792.769C1725.24 828.666 1736.23 860.616 1746.18 888.889H1744.61C1734.71 860.724 1723.78 828.936 1711.52 793.247C1647.99 608.304 1587.72 544.862 1522.29 536.56C1519.95 537.579 1517.61 538.593 1515.26 539.596C1579.45 550.21 1638.8 615.185 1701.15 796.689C1712.92 830.941 1723.46 861.6 1733.04 888.889H1731.47C1721.93 861.696 1711.45 831.206 1699.75 797.167C1636.88 614.118 1577.19 550.097 1512.53 540.753C1510.1 541.782 1507.65 542.802 1505.19 543.811C1568.73 555.285 1627.59 620.706 1689.39 800.608C1700.59 833.227 1710.69 862.586 1719.9 888.89H1718.33C1709.16 862.697 1699.13 833.501 1687.99 801.087C1625.66 619.62 1566.45 555.136 1502.44 544.933C1499.88 545.97 1497.31 546.994 1494.72 548.005C1500.81 549.181 1506.86 550.854 1512.88 553.084C1569.12 573.928 1622.2 643.174 1677.62 804.528C1688.27 835.533 1697.92 863.594 1706.76 888.89H1705.2C1696.4 863.712 1686.81 835.812 1676.23 805.007C1620.97 644.141 1568.19 575.159 1512.37 554.468C1505.66 551.981 1498.9 550.197 1492.08 549.031C1489.38 550.076 1486.65 551.106 1483.92 552.115C1490.83 553.51 1497.68 555.551 1504.5 558.32C1559.48 580.662 1611.54 650.329 1665.86 808.448C1675.96 837.859 1685.16 864.624 1693.63 888.889H1692.07C1683.64 864.748 1674.5 838.144 1664.46 808.926C1610.31 651.273 1558.54 581.87 1503.94 559.686C1496.43 556.631 1488.85 554.479 1481.21 553.108C1478.37 554.14 1475.52 555.152 1472.65 556.141C1480.52 557.763 1488.32 560.226 1496.06 563.653C1549.82 587.432 1600.88 657.439 1654.1 812.367C1663.66 840.205 1672.41 865.671 1680.5 888.889H1678.94C1670.89 865.795 1662.2 840.492 1652.7 812.845C1599.64 658.364 1548.86 588.616 1495.47 565.001C1487 561.258 1478.47 558.678 1469.85 557.1C1467.13 558.021 1464.4 558.92 1461.65 559.797L1460.88 560.062C1469.87 561.914 1478.76 564.866 1487.59 569.091C1540.15 594.251 1590.2 664.524 1642.33 816.287C1651.36 842.568 1659.66 866.732 1667.37 888.889H1665.81C1658.15 866.861 1649.9 842.855 1640.94 816.765C1588.95 665.425 1539.16 595.406 1486.96 570.416C1477.43 565.856 1467.81 562.798 1458.08 561.021C1455.36 561.94 1452.63 562.84 1449.89 563.717L1449.12 563.982C1459.21 566.064 1469.19 569.528 1479.08 574.628C1530.45 601.104 1579.51 671.574 1630.57 820.206C1639.07 844.946 1646.92 867.809 1654.25 888.889H1652.68C1645.41 867.939 1637.6 845.235 1629.17 820.685C1578.26 672.458 1529.44 602.241 1478.41 575.936C1467.82 570.482 1457.14 566.922 1446.31 564.943C1443.6 565.864 1440.87 566.761 1438.12 567.636L1437.37 567.899C1448.55 570.207 1459.59 574.221 1470.54 580.272C1520.74 608.011 1568.82 678.607 1618.8 824.127C1626.78 847.339 1634.19 868.902 1641.12 888.889H1639.56C1632.67 869.034 1625.32 847.632 1617.41 824.605C1567.56 679.477 1519.72 609.13 1469.84 581.565C1458.21 575.141 1446.46 571.043 1434.55 568.863C1431.83 569.782 1429.1 570.679 1426.36 571.556L1425.59 571.823C1437.87 574.355 1449.99 578.944 1462 586.032C1511.04 614.983 1558.12 685.634 1607.04 828.046C1614.5 849.749 1621.46 870.008 1628 888.889H1626.44C1619.94 870.144 1613.04 850.043 1605.64 828.524C1556.85 686.486 1509.99 616.077 1461.25 587.301C1448.58 579.82 1435.78 575.164 1422.77 572.787C1420.06 573.704 1417.33 574.601 1414.6 575.476L1413.83 575.743C1427.21 578.503 1440.4 583.703 1453.47 591.922C1501.34 622.042 1547.43 692.68 1595.28 831.966C1602.22 852.176 1608.73 871.131 1614.88 888.889H1613.32C1607.22 871.268 1600.76 852.472 1593.88 832.444C1546.16 693.512 1500.28 623.112 1452.68 593.168C1438.97 584.54 1425.1 579.283 1411 576.708C1408.29 577.624 1405.57 578.52 1402.83 579.396L1402.06 579.664C1416.57 582.658 1430.85 588.519 1444.99 597.983C1491.69 629.241 1536.77 699.793 1583.51 835.886C1589.95 854.615 1596.01 872.267 1601.76 888.889H1600.2C1594.5 872.406 1588.49 854.914 1582.12 836.364C1535.48 700.606 1490.61 630.284 1444.18 599.205C1429.4 589.314 1414.45 583.406 1399.24 580.629C1396.53 581.546 1393.8 582.441 1391.07 583.315L1390.29 583.584C1406 586.82 1421.44 593.421 1436.71 604.31C1482.17 636.71 1526.16 707.098 1571.75 839.806C1577.68 857.071 1583.3 873.418 1588.64 888.889H1587.08C1581.79 873.56 1576.22 857.371 1570.35 840.284C1524.88 707.894 1481.07 637.732 1435.86 605.508C1419.96 594.176 1403.87 587.547 1387.47 584.55C1384.76 585.467 1382.04 586.359 1379.31 587.235L1378.55 587.498C1395.64 591.023 1412.4 598.535 1428.99 611.209C1473.02 644.852 1515.75 714.946 1559.99 843.725C1565.42 859.537 1570.59 874.584 1575.52 888.889H1573.96C1569.08 874.726 1563.96 859.84 1558.59 844.203C1514.46 715.724 1471.9 645.846 1428.09 612.378C1410.89 599.234 1393.49 591.717 1375.71 588.467C1372.91 589.417 1370.09 590.344 1367.25 591.247L1366.75 591.421C1385.95 595.38 1404.74 604.357 1423.34 620.046C1465.21 655.39 1506.03 724.827 1548.22 847.645C1553.16 862.02 1557.88 875.76 1562.41 888.889H1560.85C1556.37 875.905 1551.7 862.324 1546.83 848.123C1504.73 725.576 1464.06 656.345 1422.39 621.171C1403.2 604.977 1383.79 596.013 1363.91 592.39C1361.44 593.228 1358.95 594.049 1356.45 594.851C1357.18 595.009 1357.96 595.191 1358.81 595.393C1364.11 596.665 1369.38 598.324 1374.61 600.403C1379.85 602.49 1385.06 604.997 1390.24 607.958C1394.59 610.45 1398.94 613.281 1403.29 616.46C1407.62 619.635 1411.95 623.156 1416.25 627.03C1418.66 629.204 1421.08 631.49 1423.48 633.889C1425.86 636.27 1428.27 638.795 1430.69 641.466C1432.53 643.489 1434.36 645.594 1436.2 647.774C1438.04 649.967 1439.88 652.218 1441.69 654.515C1443.22 656.45 1444.77 658.454 1446.32 660.525C1447.87 662.598 1449.41 664.708 1450.94 666.859C1452.26 668.726 1453.62 670.675 1454.98 672.688C1456.34 674.682 1457.68 676.695 1459 678.725C1460.24 680.634 1461.44 682.52 1462.61 684.384C1463.82 686.319 1465.02 688.278 1466.21 690.25C1467.27 691.992 1468.37 693.845 1469.51 695.799C1470.63 697.708 1471.73 699.62 1472.81 701.53C1474.82 705.069 1476.85 708.758 1478.91 712.61C1479.86 714.372 1480.81 716.171 1481.76 717.997C1482.81 720.004 1483.77 721.856 1484.61 723.522C1485.46 725.186 1486.36 726.976 1487.29 728.849C1488.18 730.647 1489.07 732.469 1489.96 734.299C1490.86 736.142 1491.7 737.894 1492.5 739.572C1493.35 741.357 1494.2 743.158 1495.04 744.961C1495.73 746.437 1496.52 748.164 1497.45 750.193C1498.26 751.968 1499.07 753.751 1499.87 755.529C1500.7 757.373 1501.47 759.104 1502.18 760.717C1502.96 762.492 1503.73 764.257 1504.48 766.005L1504.48 766.006C1505.23 767.742 1505.96 769.459 1506.68 771.16C1507.5 773.077 1508.23 774.815 1508.89 776.402C1509.55 777.968 1510.26 779.697 1511.01 781.523C1511.81 783.48 1512.54 785.247 1513.14 786.728C1517.1 796.528 1521.1 806.823 1525.11 817.623C1529.14 828.439 1533.15 839.67 1537.16 851.326C1541.64 864.366 1545.93 876.879 1550.07 888.889H1546.95C1542.91 877.168 1538.72 864.974 1534.36 852.282C1530.24 840.272 1526.15 828.827 1522.09 817.933C1518.02 807.024 1513.95 796.558 1509.88 786.526C1509.06 784.52 1508.35 782.783 1507.75 781.32C1507.13 779.833 1506.43 778.143 1505.62 776.203C1504.82 774.299 1504.08 772.554 1503.4 770.958C1502.58 769.051 1501.85 767.363 1501.18 765.806C1500.5 764.23 1499.72 762.456 1498.86 760.523C1498.08 758.753 1497.3 757.024 1496.54 755.338C1495.73 753.526 1494.92 751.746 1494.12 750.006V750.003C1493.3 748.229 1492.49 746.488 1491.69 744.779C1490.84 742.957 1489.99 741.159 1489.14 739.395C1488.29 737.614 1487.44 735.856 1486.6 734.127C1485.79 732.471 1484.9 730.67 1483.91 728.68C1482.94 726.746 1482.04 724.96 1481.22 723.359C1480.28 721.529 1479.32 719.681 1478.34 717.829C1477.39 716.024 1476.43 714.228 1475.46 712.443C1474.49 710.641 1473.47 708.765 1472.4 706.827C1471.39 705.008 1470.37 703.188 1469.33 701.38C1468.2 699.407 1467.09 697.495 1465.99 695.642C1464.86 693.744 1463.75 691.893 1462.64 690.093C1461.46 688.15 1460.24 686.196 1459 684.245C1457.74 682.257 1456.51 680.356 1455.32 678.556V678.553C1453.97 676.51 1452.61 674.482 1451.23 672.479C1449.85 670.488 1448.49 668.55 1447.13 666.669C1445.58 664.519 1444.01 662.398 1442.42 660.316C1440.87 658.273 1439.29 656.265 1437.71 654.301C1435.79 651.929 1433.89 649.652 1432 647.478C1430.11 645.297 1428.2 643.179 1426.29 641.134L1426.29 641.132C1423.76 638.424 1421.21 635.837 1418.64 633.369C1416.09 630.92 1413.53 628.601 1410.97 626.414C1401.04 617.927 1391.05 611.384 1380.98 606.533C1370.98 601.715 1360.88 598.56 1350.67 596.814C1349.16 597.324 1347.6 597.842 1345.99 598.36V598.362L1343.57 599.141C1342.37 599.556 1341.18 599.964 1339.98 600.369C1337.31 601.272 1334.63 602.158 1331.93 603.018C1328.09 604.351 1324.22 605.642 1320.34 606.883C1316.46 608.229 1312.56 609.532 1308.63 610.787C1304.76 612.129 1300.86 613.43 1296.94 614.683C1293.05 616.031 1289.13 617.339 1285.18 618.601C1281.28 619.953 1277.36 621.26 1273.4 622.524C1269.5 623.875 1265.58 625.187 1261.62 626.451C1257.73 627.798 1253.82 629.104 1249.88 630.363C1245.99 631.713 1242.06 633.024 1238.11 634.286C1234.21 635.634 1230.29 636.942 1226.34 638.204C1222.44 639.557 1218.51 640.87 1214.55 642.135C1210.68 643.477 1206.77 644.779 1202.84 646.034C1198.95 647.385 1195.02 648.694 1191.07 649.957C1187.18 651.306 1183.26 652.615 1179.31 653.877C1175.41 655.227 1171.48 656.539 1167.53 657.803C1163.65 659.145 1159.75 660.448 1155.82 661.705C1151.92 663.055 1147.99 664.364 1144.04 665.629C1140.13 666.983 1136.19 668.298 1132.23 669.565C1128.18 670.967 1124.1 672.327 1119.99 673.635C1116.15 674.963 1112.28 676.25 1108.38 677.493L1106.85 678.02C1100.97 680.319 1095.03 682.546 1089.02 684.677C1083 686.809 1076.91 688.853 1070.75 690.776C1011.37 709.334 941.505 726.243 873.339 735.452C816.667 743.11 761.158 745.446 713.807 738.989C697.081 736.709 681.367 733.331 666.978 728.706C653.258 724.296 640.728 718.747 629.66 711.932C618.023 704.765 607.998 696.195 599.895 686.074C592.14 676.386 586.149 665.277 582.195 652.624C579.355 643.537 577.567 633.649 576.929 622.914C576.312 612.496 576.779 601.273 578.422 589.211C585.617 536.448 588.501 498.939 581.334 473.557C574.224 448.375 557.117 435.116 524.312 430.645C472.768 423.617 382.815 437.916 233.111 461.713L233.102 461.717L233.052 461.724V461.722L232.519 461.806C200.352 466.92 165.417 472.474 127.155 478.402C81.0835 485.54 38.8286 486.304 -4.38368e-05 482.073V480.595V479.092C38.6808 483.35 80.7868 482.612 126.708 475.497L131.645 474.731C83.7431 481.526 39.972 481.455 -4.38368e-05 475.938V474.461C41.8951 480.276 87.9269 480.152 138.584 472.304C176.712 466.397 212.001 460.785 244.481 455.623C394.421 431.787 484.505 417.466 536.369 424.538C603.942 433.751 606.931 478.837 592.375 585.583C589.372 607.616 590.341 626.776 594.714 643.342C601.818 670.255 617.923 690.354 640.554 704.859C663.245 719.398 692.505 728.332 725.854 732.879C795.037 742.314 881.774 732.884 964.055 715.518C885.275 731.305 803.405 739.414 737.421 730.418C704.415 725.918 675.362 717.13 652.644 702.886C629.866 688.606 613.452 668.844 605.784 642.432C600.75 625.086 599.489 604.874 602.68 581.469C617.096 475.753 614.221 431.114 547.938 422.076C496.282 415.032 406.277 429.341 256.474 453.155C224.102 458.302 188.932 463.893 150.572 469.836C95.0755 478.434 45.0533 477.877 -4.38368e-05 470.32V468.812C44.9768 476.393 94.9235 476.97 150.348 468.384C188.475 462.478 223.765 456.865 256.244 451.703C406.185 427.867 496.269 413.546 548.133 420.618C615.706 429.831 618.694 474.917 604.139 581.664C600.976 604.859 602.22 624.868 607.198 642.021C614.759 668.063 630.951 687.551 653.423 701.641C675.955 715.767 704.807 724.486 737.617 728.959C806.834 738.397 893.621 728.953 975.936 711.572C897.119 727.374 815.201 735.498 749.186 726.497C716.215 722.002 687.193 713.231 664.487 699.016C641.722 684.764 625.301 665.048 617.602 638.693C612.523 621.308 611.242 601.036 614.445 577.549C628.86 471.832 625.985 427.194 559.703 418.156C508.047 411.112 418.041 425.422 268.239 449.235C235.867 454.381 200.697 459.973 162.336 465.916C101.944 475.273 48.0795 473.723 0.00062283 464.172V462.656C47.9997 472.237 101.79 473.808 162.112 464.464C200.24 458.558 235.529 452.945 268.008 447.783C417.949 423.947 508.033 409.626 559.897 416.698C627.47 425.912 630.459 470.997 615.903 577.744C612.729 601.019 613.993 621.089 619.015 638.283C626.605 664.263 642.805 683.709 665.265 697.771C687.783 711.868 716.609 720.572 749.381 725.039C818.444 734.456 904.995 725.073 987.146 707.767C908.502 723.495 826.811 731.558 760.952 722.578C727.913 718.072 698.84 709.276 676.116 695.013C653.333 680.715 636.923 660.926 629.277 634.466C624.272 617.149 623.025 596.977 626.209 573.629C640.624 467.913 637.749 423.274 571.467 414.236C519.811 407.192 429.805 421.502 280.003 445.316C247.631 450.462 212.461 456.053 174.1 461.997C108.729 472.125 51.0051 469.476 -4.38368e-05 457.718V456.187C50.9255 467.982 108.572 470.661 173.875 460.544C212.003 454.638 247.292 449.026 279.771 443.863C429.712 420.028 519.796 405.707 571.66 412.778C639.233 421.992 642.221 467.077 627.666 573.824C624.511 596.96 625.741 616.931 630.689 634.056C638.228 660.139 654.418 679.658 676.9 693.767C699.437 707.912 728.31 716.642 761.147 721.119C830.283 730.547 916.949 721.134 999.179 703.792C920.45 719.557 838.65 727.65 772.713 718.658C739.586 714.142 710.446 705.309 687.693 690.978C664.881 676.61 648.486 656.716 640.914 630.114C636.013 612.894 634.814 592.865 637.971 569.71C652.387 463.993 649.512 419.354 583.229 410.317C531.571 403.273 441.569 417.582 291.765 441.396C259.393 446.542 224.223 452.134 185.862 458.077C115.425 468.989 53.8313 465.121 -0.000488281 450.94V449.39C53.7484 463.616 115.264 467.528 185.638 456.625C223.765 450.719 259.055 445.106 291.534 439.944C441.475 416.108 531.559 401.787 583.424 408.859C650.997 418.072 653.985 463.158 639.429 569.905C636.301 592.85 637.484 612.68 642.33 629.71C649.795 655.937 665.969 675.555 688.478 689.732C711.044 703.946 739.985 712.713 772.909 717.201C842.04 726.628 928.7 717.217 1010.93 699.878C932.204 715.639 850.41 723.729 784.48 714.738C751.251 710.208 722.033 701.337 699.25 686.927C676.409 672.482 660.028 652.473 652.54 625.703C647.755 608.592 646.607 588.724 649.734 565.79C664.15 460.074 661.275 415.435 594.993 406.397C543.337 399.353 453.331 413.663 303.529 437.476C271.157 442.622 235.987 448.214 197.626 454.158C122.006 465.872 56.5675 460.566 -4.38368e-05 443.733V442.182C56.4806 459.069 121.847 464.411 197.402 452.705C235.529 446.798 270.819 441.186 303.298 436.024C453.239 412.188 543.323 397.867 595.188 404.938C662.761 414.152 665.749 459.238 651.193 565.984C648.094 588.716 649.225 608.39 653.957 625.31C661.337 651.696 677.498 671.428 700.035 685.681C722.633 699.973 751.651 708.777 784.675 713.28C854.006 722.734 940.963 713.243 1023.4 695.809C944.456 711.666 862.367 719.835 796.241 710.819C762.905 706.273 733.605 697.359 710.793 682.869C687.922 668.342 671.562 648.213 664.164 621.271C659.498 604.275 658.402 584.574 661.499 561.87C675.914 456.153 673.039 411.515 606.757 402.477C555.101 395.433 465.095 409.742 315.293 433.556C282.921 438.702 247.751 444.294 209.39 450.237C128.457 462.775 59.2122 455.786 -0.000266059 436.06V434.486C59.1222 454.273 128.292 461.314 209.166 448.785C247.293 442.879 282.582 437.266 315.062 432.104C465.002 408.268 555.087 393.947 606.951 401.019C674.524 410.232 677.513 455.318 662.957 562.065C659.889 584.571 660.966 604.079 665.581 620.884C672.871 647.437 689.012 667.287 711.585 681.624C734.213 695.997 763.309 704.843 796.436 709.361C865.428 718.769 951.876 709.414 1033.95 692.142C955.388 707.836 873.805 715.872 808.015 706.902C774.568 702.34 745.183 693.382 722.333 678.803C699.425 664.187 683.079 643.929 675.778 616.808C671.237 599.94 670.199 580.416 673.262 557.951C687.678 452.234 684.803 407.595 618.52 398.557C566.864 391.514 476.859 405.822 327.056 429.636C294.684 434.783 259.514 440.374 221.153 446.317C134.797 459.695 61.7464 450.845 -4.38368e-05 428.001V426.403C61.6515 449.322 134.626 458.236 220.929 444.865C259.057 438.959 294.346 433.347 326.826 428.184C476.766 404.348 566.851 390.027 618.715 397.099C686.288 406.313 689.276 451.398 674.721 558.145C671.685 580.409 672.709 599.74 677.201 616.428C684.399 643.165 700.522 663.142 723.124 677.563C745.782 692.02 774.966 700.91 808.21 705.444C877.577 714.902 964.594 705.397 1047.07 687.944C968.085 703.817 885.938 712.001 819.769 702.978C786.208 698.403 756.741 689.399 733.862 674.735C710.925 660.036 694.601 639.65 687.398 612.347C682.979 595.601 681.997 576.253 685.026 554.031C699.442 448.314 696.567 403.676 630.284 394.638C578.628 387.594 488.623 401.903 338.82 425.716C306.448 430.863 271.278 436.454 232.917 442.398C141.019 456.634 64.1651 445.727 -4.38368e-05 419.53V417.907C64.0677 444.191 140.841 455.175 232.693 440.945C270.82 435.039 306.11 429.427 338.589 424.264C488.53 400.429 578.615 386.107 630.479 393.179C698.052 402.393 701.04 447.478 686.484 554.225C683.481 576.251 684.451 595.41 688.82 611.972C695.922 638.886 712.027 658.991 734.659 673.495C757.349 688.038 786.613 696.972 819.963 701.519C889.164 710.955 975.929 701.519 1058.23 684.144C979.432 699.939 897.533 708.057 831.534 699.057C797.861 694.468 768.305 685.418 745.394 670.666C722.422 655.877 706.122 635.358 699.017 607.869C694.722 591.248 693.794 572.087 696.79 550.111C711.205 444.394 708.331 399.755 642.048 390.718C590.391 383.674 500.387 397.983 350.583 421.797C318.211 426.943 283.042 432.535 244.681 438.478C147.111 453.594 66.4673 440.407 -4.38368e-05 410.622V408.968C66.3637 438.854 146.925 452.136 244.457 437.025C282.584 431.119 317.874 425.507 350.353 420.344C500.293 396.509 590.378 382.188 642.243 389.259C709.815 398.473 712.804 443.558 698.248 550.305C695.277 572.091 696.193 591.065 700.439 607.5C707.442 634.6 723.524 654.833 746.191 669.426C768.915 684.057 798.265 693.038 831.728 697.6C900.784 707.017 987.328 697.639 1069.47 680.337C990.837 696.062 909.161 704.121 843.305 695.141C809.513 690.533 779.871 681.438 756.921 666.593C733.915 651.71 717.633 631.056 710.633 603.375C706.465 586.892 705.591 567.916 708.553 546.191C722.969 440.474 720.094 395.836 653.811 386.798C602.155 379.754 512.15 394.063 362.347 417.877C329.975 423.023 294.805 428.615 256.445 434.558C153.039 450.578 68.6531 434.8 -4.38368e-05 401.174V399.517C68.5422 433.254 152.854 449.12 256.22 433.106C294.348 427.2 329.637 421.587 362.117 416.425C512.057 392.589 602.142 378.268 654.006 385.34C721.579 394.553 724.567 439.64 710.011 546.386C707.076 567.918 707.938 586.709 712.061 603.018C718.962 630.309 735.025 650.678 757.721 665.359C780.478 680.079 809.914 689.104 843.499 693.683C912.777 703.13 999.656 693.658 1082.04 676.249C1003.15 692.08 921.134 700.228 855.055 691.217C821.151 686.593 791.424 677.45 768.446 662.517C745.409 647.546 729.15 626.76 722.255 598.888C718.209 582.537 717.389 563.749 720.317 542.271C734.733 436.555 731.857 391.916 665.575 382.878C613.919 375.834 523.914 390.144 374.11 413.958C341.739 419.103 306.569 424.696 268.208 430.638C158.809 447.588 70.7115 428.928 -4.38368e-05 391.209V389.516C70.5951 427.36 158.613 446.13 267.984 429.186C306.111 423.28 341.401 417.667 373.88 412.505C523.821 388.669 613.905 374.348 665.77 381.42C733.343 390.634 736.331 435.72 721.775 542.466C718.872 563.754 719.681 582.36 723.683 598.536C730.481 626.015 746.518 646.513 769.246 661.283C792.032 676.091 821.554 685.163 855.25 689.758C924.289 699.172 1010.82 689.8 1092.95 672.504C1014.32 688.221 932.663 696.276 866.823 687.298C832.803 682.66 802.984 673.47 779.973 658.443C756.902 643.38 740.667 622.456 733.877 594.388C729.954 578.172 729.187 559.572 732.081 538.351C746.496 432.635 743.621 387.996 677.339 378.958C625.682 371.915 535.678 386.224 385.874 410.037C353.502 415.184 318.333 420.775 279.972 426.718C164.415 444.622 72.6348 422.791 -4.38368e-05 380.734V379.007C72.5108 421.205 164.211 443.166 279.748 425.266C317.875 419.36 353.165 413.748 385.644 408.586C535.584 384.75 625.669 370.428 677.533 377.501C745.106 386.714 748.095 431.8 733.539 538.546C730.67 559.584 731.425 578.004 735.305 594.042C741.999 621.717 758.015 642.35 780.773 657.21C803.594 672.111 833.206 681.23 867.018 685.84C936.102 695.259 1022.69 685.87 1104.87 668.554C1026.2 684.292 944.476 692.364 878.588 683.38C844.447 678.725 814.538 669.487 791.497 654.368C768.391 639.211 752.181 618.15 745.499 589.88C741.699 573.806 740.985 555.4 743.844 534.432C758.26 428.715 755.385 384.076 689.102 375.039C637.446 367.995 547.441 382.304 397.638 406.117C365.266 411.264 330.096 416.855 291.736 422.798C169.848 441.682 74.4086 416.366 -4.38368e-05 369.721V367.955C74.2775 414.757 169.632 440.229 291.511 421.347C329.639 415.441 364.928 409.828 397.408 404.666C547.348 380.83 637.433 366.508 689.297 373.581C756.87 382.794 759.859 427.88 745.303 534.627C742.469 555.409 743.173 573.64 746.933 589.547C753.52 617.413 769.509 638.182 792.303 653.135C815.155 668.13 844.855 677.296 878.783 681.922C948.033 691.366 1034.88 681.906 1117.24 664.508C1038.38 680.327 956.406 688.465 890.347 679.457C856.09 674.787 826.098 665.501 803.02 650.289C779.885 635.037 763.699 613.836 757.125 585.374C753.446 569.438 752.784 551.225 755.608 530.512C770.024 424.796 767.149 380.157 700.866 371.119C649.21 364.075 559.205 378.385 409.402 402.198C377.03 407.344 341.86 412.936 303.499 418.88C175.089 438.773 76.0304 409.617 -4.38368e-05 358.136V356.329C75.8888 407.986 174.862 437.321 303.275 417.427C341.402 411.521 376.692 405.908 409.171 400.746C559.112 376.91 649.197 362.589 701.061 369.661C768.633 378.875 771.622 423.96 757.066 530.707C754.266 551.24 754.92 569.278 758.559 585.046C765.039 613.11 781.005 634.018 803.825 649.06C826.708 664.145 856.494 673.357 890.542 678C959.463 687.396 1045.81 678.071 1127.82 660.831C1049.33 676.494 967.843 684.505 902.119 675.542C867.737 670.855 837.651 661.519 814.541 646.211C791.374 630.864 775.213 609.52 768.753 580.854C765.195 565.059 764.583 547.043 767.371 526.592C781.787 420.876 778.912 376.237 712.629 367.2C660.973 360.156 570.968 374.465 421.165 398.279C388.793 403.425 353.623 409.017 315.263 414.96C180.125 435.895 77.4855 402.514 -4.38368e-05 345.946V344.093C77.3335 400.857 179.883 434.446 315.039 413.507C353.166 407.601 388.456 401.989 420.935 396.826C570.875 372.99 660.96 358.67 712.825 365.741C780.397 374.955 783.386 420.04 768.83 526.787C766.065 547.063 766.666 564.907 770.188 580.533C776.557 608.795 792.497 629.843 815.353 644.983C838.268 660.161 868.145 669.426 902.314 674.084C971.609 683.534 1058.52 674.058 1140.92 656.64C1062.02 672.478 979.979 680.631 913.875 671.618C879.375 666.915 849.202 657.53 826.065 642.13C802.862 626.686 786.73 605.202 780.382 576.336C776.943 560.688 776.382 542.869 779.135 522.672C793.551 416.956 790.676 372.317 724.393 363.28C672.737 356.236 582.733 370.545 432.929 394.359C400.557 399.505 365.387 405.097 327.027 411.04C184.934 433.052 78.7653 395.024 -4.38368e-05 333.117V331.215C78.6013 393.337 184.678 431.607 326.802 409.588C364.93 403.681 400.219 398.069 432.699 392.906C582.639 369.07 672.724 354.749 724.588 361.821C792.161 371.035 795.149 416.121 780.593 522.867C777.864 542.885 778.417 560.536 781.823 576.025C788.08 604.485 803.991 625.668 826.876 640.902C849.82 656.173 879.785 665.484 914.069 670.16C983.116 679.575 1069.66 670.197 1151.81 652.896C1073.17 668.619 991.496 676.679 925.64 667.698C891.022 662.979 860.758 653.545 837.584 638.046C814.352 622.508 798.247 600.882 792.015 571.814C788.692 556.312 788.181 538.69 790.899 518.752C805.315 413.036 802.44 368.398 736.157 359.36C684.501 352.316 594.496 366.625 444.693 390.439C412.321 395.585 377.151 401.177 338.79 407.12C189.498 430.249 79.8575 387.104 -4.38368e-05 319.611V317.655C79.6788 385.383 189.223 428.805 338.566 405.668C376.693 399.762 411.983 394.149 444.462 388.987C594.403 365.151 684.487 350.83 736.352 357.902C803.925 367.115 806.913 412.201 792.357 518.948C789.663 538.71 790.167 556.164 793.455 571.507C799.6 600.17 815.485 621.497 838.402 636.824C861.375 652.191 891.429 661.549 925.834 666.24C994.902 675.659 1081.48 666.273 1163.64 648.963C1084.99 664.696 1003.28 672.763 937.408 663.78C902.666 659.044 872.311 649.56 849.107 633.966C825.843 618.328 809.764 596.559 803.649 567.285C800.443 551.929 799.981 534.507 802.662 514.833C817.078 409.116 814.203 364.478 747.92 355.44C696.264 348.396 606.259 362.705 456.456 386.519C424.084 391.665 388.914 397.257 350.554 403.2C193.794 427.486 80.7426 378.711 -4.38368e-05 305.387V303.377C80.5511 376.953 193.501 426.044 350.33 401.748C388.457 395.842 423.747 390.23 456.226 385.067C606.166 361.231 696.251 346.91 748.115 353.982C815.688 363.196 818.677 408.281 804.121 515.028C801.461 534.533 801.917 551.79 805.09 566.983C811.12 595.85 826.979 617.32 849.925 632.744C872.932 648.206 903.076 657.616 937.603 662.322C1006.08 671.66 1091.76 662.516 1173.28 645.492L1173.4 645.437C1095.36 660.907 1014.48 668.763 949.164 659.858C914.302 655.104 883.857 645.573 860.626 629.882C837.333 614.152 821.287 592.236 815.289 562.757C812.195 547.547 811.78 530.327 814.426 510.914C828.842 405.197 825.967 360.558 759.684 351.521C708.028 344.477 618.023 358.786 468.22 382.599C435.848 387.746 400.678 393.337 362.317 399.28C197.795 424.769 81.4068 369.792 -4.38368e-05 290.409V288.341C81.1971 367.995 197.483 423.33 362.093 397.828C400.221 391.922 435.51 386.31 467.99 381.147C617.93 357.312 708.015 342.99 759.879 350.062C827.451 359.276 830.44 404.362 815.885 511.108C813.261 530.357 813.669 547.413 816.73 562.462C822.643 591.529 838.472 613.141 861.45 628.66C884.485 644.218 914.717 653.677 949.359 658.399C1016.11 667.501 1099.2 659.04 1178.87 642.84L1179.15 642.707C1102.99 657.388 1024.58 664.623 960.945 655.945C925.96 651.175 895.421 641.593 872.152 625.8C848.824 609.968 832.803 587.904 826.926 558.216C823.948 543.164 823.579 526.148 826.19 506.994C840.606 401.277 837.731 356.638 771.448 347.601C719.792 340.557 629.787 354.866 479.984 378.68C447.612 383.826 412.442 389.418 374.081 395.361C201.477 422.102 81.8302 360.293 -4.38368e-05 274.632V272.501C81.5986 358.448 201.142 420.666 373.857 393.908C411.984 388.002 447.274 382.39 479.753 377.227C629.694 353.392 719.779 339.071 771.643 346.142C839.215 355.356 842.204 400.442 827.648 507.188C825.06 526.173 825.424 543.029 828.372 557.932C834.168 587.211 849.969 608.97 872.976 624.584C896.043 640.239 926.369 649.745 961.139 654.486C1026.17 663.353 1106.72 655.551 1184.5 640.161L1185.08 639.883C1110.76 653.818 1034.71 660.471 972.691 652.014C937.588 647.228 906.964 637.598 883.671 621.711C860.316 605.785 844.33 583.581 838.572 553.686C835.703 538.783 835.377 521.968 837.953 503.073C852.369 397.357 849.494 352.718 783.211 343.68C731.555 336.636 641.55 350.946 491.747 374.76C459.375 379.905 424.206 385.498 385.845 391.441C204.784 419.492 81.9868 350.112 -4.38368e-05 257.966V255.707C81.736 348.174 204.398 418.065 385.621 389.989C423.748 384.082 459.038 378.47 491.517 373.308C641.457 349.472 731.543 335.151 783.406 342.223C850.979 351.436 853.968 396.522 839.411 503.268C836.857 522 837.177 538.659 840.018 553.409C845.695 582.888 861.466 604.786 884.501 620.496C907.595 636.246 938.003 645.802 972.886 650.557C1036.27 659.199 1114.4 652.009 1190.33 637.39L1191.06 637.042C1118.59 650.243 1044.87 656.339 984.467 648.104C949.241 643.301 918.523 633.619 895.2 617.635C871.815 601.609 855.855 579.255 850.219 549.151C847.458 534.401 847.176 517.789 849.717 499.154C864.133 393.438 861.258 348.799 794.975 339.761C743.319 332.717 653.314 347.027 503.511 370.84C471.139 375.986 435.969 381.578 397.609 387.521C207.652 416.95 81.8511 339.131 -4.38368e-05 240.297V237.965C81.5735 337.128 207.237 415.527 397.384 386.069C435.512 380.163 470.801 374.55 503.281 369.388C653.221 345.552 743.305 331.231 795.17 338.303C862.743 347.516 865.731 392.603 851.175 499.349C848.656 517.826 848.932 534.281 851.665 548.88C857.223 578.567 872.964 600.611 896.029 616.419C919.155 632.267 949.657 641.873 984.662 646.646C1046.4 655.065 1122.14 648.46 1196.21 634.596L1196.78 634.324L1197.21 634.118C1126.56 646.616 1055.07 652.2 996.219 644.176C960.879 639.357 930.076 629.627 906.723 613.545C883.314 597.425 867.389 574.932 861.872 544.62C859.214 530.02 858.976 513.61 861.481 495.234C875.897 389.518 873.022 344.879 806.739 335.841C755.083 328.798 665.078 343.107 515.275 366.92C482.903 372.067 447.733 377.658 409.373 383.602C210.075 414.478 81.3862 327.304 -4.38368e-05 221.659V219.25C81.0795 325.229 209.628 413.06 409.148 382.149C447.275 376.243 482.565 370.63 515.045 365.468C664.985 341.633 755.069 327.311 806.933 334.384C874.506 343.597 877.495 388.683 862.939 495.429C860.455 513.652 860.689 529.911 863.318 544.361C868.757 574.249 884.467 596.433 907.559 612.335C930.708 628.277 961.294 637.929 996.414 642.718C1056.59 650.923 1130.05 644.857 1202.3 631.714L1203.46 631.168C1134.62 642.985 1065.31 648.076 1007.99 640.26C972.531 635.426 941.64 625.647 918.256 609.469C894.813 593.249 878.919 570.61 873.523 540.094C870.97 525.654 870.773 509.443 873.245 491.315C887.661 385.598 884.786 340.96 818.502 331.922C766.846 324.878 676.841 339.188 527.038 363.001C494.667 368.147 459.496 373.739 421.136 379.682C211.968 412.088 80.5566 314.472 -4.38368e-05 201.928V199.36C80.2115 312.261 211.446 410.681 420.912 378.23C459.039 372.324 494.329 366.711 526.808 361.549C676.748 337.713 766.833 323.392 818.697 330.464C886.27 339.677 889.258 384.763 874.702 491.51C872.253 509.478 872.447 525.54 874.976 539.841C880.296 569.935 895.972 592.261 919.092 608.259C942.273 624.296 972.947 633.999 1008.19 638.802C1066.82 646.798 1138.07 641.24 1208.53 628.792L1209.93 628.138C1142.83 639.312 1075.6 643.953 1019.75 636.338C984.173 631.486 953.196 621.659 929.789 605.39C906.321 589.078 890.459 566.299 885.185 535.583C882.729 521.29 882.57 505.273 885.008 487.395C899.423 381.679 896.549 337.04 830.266 328.002C778.61 320.958 688.604 335.268 538.801 359.082C506.43 364.228 471.259 369.819 432.899 375.763C213.202 409.798 79.3042 300.394 -4.38368e-05 180.912V178.257C78.9188 298.08 212.638 408.4 432.675 374.31C470.803 368.404 506.092 362.791 538.572 357.629C688.512 333.793 778.597 319.472 830.461 326.544C898.034 335.758 901.022 380.843 886.466 487.59C884.05 505.312 884.207 521.184 886.637 535.335C891.84 565.626 907.483 588.091 930.631 604.18C953.839 620.311 984.594 630.059 1019.94 634.879C1077.11 642.675 1146.28 637.586 1215.01 625.786L1216.58 625.066C1151.19 635.629 1085.95 639.844 1031.52 632.422C995.833 627.557 964.773 617.682 941.335 601.317C917.839 584.909 902.008 561.993 896.85 531.08C894.49 516.933 894.368 501.11 896.772 483.475C911.187 377.759 908.313 333.12 842.03 324.083C790.374 317.038 700.368 331.348 550.566 355.162C518.194 360.308 483.024 365.9 444.663 371.843C213.716 407.622 77.57 284.898 -4.38368e-05 158.581V155.746C77.1299 282.401 213.056 406.237 444.439 370.39C482.566 364.484 517.856 358.871 550.335 353.709C700.276 329.873 790.36 315.552 842.224 322.624C909.797 331.837 912.785 376.923 898.23 483.67C895.846 501.153 895.966 516.832 898.302 530.838C903.391 561.328 919.003 583.93 942.176 600.112C965.408 616.334 996.249 626.129 1031.71 630.964C1087.47 638.567 1154.64 633.917 1221.69 622.736L1223.54 621.899C1159.76 631.899 1096.37 635.735 1043.27 628.495C1007.48 623.614 976.343 613.696 952.886 597.246C929.368 580.753 913.57 557.707 908.524 526.608C906.251 512.602 906.162 496.959 908.536 479.555C922.951 373.839 920.076 329.2 853.793 320.162C802.137 313.118 712.132 327.428 562.329 351.241C529.957 356.387 494.787 361.979 456.427 367.922C213.359 405.581 75.2702 267.661 -4.38368e-05 134.766V131.735C74.7657 264.941 212.583 404.214 456.203 366.471C494.33 360.564 529.62 354.952 562.099 349.79C712.039 325.954 802.124 311.633 853.988 318.704C921.561 327.918 924.549 373.004 909.993 479.75C907.64 497.008 907.725 512.506 909.976 526.372C914.952 557.047 930.534 579.776 953.727 596.042C976.979 612.348 1007.9 622.187 1043.47 627.037C1097.92 634.462 1163.26 630.198 1228.73 619.583L1230.76 618.693C1168.52 628.164 1106.89 631.652 1055.05 624.585C1019.15 619.69 987.935 609.73 964.453 593.194C940.913 576.616 925.143 553.441 920.203 522.159C918.013 508.288 917.955 492.821 920.299 475.635C934.714 369.919 931.839 325.281 865.557 316.242C813.901 309.199 723.895 323.508 574.093 347.322C541.721 352.468 506.551 358.06 468.19 364.003C211.853 403.716 72.2793 248.164 -4.38368e-05 109.16V105.951C71.6977 245.188 210.963 402.366 467.966 362.551C506.094 356.645 541.383 351.032 573.862 345.87C723.803 322.034 813.887 307.712 865.752 314.785C933.325 323.998 936.313 369.084 921.757 475.831C919.433 492.878 919.487 508.203 921.656 521.935C926.526 552.783 942.081 575.638 965.301 591.99C988.579 608.381 1019.57 618.263 1055.24 623.128C1108.47 630.386 1172.1 626.478 1236.09 616.38L1237.12 615.939H1237.12L1238.45 615.378C1177.6 624.387 1117.52 627.573 1066.8 620.658C1030.82 615.752 999.539 605.754 976.039 589.146C952.479 572.494 936.734 549.209 931.892 517.771C929.775 504.026 929.746 488.713 932.063 471.716C946.479 366 943.604 321.361 877.321 312.323C825.665 305.28 735.66 319.588 585.857 343.402C553.485 348.549 518.315 354.14 479.954 360.083C208.944 402.07 68.4406 225.798 -4.38368e-05 81.5751V78.0953C67.7513 222.43 207.858 400.751 479.729 358.631C517.857 352.725 553.147 347.113 585.626 341.95C735.567 318.114 825.651 303.793 877.515 310.865C945.088 320.079 948.077 365.164 933.521 471.911C931.224 488.759 931.252 503.933 933.349 517.553C938.125 548.557 953.651 571.52 976.885 587.941C1000.18 604.406 1031.24 614.324 1067 619.199C1119.16 626.312 1181.33 622.698 1244.04 613.044L1245.83 612.307L1245.84 612.305L1246.65 611.976C1187.02 620.582 1128.28 623.515 1078.56 616.734C1042.5 611.817 1011.17 601.788 987.651 585.116C964.076 568.402 948.354 545.027 943.594 513.456C941.537 499.811 941.531 484.631 943.826 467.797C958.241 362.08 955.367 317.442 889.084 308.404C837.428 301.36 747.423 315.669 597.62 339.483C565.248 344.629 530.078 350.221 491.717 356.164C204.089 400.724 63.4904 199.458 -4.38368e-05 51.5618V47.834C62.67 195.599 202.796 399.438 491.493 354.711C529.621 348.805 564.911 343.193 597.39 338.03C747.331 314.194 837.415 299.873 889.279 306.945C956.852 316.159 959.84 361.244 945.284 467.991C943.009 484.678 943.014 499.721 945.053 513.237C949.747 544.377 965.252 567.434 988.505 583.917C1011.82 600.442 1042.92 610.39 1078.76 615.276C1130.04 622.268 1190.99 618.893 1252.61 609.608C1253.64 609.207 1254.63 608.824 1255.57 608.467C1196.92 616.758 1139.26 619.49 1090.33 612.819C1054.22 607.894 1022.84 597.843 999.314 581.126C975.724 564.367 960.019 540.922 955.317 509.257C953.301 495.684 953.312 480.596 955.59 463.876C970.006 358.16 967.131 313.521 900.848 304.484C849.192 297.44 759.187 311.749 609.384 335.563C577.012 340.709 541.842 346.301 503.481 352.244C196.567 399.792 57.0446 167.438 -4.38368e-05 18.7016V14.5647C56.0068 162.721 194.865 398.569 503.257 350.791C541.384 344.885 576.674 339.273 609.153 334.11C759.094 310.275 849.178 295.954 901.043 303.025C968.615 312.239 971.604 357.325 957.048 464.071C954.789 480.648 954.778 495.6 956.775 509.045C961.414 540.276 976.902 563.4 1000.17 579.928C1023.49 596.497 1054.64 606.468 1090.53 611.361C1141.2 618.269 1201.3 615.058 1262.16 606.023L1264.57 605.169H1264.57L1265.68 604.782C1207.6 612.892 1150.56 615.508 1102.1 608.901C1065.97 603.976 1034.59 593.922 1011.06 577.195C987.468 560.428 971.765 536.97 967.073 505.288C965.065 491.728 965.078 476.656 967.353 459.957C981.769 354.241 978.894 309.602 912.612 300.564C860.956 293.52 770.95 307.83 621.148 331.643C588.776 336.789 553.606 342.381 515.245 348.324C197.951 397.482 59.5664 147.488 6.26062 0H7.82196Z" fill="#ACBAC9" fill-opacity="0.19"/>
</g>
<defs>
<clipPath id="clip0_15_216">
<rect width="2000" height="888.889" fill="white"/>
</clipPath>
</defs>
</svg>
