<svg width="1680" height="1960" viewBox="0 0 1680 1960" fill="none" xmlns="http://www.w3.org/2000/svg">
<g opacity="0.6">
<path opacity="0.3" d="M618.876 898.891L680.218 868.267C697.07 859.845 710.931 847.187 720.153 831.799L753.689 775.782C791.78 712.185 891.827 712.185 929.918 775.782L963.454 831.799C972.676 847.187 986.537 859.845 1003.39 868.267L1064.73 898.891C1134.37 933.675 1134.37 1025.04 1064.73 1059.82L1003.39 1090.45C986.537 1098.87 972.676 1111.53 963.454 1126.91L929.918 1182.93C891.827 1246.53 791.78 1246.53 753.689 1182.93L720.153 1126.91C710.931 1111.53 697.07 1098.87 680.218 1090.45L618.876 1059.82C549.234 1025.04 549.234 933.675 618.876 898.891Z" stroke="#A8B1A0" stroke-width="0.835011" stroke-miterlimit="10"/>
<path opacity="0.3" d="M505.035 858.322L597.701 811.967C623.157 799.219 644.097 780.059 658.028 756.766L708.688 671.974C766.23 575.71 917.365 575.71 974.907 671.974L1025.57 756.766C1039.5 780.059 1060.44 799.219 1085.89 811.967L1178.56 858.322C1283.76 910.974 1283.76 1049.27 1178.56 1101.92L1085.89 1148.27C1060.44 1161.02 1039.5 1180.18 1025.57 1203.48L974.907 1288.27C917.365 1384.53 766.23 1384.53 708.688 1288.27L658.028 1203.48C644.097 1180.18 623.157 1161.02 597.701 1148.27L505.035 1101.92C399.831 1049.27 399.831 910.974 505.035 858.322Z" stroke="#A8B1A0" stroke-width="0.835011" stroke-miterlimit="10"/>
<path opacity="0.3" d="M389.839 817.234L514.201 755.24C548.366 738.192 576.467 712.568 595.164 681.417L663.153 568.021C740.376 439.282 943.208 439.282 1020.43 568.021L1088.42 681.417C1107.12 712.568 1135.22 738.192 1169.38 755.24L1293.75 817.234C1434.93 887.647 1434.93 1072.59 1293.75 1143.01L1169.38 1205C1135.22 1222.05 1107.12 1247.67 1088.42 1278.82L1020.43 1392.22C943.208 1520.96 740.376 1520.96 663.153 1392.22L595.164 1278.82C576.467 1247.67 548.366 1222.05 514.201 1205L389.839 1143.01C248.65 1072.59 248.65 887.647 389.839 817.234Z" stroke="#A8B1A0" stroke-width="0.835011" stroke-miterlimit="10"/>
<path opacity="0.3" d="M257.036 769.297L417.942 689.06C462.146 666.994 498.506 633.83 522.696 593.51L610.664 446.743C710.579 280.116 973.014 280.116 1072.93 446.743L1160.9 593.51C1185.09 633.83 1221.45 666.994 1265.65 689.06L1426.56 769.297C1609.24 860.433 1609.24 1099.81 1426.56 1190.94L1265.65 1271.18C1221.45 1293.25 1185.09 1326.41 1160.9 1366.73L1072.93 1513.5C973.014 1680.12 710.579 1680.12 610.664 1513.5L522.696 1366.73C498.506 1326.41 462.146 1293.25 417.942 1271.18L257.036 1190.94C74.3578 1099.81 74.3578 860.433 257.036 769.297Z" stroke="#A8B1A0" stroke-width="0.835011" stroke-miterlimit="10"/>
<path opacity="0.3" d="M124.23 721.36L321.68 622.878C375.923 595.796 420.541 555.09 450.226 505.603L558.171 325.464C680.78 120.95 1002.82 120.95 1125.43 325.464L1233.37 505.603C1263.06 555.09 1307.67 595.796 1361.92 622.878L1559.37 721.36C1783.53 833.218 1783.53 1127.02 1559.37 1238.88L1361.92 1337.36C1307.67 1364.44 1263.06 1405.15 1233.37 1454.64L1125.43 1634.78C1002.82 1839.29 680.78 1839.29 558.171 1634.78L450.226 1454.64C420.541 1405.15 375.923 1364.44 321.68 1337.36L124.23 1238.88C-99.9373 1127.02 -99.9373 833.218 124.23 721.36Z" stroke="#A8B1A0" stroke-width="0.835011" stroke-miterlimit="10"/>
<path opacity="0.3" d="M-26.1967 666.575L212.646 547.243C278.259 514.427 332.23 465.103 368.138 405.138L498.713 186.86C647.024 -60.9533 1036.57 -60.9533 1184.88 186.86L1315.46 405.138C1351.36 465.103 1405.33 514.427 1470.95 547.243L1709.79 666.575C1980.95 802.117 1980.95 1158.12 1709.79 1293.67L1470.95 1413C1405.33 1445.81 1351.36 1495.14 1315.46 1555.1L1184.88 1773.38C1036.57 2021.19 647.024 2021.19 498.713 1773.38L368.138 1555.1C332.23 1495.14 278.259 1445.81 212.646 1413L-26.1967 1293.67C-297.356 1158.12 -297.356 802.117 -26.1967 666.575Z" stroke="#A8B1A0" stroke-width="0.835011" stroke-miterlimit="10"/>
</g>
</svg>
